%TF.GenerationSoftware,KiCad,Pcbnew,8.0.4*%
%TF.CreationDate,2024-08-29T19:40:48+02:00*%
%TF.ProjectId,led-pcb,6c65642d-7063-4622-9e6b-696361645f70,rev?*%
%TF.SameCoordinates,Original*%
%TF.FileFunction,Legend,Top*%
%TF.FilePolarity,Positive*%
%FSLAX46Y46*%
G04 Gerber Fmt 4.6, Leading zero omitted, Abs format (unit mm)*
G04 Created by KiCad (PCBNEW 8.0.4) date 2024-08-29 19:40:48*
%MOMM*%
%LPD*%
G01*
G04 APERTURE LIST*
%ADD10C,0.150000*%
%ADD11C,0.120000*%
%ADD12R,3.150000X1.000000*%
G04 APERTURE END LIST*
D10*
X131191666Y-66466819D02*
X131191666Y-67181104D01*
X131191666Y-67181104D02*
X131144047Y-67323961D01*
X131144047Y-67323961D02*
X131048809Y-67419200D01*
X131048809Y-67419200D02*
X130905952Y-67466819D01*
X130905952Y-67466819D02*
X130810714Y-67466819D01*
X132191666Y-67466819D02*
X131620238Y-67466819D01*
X131905952Y-67466819D02*
X131905952Y-66466819D01*
X131905952Y-66466819D02*
X131810714Y-66609676D01*
X131810714Y-66609676D02*
X131715476Y-66704914D01*
X131715476Y-66704914D02*
X131620238Y-66752533D01*
D11*
%TO.C,J1*%
X127485000Y-68582000D02*
X128925000Y-68582000D01*
X128925000Y-68012000D02*
X128925000Y-68582000D01*
X128925000Y-68012000D02*
X134125000Y-68012000D01*
X128925000Y-70102000D02*
X128925000Y-71122000D01*
X128925000Y-72642000D02*
X128925000Y-73212000D01*
X128925000Y-73212000D02*
X134125000Y-73212000D01*
X134125000Y-68012000D02*
X134125000Y-68582000D01*
X134125000Y-70102000D02*
X134125000Y-71122000D01*
X134125000Y-72642000D02*
X134125000Y-73212000D01*
%TD*%
%LPC*%
D12*
%TO.C,J1*%
X129000000Y-69342000D03*
X134050000Y-69342000D03*
X129000000Y-71882000D03*
X134050000Y-71882000D03*
%TD*%
%LPD*%
M02*
