%TF.GenerationSoftware,KiCad,Pcbnew,7.0.5-0*%
%TF.CreationDate,2023-07-31T20:50:07+02:00*%
%TF.ProjectId,wireless-wizard-wand,77697265-6c65-4737-932d-77697a617264,rev?*%
%TF.SameCoordinates,Original*%
%TF.FileFunction,Drillmap*%
%TF.FilePolarity,Positive*%
%FSLAX45Y45*%
G04 Gerber Fmt 4.5, Leading zero omitted, Abs format (unit mm)*
G04 Created by KiCad (PCBNEW 7.0.5-0) date 2023-07-31 20:50:07*
%MOMM*%
%LPD*%
G01*
G04 APERTURE LIST*
%ADD10C,0.100000*%
%ADD11C,0.200000*%
G04 APERTURE END LIST*
D10*
X8140000Y-2830000D02*
X10570000Y-2830000D01*
X10570000Y-7040000D01*
X8140000Y-7040000D01*
X8140000Y-2830000D01*
D11*
X8395777Y-7356484D02*
X8395777Y-7156484D01*
X8395777Y-7156484D02*
X8443396Y-7156484D01*
X8443396Y-7156484D02*
X8471967Y-7166008D01*
X8471967Y-7166008D02*
X8491015Y-7185055D01*
X8491015Y-7185055D02*
X8500539Y-7204103D01*
X8500539Y-7204103D02*
X8510063Y-7242198D01*
X8510063Y-7242198D02*
X8510063Y-7270769D01*
X8510063Y-7270769D02*
X8500539Y-7308865D01*
X8500539Y-7308865D02*
X8491015Y-7327912D01*
X8491015Y-7327912D02*
X8471967Y-7346960D01*
X8471967Y-7346960D02*
X8443396Y-7356484D01*
X8443396Y-7356484D02*
X8395777Y-7356484D01*
X8595777Y-7356484D02*
X8595777Y-7223150D01*
X8595777Y-7261246D02*
X8605301Y-7242198D01*
X8605301Y-7242198D02*
X8614824Y-7232674D01*
X8614824Y-7232674D02*
X8633872Y-7223150D01*
X8633872Y-7223150D02*
X8652920Y-7223150D01*
X8719586Y-7356484D02*
X8719586Y-7223150D01*
X8719586Y-7156484D02*
X8710063Y-7166008D01*
X8710063Y-7166008D02*
X8719586Y-7175531D01*
X8719586Y-7175531D02*
X8729110Y-7166008D01*
X8729110Y-7166008D02*
X8719586Y-7156484D01*
X8719586Y-7156484D02*
X8719586Y-7175531D01*
X8843396Y-7356484D02*
X8824348Y-7346960D01*
X8824348Y-7346960D02*
X8814824Y-7327912D01*
X8814824Y-7327912D02*
X8814824Y-7156484D01*
X8948158Y-7356484D02*
X8929110Y-7346960D01*
X8929110Y-7346960D02*
X8919586Y-7327912D01*
X8919586Y-7327912D02*
X8919586Y-7156484D01*
X9176729Y-7356484D02*
X9176729Y-7156484D01*
X9176729Y-7156484D02*
X9243396Y-7299341D01*
X9243396Y-7299341D02*
X9310063Y-7156484D01*
X9310063Y-7156484D02*
X9310063Y-7356484D01*
X9491015Y-7356484D02*
X9491015Y-7251722D01*
X9491015Y-7251722D02*
X9481491Y-7232674D01*
X9481491Y-7232674D02*
X9462444Y-7223150D01*
X9462444Y-7223150D02*
X9424348Y-7223150D01*
X9424348Y-7223150D02*
X9405301Y-7232674D01*
X9491015Y-7346960D02*
X9471967Y-7356484D01*
X9471967Y-7356484D02*
X9424348Y-7356484D01*
X9424348Y-7356484D02*
X9405301Y-7346960D01*
X9405301Y-7346960D02*
X9395777Y-7327912D01*
X9395777Y-7327912D02*
X9395777Y-7308865D01*
X9395777Y-7308865D02*
X9405301Y-7289817D01*
X9405301Y-7289817D02*
X9424348Y-7280293D01*
X9424348Y-7280293D02*
X9471967Y-7280293D01*
X9471967Y-7280293D02*
X9491015Y-7270769D01*
X9586253Y-7223150D02*
X9586253Y-7423150D01*
X9586253Y-7232674D02*
X9605301Y-7223150D01*
X9605301Y-7223150D02*
X9643396Y-7223150D01*
X9643396Y-7223150D02*
X9662444Y-7232674D01*
X9662444Y-7232674D02*
X9671967Y-7242198D01*
X9671967Y-7242198D02*
X9681491Y-7261246D01*
X9681491Y-7261246D02*
X9681491Y-7318388D01*
X9681491Y-7318388D02*
X9671967Y-7337436D01*
X9671967Y-7337436D02*
X9662444Y-7346960D01*
X9662444Y-7346960D02*
X9643396Y-7356484D01*
X9643396Y-7356484D02*
X9605301Y-7356484D01*
X9605301Y-7356484D02*
X9586253Y-7346960D01*
X9767205Y-7337436D02*
X9776729Y-7346960D01*
X9776729Y-7346960D02*
X9767205Y-7356484D01*
X9767205Y-7356484D02*
X9757682Y-7346960D01*
X9757682Y-7346960D02*
X9767205Y-7337436D01*
X9767205Y-7337436D02*
X9767205Y-7356484D01*
X9767205Y-7232674D02*
X9776729Y-7242198D01*
X9776729Y-7242198D02*
X9767205Y-7251722D01*
X9767205Y-7251722D02*
X9757682Y-7242198D01*
X9757682Y-7242198D02*
X9767205Y-7232674D01*
X9767205Y-7232674D02*
X9767205Y-7251722D01*
M02*
