%TF.GenerationSoftware,KiCad,Pcbnew,7.0.5-0*%
%TF.CreationDate,2023-07-31T21:18:35+02:00*%
%TF.ProjectId,wireless-wizard-wand,77697265-6c65-4737-932d-77697a617264,rev?*%
%TF.SameCoordinates,Original*%
%TF.FileFunction,Legend,Top*%
%TF.FilePolarity,Positive*%
%FSLAX46Y46*%
G04 Gerber Fmt 4.6, Leading zero omitted, Abs format (unit mm)*
G04 Created by KiCad (PCBNEW 7.0.5-0) date 2023-07-31 21:18:35*
%MOMM*%
%LPD*%
G01*
G04 APERTURE LIST*
%ADD10C,0.200000*%
%ADD11C,0.175000*%
%ADD12C,0.125000*%
%ADD13C,0.150000*%
%ADD14C,0.120000*%
%ADD15C,0.100000*%
%ADD16C,0.325000*%
G04 APERTURE END LIST*
D10*
X91069673Y-66467219D02*
X91069673Y-65467219D01*
X91069673Y-65943409D02*
X91641101Y-65943409D01*
X91641101Y-66467219D02*
X91641101Y-65467219D01*
X92545863Y-66467219D02*
X92545863Y-65943409D01*
X92545863Y-65943409D02*
X92498244Y-65848171D01*
X92498244Y-65848171D02*
X92403006Y-65800552D01*
X92403006Y-65800552D02*
X92212530Y-65800552D01*
X92212530Y-65800552D02*
X92117292Y-65848171D01*
X92545863Y-66419600D02*
X92450625Y-66467219D01*
X92450625Y-66467219D02*
X92212530Y-66467219D01*
X92212530Y-66467219D02*
X92117292Y-66419600D01*
X92117292Y-66419600D02*
X92069673Y-66324361D01*
X92069673Y-66324361D02*
X92069673Y-66229123D01*
X92069673Y-66229123D02*
X92117292Y-66133885D01*
X92117292Y-66133885D02*
X92212530Y-66086266D01*
X92212530Y-66086266D02*
X92450625Y-66086266D01*
X92450625Y-66086266D02*
X92545863Y-66038647D01*
X93022054Y-65800552D02*
X93022054Y-66800552D01*
X93022054Y-65848171D02*
X93117292Y-65800552D01*
X93117292Y-65800552D02*
X93307768Y-65800552D01*
X93307768Y-65800552D02*
X93403006Y-65848171D01*
X93403006Y-65848171D02*
X93450625Y-65895790D01*
X93450625Y-65895790D02*
X93498244Y-65991028D01*
X93498244Y-65991028D02*
X93498244Y-66276742D01*
X93498244Y-66276742D02*
X93450625Y-66371980D01*
X93450625Y-66371980D02*
X93403006Y-66419600D01*
X93403006Y-66419600D02*
X93307768Y-66467219D01*
X93307768Y-66467219D02*
X93117292Y-66467219D01*
X93117292Y-66467219D02*
X93022054Y-66419600D01*
X93783959Y-65800552D02*
X94164911Y-65800552D01*
X93926816Y-65467219D02*
X93926816Y-66324361D01*
X93926816Y-66324361D02*
X93974435Y-66419600D01*
X93974435Y-66419600D02*
X94069673Y-66467219D01*
X94069673Y-66467219D02*
X94164911Y-66467219D01*
X94498245Y-66467219D02*
X94498245Y-65800552D01*
X94498245Y-65467219D02*
X94450626Y-65514838D01*
X94450626Y-65514838D02*
X94498245Y-65562457D01*
X94498245Y-65562457D02*
X94545864Y-65514838D01*
X94545864Y-65514838D02*
X94498245Y-65467219D01*
X94498245Y-65467219D02*
X94498245Y-65562457D01*
X95403006Y-66419600D02*
X95307768Y-66467219D01*
X95307768Y-66467219D02*
X95117292Y-66467219D01*
X95117292Y-66467219D02*
X95022054Y-66419600D01*
X95022054Y-66419600D02*
X94974435Y-66371980D01*
X94974435Y-66371980D02*
X94926816Y-66276742D01*
X94926816Y-66276742D02*
X94926816Y-65991028D01*
X94926816Y-65991028D02*
X94974435Y-65895790D01*
X94974435Y-65895790D02*
X95022054Y-65848171D01*
X95022054Y-65848171D02*
X95117292Y-65800552D01*
X95117292Y-65800552D02*
X95307768Y-65800552D01*
X95307768Y-65800552D02*
X95403006Y-65848171D01*
X95783959Y-66419600D02*
X95879197Y-66467219D01*
X95879197Y-66467219D02*
X96069673Y-66467219D01*
X96069673Y-66467219D02*
X96164911Y-66419600D01*
X96164911Y-66419600D02*
X96212530Y-66324361D01*
X96212530Y-66324361D02*
X96212530Y-66276742D01*
X96212530Y-66276742D02*
X96164911Y-66181504D01*
X96164911Y-66181504D02*
X96069673Y-66133885D01*
X96069673Y-66133885D02*
X95926816Y-66133885D01*
X95926816Y-66133885D02*
X95831578Y-66086266D01*
X95831578Y-66086266D02*
X95783959Y-65991028D01*
X95783959Y-65991028D02*
X95783959Y-65943409D01*
X95783959Y-65943409D02*
X95831578Y-65848171D01*
X95831578Y-65848171D02*
X95926816Y-65800552D01*
X95926816Y-65800552D02*
X96069673Y-65800552D01*
X96069673Y-65800552D02*
X96164911Y-65848171D01*
D11*
X98605233Y-46018202D02*
X97905233Y-46018202D01*
X98605233Y-45684869D02*
X97905233Y-45684869D01*
X97905233Y-45684869D02*
X98405233Y-45451536D01*
X98405233Y-45451536D02*
X97905233Y-45218202D01*
X97905233Y-45218202D02*
X98605233Y-45218202D01*
X97905233Y-44884869D02*
X98471900Y-44884869D01*
X98471900Y-44884869D02*
X98538566Y-44851536D01*
X98538566Y-44851536D02*
X98571900Y-44818202D01*
X98571900Y-44818202D02*
X98605233Y-44751536D01*
X98605233Y-44751536D02*
X98605233Y-44618202D01*
X98605233Y-44618202D02*
X98571900Y-44551536D01*
X98571900Y-44551536D02*
X98538566Y-44518202D01*
X98538566Y-44518202D02*
X98471900Y-44484869D01*
X98471900Y-44484869D02*
X97905233Y-44484869D01*
D12*
X98525093Y-30171119D02*
X98763188Y-31171119D01*
X98763188Y-31171119D02*
X98953664Y-30456833D01*
X98953664Y-30456833D02*
X99144140Y-31171119D01*
X99144140Y-31171119D02*
X99382236Y-30171119D01*
X99667950Y-30171119D02*
X99906045Y-31171119D01*
X99906045Y-31171119D02*
X100096521Y-30456833D01*
X100096521Y-30456833D02*
X100286997Y-31171119D01*
X100286997Y-31171119D02*
X100525093Y-30171119D01*
X100810807Y-30171119D02*
X101048902Y-31171119D01*
X101048902Y-31171119D02*
X101239378Y-30456833D01*
X101239378Y-30456833D02*
X101429854Y-31171119D01*
X101429854Y-31171119D02*
X101667950Y-30171119D01*
X102715569Y-30504452D02*
X102953664Y-31171119D01*
X102953664Y-31171119D02*
X103191759Y-30504452D01*
X104096521Y-31171119D02*
X103525093Y-31171119D01*
X103810807Y-31171119D02*
X103810807Y-30171119D01*
X103810807Y-30171119D02*
X103715569Y-30313976D01*
X103715569Y-30313976D02*
X103620331Y-30409214D01*
X103620331Y-30409214D02*
X103525093Y-30456833D01*
D13*
X96466779Y-68919819D02*
X96466779Y-67919819D01*
X96466779Y-67919819D02*
X96800112Y-68634104D01*
X96800112Y-68634104D02*
X97133445Y-67919819D01*
X97133445Y-67919819D02*
X97133445Y-68919819D01*
X97609636Y-68538866D02*
X98371541Y-68538866D01*
X88836779Y-68869819D02*
X88836779Y-67869819D01*
X88836779Y-67869819D02*
X89170112Y-68584104D01*
X89170112Y-68584104D02*
X89503445Y-67869819D01*
X89503445Y-67869819D02*
X89503445Y-68869819D01*
X89979636Y-68488866D02*
X90741541Y-68488866D01*
X90360588Y-68869819D02*
X90360588Y-68107914D01*
%TO.C,R1*%
X96633333Y-57854819D02*
X96300000Y-57378628D01*
X96061905Y-57854819D02*
X96061905Y-56854819D01*
X96061905Y-56854819D02*
X96442857Y-56854819D01*
X96442857Y-56854819D02*
X96538095Y-56902438D01*
X96538095Y-56902438D02*
X96585714Y-56950057D01*
X96585714Y-56950057D02*
X96633333Y-57045295D01*
X96633333Y-57045295D02*
X96633333Y-57188152D01*
X96633333Y-57188152D02*
X96585714Y-57283390D01*
X96585714Y-57283390D02*
X96538095Y-57331009D01*
X96538095Y-57331009D02*
X96442857Y-57378628D01*
X96442857Y-57378628D02*
X96061905Y-57378628D01*
X97585714Y-57854819D02*
X97014286Y-57854819D01*
X97300000Y-57854819D02*
X97300000Y-56854819D01*
X97300000Y-56854819D02*
X97204762Y-56997676D01*
X97204762Y-56997676D02*
X97109524Y-57092914D01*
X97109524Y-57092914D02*
X97014286Y-57140533D01*
%TO.C,C1*%
X85933333Y-61859580D02*
X85885714Y-61907200D01*
X85885714Y-61907200D02*
X85742857Y-61954819D01*
X85742857Y-61954819D02*
X85647619Y-61954819D01*
X85647619Y-61954819D02*
X85504762Y-61907200D01*
X85504762Y-61907200D02*
X85409524Y-61811961D01*
X85409524Y-61811961D02*
X85361905Y-61716723D01*
X85361905Y-61716723D02*
X85314286Y-61526247D01*
X85314286Y-61526247D02*
X85314286Y-61383390D01*
X85314286Y-61383390D02*
X85361905Y-61192914D01*
X85361905Y-61192914D02*
X85409524Y-61097676D01*
X85409524Y-61097676D02*
X85504762Y-61002438D01*
X85504762Y-61002438D02*
X85647619Y-60954819D01*
X85647619Y-60954819D02*
X85742857Y-60954819D01*
X85742857Y-60954819D02*
X85885714Y-61002438D01*
X85885714Y-61002438D02*
X85933333Y-61050057D01*
X86885714Y-61954819D02*
X86314286Y-61954819D01*
X86600000Y-61954819D02*
X86600000Y-60954819D01*
X86600000Y-60954819D02*
X86504762Y-61097676D01*
X86504762Y-61097676D02*
X86409524Y-61192914D01*
X86409524Y-61192914D02*
X86314286Y-61240533D01*
%TO.C,C2*%
X86033333Y-64059580D02*
X85985714Y-64107200D01*
X85985714Y-64107200D02*
X85842857Y-64154819D01*
X85842857Y-64154819D02*
X85747619Y-64154819D01*
X85747619Y-64154819D02*
X85604762Y-64107200D01*
X85604762Y-64107200D02*
X85509524Y-64011961D01*
X85509524Y-64011961D02*
X85461905Y-63916723D01*
X85461905Y-63916723D02*
X85414286Y-63726247D01*
X85414286Y-63726247D02*
X85414286Y-63583390D01*
X85414286Y-63583390D02*
X85461905Y-63392914D01*
X85461905Y-63392914D02*
X85509524Y-63297676D01*
X85509524Y-63297676D02*
X85604762Y-63202438D01*
X85604762Y-63202438D02*
X85747619Y-63154819D01*
X85747619Y-63154819D02*
X85842857Y-63154819D01*
X85842857Y-63154819D02*
X85985714Y-63202438D01*
X85985714Y-63202438D02*
X86033333Y-63250057D01*
X86414286Y-63250057D02*
X86461905Y-63202438D01*
X86461905Y-63202438D02*
X86557143Y-63154819D01*
X86557143Y-63154819D02*
X86795238Y-63154819D01*
X86795238Y-63154819D02*
X86890476Y-63202438D01*
X86890476Y-63202438D02*
X86938095Y-63250057D01*
X86938095Y-63250057D02*
X86985714Y-63345295D01*
X86985714Y-63345295D02*
X86985714Y-63440533D01*
X86985714Y-63440533D02*
X86938095Y-63583390D01*
X86938095Y-63583390D02*
X86366667Y-64154819D01*
X86366667Y-64154819D02*
X86985714Y-64154819D01*
D10*
%TO.C,S1*%
X92838095Y-30604600D02*
X92980952Y-30652219D01*
X92980952Y-30652219D02*
X93219047Y-30652219D01*
X93219047Y-30652219D02*
X93314285Y-30604600D01*
X93314285Y-30604600D02*
X93361904Y-30556980D01*
X93361904Y-30556980D02*
X93409523Y-30461742D01*
X93409523Y-30461742D02*
X93409523Y-30366504D01*
X93409523Y-30366504D02*
X93361904Y-30271266D01*
X93361904Y-30271266D02*
X93314285Y-30223647D01*
X93314285Y-30223647D02*
X93219047Y-30176028D01*
X93219047Y-30176028D02*
X93028571Y-30128409D01*
X93028571Y-30128409D02*
X92933333Y-30080790D01*
X92933333Y-30080790D02*
X92885714Y-30033171D01*
X92885714Y-30033171D02*
X92838095Y-29937933D01*
X92838095Y-29937933D02*
X92838095Y-29842695D01*
X92838095Y-29842695D02*
X92885714Y-29747457D01*
X92885714Y-29747457D02*
X92933333Y-29699838D01*
X92933333Y-29699838D02*
X93028571Y-29652219D01*
X93028571Y-29652219D02*
X93266666Y-29652219D01*
X93266666Y-29652219D02*
X93409523Y-29699838D01*
X94361904Y-30652219D02*
X93790476Y-30652219D01*
X94076190Y-30652219D02*
X94076190Y-29652219D01*
X94076190Y-29652219D02*
X93980952Y-29795076D01*
X93980952Y-29795076D02*
X93885714Y-29890314D01*
X93885714Y-29890314D02*
X93790476Y-29937933D01*
D13*
%TO.C,U2*%
X92966666Y-62216033D02*
X92966666Y-62782700D01*
X92966666Y-62782700D02*
X93000000Y-62849366D01*
X93000000Y-62849366D02*
X93033333Y-62882700D01*
X93033333Y-62882700D02*
X93100000Y-62916033D01*
X93100000Y-62916033D02*
X93233333Y-62916033D01*
X93233333Y-62916033D02*
X93300000Y-62882700D01*
X93300000Y-62882700D02*
X93333333Y-62849366D01*
X93333333Y-62849366D02*
X93366666Y-62782700D01*
X93366666Y-62782700D02*
X93366666Y-62216033D01*
X93666666Y-62282700D02*
X93699999Y-62249366D01*
X93699999Y-62249366D02*
X93766666Y-62216033D01*
X93766666Y-62216033D02*
X93933333Y-62216033D01*
X93933333Y-62216033D02*
X93999999Y-62249366D01*
X93999999Y-62249366D02*
X94033333Y-62282700D01*
X94033333Y-62282700D02*
X94066666Y-62349366D01*
X94066666Y-62349366D02*
X94066666Y-62416033D01*
X94066666Y-62416033D02*
X94033333Y-62516033D01*
X94033333Y-62516033D02*
X93633333Y-62916033D01*
X93633333Y-62916033D02*
X94066666Y-62916033D01*
%TO.C,R2*%
X99333333Y-63154819D02*
X99000000Y-62678628D01*
X98761905Y-63154819D02*
X98761905Y-62154819D01*
X98761905Y-62154819D02*
X99142857Y-62154819D01*
X99142857Y-62154819D02*
X99238095Y-62202438D01*
X99238095Y-62202438D02*
X99285714Y-62250057D01*
X99285714Y-62250057D02*
X99333333Y-62345295D01*
X99333333Y-62345295D02*
X99333333Y-62488152D01*
X99333333Y-62488152D02*
X99285714Y-62583390D01*
X99285714Y-62583390D02*
X99238095Y-62631009D01*
X99238095Y-62631009D02*
X99142857Y-62678628D01*
X99142857Y-62678628D02*
X98761905Y-62678628D01*
X99714286Y-62250057D02*
X99761905Y-62202438D01*
X99761905Y-62202438D02*
X99857143Y-62154819D01*
X99857143Y-62154819D02*
X100095238Y-62154819D01*
X100095238Y-62154819D02*
X100190476Y-62202438D01*
X100190476Y-62202438D02*
X100238095Y-62250057D01*
X100238095Y-62250057D02*
X100285714Y-62345295D01*
X100285714Y-62345295D02*
X100285714Y-62440533D01*
X100285714Y-62440533D02*
X100238095Y-62583390D01*
X100238095Y-62583390D02*
X99666667Y-63154819D01*
X99666667Y-63154819D02*
X100285714Y-63154819D01*
%TO.C,G\u002A\u002A\u002A*%
G36*
X94919618Y-46247443D02*
G01*
X95034868Y-46290546D01*
X95110754Y-46327667D01*
X95176820Y-46362922D01*
X95270867Y-46414495D01*
X95388488Y-46479869D01*
X95525277Y-46556527D01*
X95676827Y-46641952D01*
X95838731Y-46733627D01*
X96006583Y-46829035D01*
X96175976Y-46925660D01*
X96342503Y-47020984D01*
X96501757Y-47112492D01*
X96649333Y-47197665D01*
X96780822Y-47273988D01*
X96891819Y-47338943D01*
X96977916Y-47390013D01*
X97034707Y-47424682D01*
X97055041Y-47438123D01*
X97124496Y-47508653D01*
X97176019Y-47605461D01*
X97211527Y-47733398D01*
X97231917Y-47885218D01*
X97235431Y-47944135D01*
X97239176Y-48040913D01*
X97243056Y-48171081D01*
X97246977Y-48330169D01*
X97250843Y-48513705D01*
X97254559Y-48717220D01*
X97258030Y-48936241D01*
X97261161Y-49166298D01*
X97263545Y-49372833D01*
X97266625Y-49655388D01*
X97270207Y-49968071D01*
X97274160Y-50300535D01*
X97278357Y-50642432D01*
X97282668Y-50983413D01*
X97286964Y-51313132D01*
X97291116Y-51621239D01*
X97294996Y-51897387D01*
X97295005Y-51897999D01*
X97297988Y-52125280D01*
X97300255Y-52341134D01*
X97301802Y-52541631D01*
X97302625Y-52722842D01*
X97302722Y-52880837D01*
X97302088Y-53011687D01*
X97300719Y-53111463D01*
X97298613Y-53176234D01*
X97296197Y-53200985D01*
X97239090Y-53333617D01*
X97154348Y-53440798D01*
X97124817Y-53462384D01*
X97062948Y-53502826D01*
X96972945Y-53559606D01*
X96859014Y-53630210D01*
X96725360Y-53712120D01*
X96576186Y-53802821D01*
X96415699Y-53899798D01*
X96248102Y-54000533D01*
X96077601Y-54102512D01*
X95908400Y-54203217D01*
X95744704Y-54300133D01*
X95590719Y-54390745D01*
X95450648Y-54472535D01*
X95328697Y-54542988D01*
X95229071Y-54599589D01*
X95155974Y-54639820D01*
X95118590Y-54658918D01*
X95058500Y-54683822D01*
X95002714Y-54697442D01*
X94945138Y-54698127D01*
X94879680Y-54684224D01*
X94800244Y-54654078D01*
X94700737Y-54606038D01*
X94575065Y-54538451D01*
X94481515Y-54486105D01*
X94387914Y-54433268D01*
X94263293Y-54362876D01*
X94113478Y-54278221D01*
X93944294Y-54182596D01*
X93761565Y-54079294D01*
X93571116Y-53971606D01*
X93378771Y-53862825D01*
X93265499Y-53798753D01*
X92400082Y-53309201D01*
X91677999Y-53736225D01*
X91496032Y-53843901D01*
X91305594Y-53956704D01*
X91114430Y-54070041D01*
X90930279Y-54179317D01*
X90760885Y-54279940D01*
X90613989Y-54367315D01*
X90517630Y-54424736D01*
X90360541Y-54517367D01*
X90233937Y-54588887D01*
X90132769Y-54641196D01*
X90051990Y-54676195D01*
X89986549Y-54695781D01*
X89931399Y-54701856D01*
X89881491Y-54696319D01*
X89834083Y-54681939D01*
X89804235Y-54667257D01*
X89741574Y-54633771D01*
X89650029Y-54583706D01*
X89533531Y-54519281D01*
X89396010Y-54442720D01*
X89241395Y-54356245D01*
X89073616Y-54262077D01*
X88896604Y-54162439D01*
X88714288Y-54059554D01*
X88530597Y-53955643D01*
X88349463Y-53852928D01*
X88174814Y-53753632D01*
X88010581Y-53659977D01*
X87860694Y-53574184D01*
X87729082Y-53498477D01*
X87619676Y-53435076D01*
X87536405Y-53386206D01*
X87483199Y-53354086D01*
X87466645Y-53343277D01*
X87420363Y-53304326D01*
X87386553Y-53260315D01*
X87363132Y-53203899D01*
X87348017Y-53127732D01*
X87339125Y-53024468D01*
X87334375Y-52886762D01*
X87334150Y-52875916D01*
X87333218Y-52814898D01*
X87332070Y-52714694D01*
X87330729Y-52578452D01*
X87329221Y-52409319D01*
X87327569Y-52210442D01*
X87325797Y-51984969D01*
X87323929Y-51736046D01*
X87321990Y-51466821D01*
X87320003Y-51180441D01*
X87317993Y-50880054D01*
X87315983Y-50568806D01*
X87313998Y-50249845D01*
X87313782Y-50214511D01*
X87302460Y-48352418D01*
X87401101Y-48352418D01*
X87401127Y-48552787D01*
X87401500Y-48779761D01*
X87402215Y-49030718D01*
X87403269Y-49303038D01*
X87404656Y-49594099D01*
X87406373Y-49901279D01*
X87408416Y-50221958D01*
X87410522Y-50518904D01*
X87413508Y-50913142D01*
X87416322Y-51267182D01*
X87419004Y-51583157D01*
X87421597Y-51863200D01*
X87424139Y-52109446D01*
X87426670Y-52324029D01*
X87429232Y-52509082D01*
X87431864Y-52666739D01*
X87434606Y-52799134D01*
X87437499Y-52908402D01*
X87440584Y-52996675D01*
X87443899Y-53066088D01*
X87447487Y-53118774D01*
X87451386Y-53156868D01*
X87455637Y-53182503D01*
X87460280Y-53197814D01*
X87461094Y-53199510D01*
X87482133Y-53225783D01*
X87524002Y-53260619D01*
X87590101Y-53306243D01*
X87683830Y-53364882D01*
X87808589Y-53438762D01*
X87954055Y-53522311D01*
X88282567Y-53709040D01*
X88575787Y-53875496D01*
X88835141Y-54022478D01*
X89062057Y-54150783D01*
X89257958Y-54261208D01*
X89424271Y-54354552D01*
X89562423Y-54431611D01*
X89673838Y-54493185D01*
X89759943Y-54540069D01*
X89822163Y-54573063D01*
X89861926Y-54592963D01*
X89880655Y-54600568D01*
X89881708Y-54600697D01*
X89887764Y-54592417D01*
X89892932Y-54565579D01*
X89897282Y-54517409D01*
X89900886Y-54445130D01*
X89903814Y-54345969D01*
X89906138Y-54217150D01*
X89907928Y-54055900D01*
X89909257Y-53859443D01*
X89910194Y-53625004D01*
X89910579Y-53473875D01*
X89911308Y-53249003D01*
X89912490Y-53028642D01*
X89914066Y-52818006D01*
X89915977Y-52622312D01*
X89918163Y-52446777D01*
X89920565Y-52296615D01*
X89923123Y-52177044D01*
X89925778Y-52093278D01*
X89926454Y-52078469D01*
X89939916Y-51810189D01*
X90426750Y-52085972D01*
X90588185Y-52177418D01*
X90765892Y-52278073D01*
X90947752Y-52381074D01*
X91121645Y-52479555D01*
X91275452Y-52566654D01*
X91326333Y-52595465D01*
X91541217Y-52717141D01*
X91726597Y-52822119D01*
X91889810Y-52914554D01*
X92038192Y-52998604D01*
X92179080Y-53078423D01*
X92319810Y-53158169D01*
X92467719Y-53241996D01*
X92596333Y-53314896D01*
X92729318Y-53390218D01*
X92888143Y-53480080D01*
X93061766Y-53578242D01*
X93239146Y-53678461D01*
X93409242Y-53774497D01*
X93495916Y-53823401D01*
X93660999Y-53916543D01*
X93842889Y-54019213D01*
X94029627Y-54124658D01*
X94209256Y-54226124D01*
X94369818Y-54316859D01*
X94437833Y-54355312D01*
X94580329Y-54435330D01*
X94691674Y-54496262D01*
X94777155Y-54540570D01*
X94842061Y-54570719D01*
X94891679Y-54589171D01*
X94931294Y-54598390D01*
X94964836Y-54600841D01*
X94989550Y-54599212D01*
X95018207Y-54593034D01*
X95054198Y-54580490D01*
X95100912Y-54559764D01*
X95161741Y-54529040D01*
X95240074Y-54486502D01*
X95339300Y-54430333D01*
X95462810Y-54358717D01*
X95613994Y-54269839D01*
X95796242Y-54161881D01*
X95906753Y-54096209D01*
X96085231Y-53990091D01*
X96257571Y-53887661D01*
X96419312Y-53791570D01*
X96565993Y-53704466D01*
X96693150Y-53628997D01*
X96796323Y-53567814D01*
X96871050Y-53523564D01*
X96906667Y-53502540D01*
X96997867Y-53445392D01*
X97068287Y-53394280D01*
X97112847Y-53353402D01*
X97126468Y-53326961D01*
X97124106Y-53322772D01*
X97104664Y-53311161D01*
X97051601Y-53280427D01*
X96968088Y-53232385D01*
X96857297Y-53168849D01*
X96722399Y-53091634D01*
X96566565Y-53002556D01*
X96392966Y-52903430D01*
X96204774Y-52796071D01*
X96005161Y-52682294D01*
X95983000Y-52669668D01*
X95840931Y-52588711D01*
X95664081Y-52487896D01*
X95454431Y-52368356D01*
X95213965Y-52231221D01*
X94944664Y-52077622D01*
X94648511Y-51908691D01*
X94327489Y-51725559D01*
X93983579Y-51529357D01*
X93618764Y-51321217D01*
X93235027Y-51102269D01*
X92834351Y-50873644D01*
X92418716Y-50636475D01*
X91990107Y-50391891D01*
X91550505Y-50141025D01*
X91101893Y-49885007D01*
X90646253Y-49624969D01*
X90185568Y-49362041D01*
X89721820Y-49097356D01*
X89256991Y-48832044D01*
X88793064Y-48567236D01*
X88332022Y-48304063D01*
X87918741Y-48068144D01*
X87421567Y-47784329D01*
X87406308Y-47841383D01*
X87404541Y-47869411D01*
X87403141Y-47937150D01*
X87402103Y-48041978D01*
X87401425Y-48181275D01*
X87401101Y-48352418D01*
X87302460Y-48352418D01*
X87299402Y-47849438D01*
X87356072Y-47733610D01*
X87379188Y-47689172D01*
X87404366Y-47649781D01*
X87415838Y-47636057D01*
X92469719Y-47636057D01*
X92487645Y-47647709D01*
X92538754Y-47677765D01*
X92619219Y-47724080D01*
X92725209Y-47784510D01*
X92852897Y-47856912D01*
X92998453Y-47939142D01*
X93158049Y-48029056D01*
X93327855Y-48124510D01*
X93504044Y-48223361D01*
X93682786Y-48323464D01*
X93860253Y-48422675D01*
X94032615Y-48518852D01*
X94196043Y-48609849D01*
X94346710Y-48693524D01*
X94480786Y-48767732D01*
X94594442Y-48830329D01*
X94683850Y-48879172D01*
X94745180Y-48912116D01*
X94774605Y-48927019D01*
X94776500Y-48927673D01*
X94778152Y-48907237D01*
X94779269Y-48848094D01*
X94779864Y-48753866D01*
X94779944Y-48628175D01*
X94779522Y-48474646D01*
X94778607Y-48296899D01*
X94777209Y-48098557D01*
X94775340Y-47883244D01*
X94773009Y-47654582D01*
X94772796Y-47635241D01*
X94770113Y-47405292D01*
X94767301Y-47188125D01*
X94764427Y-46987401D01*
X94761556Y-46806779D01*
X94758754Y-46649918D01*
X94756086Y-46520478D01*
X94753619Y-46422118D01*
X94751418Y-46358497D01*
X94749548Y-46333276D01*
X94749423Y-46333034D01*
X94726439Y-46335238D01*
X94679148Y-46351430D01*
X94655296Y-46361432D01*
X94620640Y-46379227D01*
X94555127Y-46415296D01*
X94462632Y-46467378D01*
X94347032Y-46533211D01*
X94212201Y-46610538D01*
X94062017Y-46697095D01*
X93900354Y-46790625D01*
X93731089Y-46888865D01*
X93558097Y-46989555D01*
X93385254Y-47090436D01*
X93216437Y-47189247D01*
X93055520Y-47283727D01*
X92906380Y-47371616D01*
X92772893Y-47450654D01*
X92658934Y-47518580D01*
X92568379Y-47573134D01*
X92505105Y-47612056D01*
X92472987Y-47633085D01*
X92469719Y-47636057D01*
X87415838Y-47636057D01*
X87435972Y-47611971D01*
X87478373Y-47572276D01*
X87535936Y-47527231D01*
X87613027Y-47473370D01*
X87714013Y-47407227D01*
X87843260Y-47325338D01*
X87971416Y-47245240D01*
X88100391Y-47164640D01*
X88255297Y-47067469D01*
X88426350Y-46959886D01*
X88603767Y-46848050D01*
X88777765Y-46738122D01*
X88921119Y-46647325D01*
X89061653Y-46558956D01*
X89194480Y-46476886D01*
X89314373Y-46404233D01*
X89416104Y-46344114D01*
X89494446Y-46299648D01*
X89544173Y-46273953D01*
X89553489Y-46270097D01*
X89669609Y-46245369D01*
X89798773Y-46243376D01*
X89919941Y-46263822D01*
X89955363Y-46275748D01*
X89989800Y-46292268D01*
X90057686Y-46327532D01*
X90155518Y-46379633D01*
X90279790Y-46446667D01*
X90426997Y-46526725D01*
X90593634Y-46617902D01*
X90776195Y-46718292D01*
X90971177Y-46825988D01*
X91175073Y-46939084D01*
X91178166Y-46940803D01*
X91379790Y-47052801D01*
X91570621Y-47158650D01*
X91747414Y-47256561D01*
X91906924Y-47344744D01*
X92045908Y-47421411D01*
X92161120Y-47484771D01*
X92249316Y-47533035D01*
X92307253Y-47564413D01*
X92331685Y-47577116D01*
X92332068Y-47577263D01*
X92353759Y-47568158D01*
X92408709Y-47539486D01*
X92493657Y-47493087D01*
X92605340Y-47430804D01*
X92740497Y-47354477D01*
X92895866Y-47265948D01*
X93068186Y-47167058D01*
X93254193Y-47059648D01*
X93434792Y-46954782D01*
X93633587Y-46839285D01*
X93824070Y-46729072D01*
X94002642Y-46626194D01*
X94165703Y-46532705D01*
X94309656Y-46450656D01*
X94430900Y-46382100D01*
X94525838Y-46329090D01*
X94590870Y-46293676D01*
X94619807Y-46279006D01*
X94722419Y-46242697D01*
X94818912Y-46231835D01*
X94919618Y-46247443D01*
G37*
G36*
X94263208Y-35661358D02*
G01*
X94469583Y-35667416D01*
X94476003Y-35767205D01*
X94482424Y-35866994D01*
X94687670Y-35873038D01*
X94892916Y-35879083D01*
X94891586Y-35979625D01*
X94890256Y-36080166D01*
X94992128Y-36080166D01*
X95094000Y-36080166D01*
X95094000Y-36186000D01*
X95094000Y-36291833D01*
X95199833Y-36291833D01*
X95305666Y-36291833D01*
X95305666Y-36397666D01*
X95305666Y-36503500D01*
X95411500Y-36503500D01*
X95517333Y-36503500D01*
X95517333Y-36609333D01*
X95517333Y-36715166D01*
X95623166Y-36715166D01*
X95729000Y-36715166D01*
X95729000Y-36821000D01*
X95729000Y-36926833D01*
X95834833Y-36926833D01*
X95940666Y-36926833D01*
X95940666Y-37032666D01*
X95940666Y-37138500D01*
X96046500Y-37138500D01*
X96152333Y-37138500D01*
X96152333Y-37244333D01*
X96152333Y-37350166D01*
X96258166Y-37350166D01*
X96364000Y-37350166D01*
X96364000Y-37773500D01*
X96364000Y-38196833D01*
X96258166Y-38196833D01*
X96152333Y-38196833D01*
X96152333Y-38511847D01*
X96152333Y-38826862D01*
X96051791Y-38825738D01*
X95951250Y-38824614D01*
X95945397Y-39147583D01*
X95939544Y-39470551D01*
X95839563Y-39463400D01*
X95739583Y-39456250D01*
X95733732Y-39767321D01*
X95727881Y-40078392D01*
X95627898Y-40084821D01*
X95527916Y-40091250D01*
X95521465Y-40191791D01*
X95515013Y-40292333D01*
X95316250Y-40292333D01*
X95117486Y-40292333D01*
X95111034Y-40191791D01*
X95104583Y-40091250D01*
X95004041Y-40084798D01*
X94903500Y-40078347D01*
X94903500Y-39973673D01*
X94903500Y-39869000D01*
X94798826Y-39869000D01*
X94694152Y-39869000D01*
X94687701Y-39768458D01*
X94681250Y-39667916D01*
X94580708Y-39661465D01*
X94480166Y-39655013D01*
X94480166Y-39455090D01*
X94480166Y-39255166D01*
X94575416Y-39255166D01*
X94670666Y-39255166D01*
X94670666Y-39359893D01*
X94670666Y-39464621D01*
X94781791Y-39471018D01*
X94892916Y-39477416D01*
X94899413Y-39579068D01*
X94905910Y-39680721D01*
X95005246Y-39674318D01*
X95104583Y-39667916D01*
X95111034Y-39567375D01*
X95117486Y-39466833D01*
X95222159Y-39466833D01*
X95326833Y-39466833D01*
X95326833Y-38726000D01*
X95326833Y-37985166D01*
X95221000Y-37985166D01*
X95115166Y-37985166D01*
X95115166Y-37879333D01*
X95115166Y-37773500D01*
X95009333Y-37773500D01*
X94903500Y-37773500D01*
X94903500Y-37667666D01*
X94903500Y-37561833D01*
X94797666Y-37561833D01*
X94691833Y-37561833D01*
X94691833Y-37456000D01*
X94691833Y-37350166D01*
X94586000Y-37350166D01*
X94480166Y-37350166D01*
X94480166Y-37244333D01*
X94480166Y-37138500D01*
X94363750Y-37138500D01*
X94247333Y-37138500D01*
X94247333Y-37244333D01*
X94247333Y-37350166D01*
X94152849Y-37350166D01*
X94058366Y-37350166D01*
X94052308Y-37556541D01*
X94046250Y-37762916D01*
X93940052Y-37769143D01*
X93833855Y-37775370D01*
X93841821Y-37933122D01*
X93845622Y-38042980D01*
X93842004Y-38117475D01*
X93828091Y-38163333D01*
X93801008Y-38187281D01*
X93757881Y-38196044D01*
X93729113Y-38196833D01*
X93635032Y-38196833D01*
X93628974Y-38403208D01*
X93622916Y-38609583D01*
X93523127Y-38616003D01*
X93423339Y-38622424D01*
X93417294Y-38827670D01*
X93411250Y-39032916D01*
X93310708Y-39039368D01*
X93210166Y-39045819D01*
X93210166Y-39256326D01*
X93210166Y-39466833D01*
X93316000Y-39466833D01*
X93421833Y-39466833D01*
X93421833Y-39678500D01*
X93421833Y-39890166D01*
X93527666Y-39890166D01*
X93633500Y-39890166D01*
X93633500Y-40091250D01*
X93633500Y-40292333D01*
X93527666Y-40292333D01*
X93421833Y-40292333D01*
X93421833Y-40620416D01*
X93421833Y-40948500D01*
X93527666Y-40948500D01*
X93633500Y-40948500D01*
X93633465Y-41154875D01*
X93633431Y-41361250D01*
X93734007Y-41361250D01*
X93834583Y-41361250D01*
X93845166Y-41571369D01*
X93855750Y-41781488D01*
X93951000Y-41783035D01*
X94046250Y-41784583D01*
X94052101Y-42095654D01*
X94057952Y-42406726D01*
X94155664Y-42413154D01*
X94253376Y-42419583D01*
X94249137Y-42624809D01*
X94244898Y-42830036D01*
X94357241Y-42836476D01*
X94469583Y-42842916D01*
X94475632Y-43048534D01*
X94481681Y-43254151D01*
X94687299Y-43260200D01*
X94892916Y-43266250D01*
X94894487Y-43361500D01*
X94896057Y-43456750D01*
X95100862Y-43462808D01*
X95305666Y-43468866D01*
X95305666Y-43573933D01*
X95305666Y-43679000D01*
X95517333Y-43679000D01*
X95729000Y-43679000D01*
X95729000Y-43784833D01*
X95729000Y-43890666D01*
X95834833Y-43890666D01*
X95940666Y-43890666D01*
X95940666Y-43996500D01*
X95940666Y-44102333D01*
X96046500Y-44102333D01*
X96152333Y-44102333D01*
X96152333Y-44208166D01*
X96152333Y-44314000D01*
X96258166Y-44314000D01*
X96364000Y-44314000D01*
X96364000Y-44419833D01*
X96364000Y-44525666D01*
X96469833Y-44525666D01*
X96575666Y-44525666D01*
X96575666Y-44631500D01*
X96575666Y-44737333D01*
X96681500Y-44737333D01*
X96787333Y-44737333D01*
X96787333Y-44843166D01*
X96787333Y-44949000D01*
X96893166Y-44949000D01*
X96999000Y-44949000D01*
X96999000Y-45054833D01*
X96999000Y-45160666D01*
X97104833Y-45160666D01*
X97210666Y-45160666D01*
X97210666Y-45266500D01*
X97210666Y-45372333D01*
X97104833Y-45372333D01*
X96999000Y-45372333D01*
X96999000Y-45467583D01*
X96999000Y-45562833D01*
X96682606Y-45562833D01*
X96366212Y-45562833D01*
X96359814Y-45673958D01*
X96353416Y-45785083D01*
X96046500Y-45788601D01*
X95739583Y-45792118D01*
X95733141Y-45888900D01*
X95726700Y-45985682D01*
X94888299Y-45991216D01*
X94049898Y-45996750D01*
X94048074Y-46097372D01*
X94046250Y-46197994D01*
X91310458Y-46203205D01*
X88574666Y-46208416D01*
X88574666Y-46097291D01*
X88574666Y-45986166D01*
X88151333Y-45986166D01*
X87728000Y-45986166D01*
X87728000Y-45891683D01*
X87728000Y-45797199D01*
X87521625Y-45791141D01*
X87315250Y-45785083D01*
X87304666Y-45679250D01*
X87294083Y-45573416D01*
X87193541Y-45566965D01*
X87093000Y-45560513D01*
X87093000Y-45466423D01*
X87093000Y-45372333D01*
X87198833Y-45372333D01*
X87304666Y-45372333D01*
X87304666Y-45266500D01*
X87304666Y-45160666D01*
X87410500Y-45160666D01*
X87516333Y-45160666D01*
X87516333Y-45054833D01*
X87516333Y-44949000D01*
X87622166Y-44949000D01*
X87728000Y-44949000D01*
X87728000Y-44843166D01*
X87728000Y-44737333D01*
X87833833Y-44737333D01*
X87939666Y-44737333D01*
X87939666Y-44631500D01*
X87939666Y-44525666D01*
X88045500Y-44525666D01*
X88151333Y-44525666D01*
X88151333Y-44419833D01*
X88151333Y-44314000D01*
X88257166Y-44314000D01*
X88363000Y-44314000D01*
X88363000Y-44208166D01*
X88363000Y-44102333D01*
X88468833Y-44102333D01*
X88574666Y-44102333D01*
X88574666Y-43996500D01*
X88574666Y-43890666D01*
X88680500Y-43890666D01*
X88786333Y-43890666D01*
X88786333Y-43784833D01*
X88786333Y-43679000D01*
X88998000Y-43679000D01*
X89209666Y-43679000D01*
X89209666Y-43573166D01*
X89209666Y-43467333D01*
X89421333Y-43467333D01*
X89633000Y-43467333D01*
X89633000Y-43150993D01*
X89633000Y-42834652D01*
X89733541Y-42828201D01*
X89834083Y-42821750D01*
X89839619Y-41992108D01*
X89845155Y-41162466D01*
X89944544Y-41156024D01*
X90043932Y-41149583D01*
X90037862Y-40944373D01*
X90031791Y-40739162D01*
X90144604Y-40732706D01*
X90257416Y-40726250D01*
X90257416Y-40519845D01*
X90257416Y-40313441D01*
X90357958Y-40313470D01*
X90458500Y-40313500D01*
X90458500Y-40102939D01*
X90458500Y-39892378D01*
X90569625Y-39885981D01*
X90680750Y-39879583D01*
X90680750Y-39673179D01*
X90680750Y-39466774D01*
X90781291Y-39466804D01*
X90881833Y-39466833D01*
X90881833Y-39150439D01*
X90881833Y-38834045D01*
X90989921Y-38827647D01*
X91098008Y-38821250D01*
X91094781Y-38509041D01*
X91091554Y-38196833D01*
X91198360Y-38196833D01*
X91305166Y-38196833D01*
X91305166Y-37879333D01*
X91305166Y-37561833D01*
X91410233Y-37561833D01*
X91515300Y-37561833D01*
X91521358Y-37355458D01*
X91527416Y-37149083D01*
X91627958Y-37142631D01*
X91728500Y-37136180D01*
X91728500Y-37031506D01*
X91728500Y-36926833D01*
X91834333Y-36926833D01*
X91940166Y-36926833D01*
X91940166Y-36821000D01*
X91940166Y-36715166D01*
X92151833Y-36715166D01*
X92363500Y-36715166D01*
X92363500Y-36609333D01*
X92363500Y-36503500D01*
X92575166Y-36503500D01*
X92786833Y-36503500D01*
X92786833Y-36397666D01*
X92786833Y-36291833D01*
X92998500Y-36291833D01*
X93210166Y-36291833D01*
X93210166Y-36186000D01*
X93210166Y-36080166D01*
X93421833Y-36080166D01*
X93633500Y-36080166D01*
X93633500Y-35974333D01*
X93633500Y-35868500D01*
X93845166Y-35868500D01*
X94056833Y-35868500D01*
X94056833Y-35761900D01*
X94056833Y-35655300D01*
X94263208Y-35661358D01*
G37*
G36*
X97226541Y-43026965D02*
G01*
X97327083Y-43033416D01*
X97333534Y-43133958D01*
X97339986Y-43234500D01*
X97232993Y-43234500D01*
X97126000Y-43234500D01*
X97126000Y-43127506D01*
X97126000Y-43020513D01*
X97226541Y-43026965D01*
G37*
G36*
X87299375Y-42095631D02*
G01*
X87399916Y-42102083D01*
X87406322Y-42201510D01*
X87412728Y-42300938D01*
X87512155Y-42307344D01*
X87611583Y-42313750D01*
X87618034Y-42414291D01*
X87624486Y-42514833D01*
X87517493Y-42514833D01*
X87410500Y-42514833D01*
X87410500Y-42620666D01*
X87410500Y-42726500D01*
X87304666Y-42726500D01*
X87198833Y-42726500D01*
X87198833Y-42620666D01*
X87198833Y-42514833D01*
X87093000Y-42514833D01*
X86987166Y-42514833D01*
X86987166Y-42409000D01*
X86987166Y-42303166D01*
X87093000Y-42303166D01*
X87198833Y-42303166D01*
X87198833Y-42196173D01*
X87198833Y-42089180D01*
X87299375Y-42095631D01*
G37*
G36*
X95644333Y-41467083D02*
G01*
X95654916Y-41572916D01*
X95750166Y-41572916D01*
X95845416Y-41572916D01*
X95851868Y-41673458D01*
X95858319Y-41774000D01*
X95751326Y-41774000D01*
X95644333Y-41774000D01*
X95644333Y-41879833D01*
X95644333Y-41985666D01*
X95538500Y-41985666D01*
X95432666Y-41985666D01*
X95432666Y-41879833D01*
X95432666Y-41774000D01*
X95325673Y-41774000D01*
X95218680Y-41774000D01*
X95225131Y-41673458D01*
X95231583Y-41572916D01*
X95326833Y-41572916D01*
X95422083Y-41572916D01*
X95432666Y-41467083D01*
X95443250Y-41361250D01*
X95538500Y-41361250D01*
X95633750Y-41361250D01*
X95644333Y-41467083D01*
G37*
G36*
X98163166Y-40726250D02*
G01*
X98163166Y-40821500D01*
X98057333Y-40821500D01*
X97951500Y-40821500D01*
X97951500Y-40726250D01*
X97951500Y-40631000D01*
X98057333Y-40631000D01*
X98163166Y-40631000D01*
X98163166Y-40726250D01*
G37*
G36*
X88765166Y-39985416D02*
G01*
X88765166Y-40080666D01*
X88669916Y-40080666D01*
X88574666Y-40080666D01*
X88574666Y-39985416D01*
X88574666Y-39890166D01*
X88669916Y-39890166D01*
X88765166Y-39890166D01*
X88765166Y-39985416D01*
G37*
G36*
X85293833Y-39667916D02*
G01*
X85293833Y-39763166D01*
X85188000Y-39763166D01*
X85082166Y-39763166D01*
X85082166Y-39667916D01*
X85082166Y-39572666D01*
X85188000Y-39572666D01*
X85293833Y-39572666D01*
X85293833Y-39667916D01*
G37*
G36*
X94369041Y-38835965D02*
G01*
X94469583Y-38842416D01*
X94475669Y-39038208D01*
X94481755Y-39234000D01*
X94375127Y-39234000D01*
X94268500Y-39234000D01*
X94268500Y-39031756D01*
X94268500Y-38829513D01*
X94369041Y-38835965D01*
G37*
G36*
X98057333Y-37561833D02*
G01*
X98057333Y-37773500D01*
X98162060Y-37773500D01*
X98266787Y-37773500D01*
X98273185Y-37882346D01*
X98279583Y-37991192D01*
X98485958Y-37986939D01*
X98692333Y-37982685D01*
X98692333Y-38089759D01*
X98692333Y-38196833D01*
X98480666Y-38196833D01*
X98269000Y-38196833D01*
X98269000Y-38302666D01*
X98269000Y-38408500D01*
X98163166Y-38408500D01*
X98057333Y-38408500D01*
X98057333Y-38620166D01*
X98057333Y-38831833D01*
X97962083Y-38831833D01*
X97866833Y-38831833D01*
X97866833Y-38620166D01*
X97866833Y-38408500D01*
X97761000Y-38408500D01*
X97655166Y-38408500D01*
X97655166Y-38302666D01*
X97655166Y-38196833D01*
X97443500Y-38196833D01*
X97231833Y-38196833D01*
X97231833Y-38089759D01*
X97231833Y-37982685D01*
X97438208Y-37986939D01*
X97644583Y-37991192D01*
X97650981Y-37882346D01*
X97657378Y-37773500D01*
X97762106Y-37773500D01*
X97866833Y-37773500D01*
X97866833Y-37561833D01*
X97866833Y-37350166D01*
X97962083Y-37350166D01*
X98057333Y-37350166D01*
X98057333Y-37561833D01*
G37*
G36*
X87193541Y-36401798D02*
G01*
X87294083Y-36408250D01*
X87299934Y-36719321D01*
X87305785Y-37030392D01*
X87405767Y-37036821D01*
X87505750Y-37043250D01*
X87512155Y-37142677D01*
X87518561Y-37242104D01*
X87617989Y-37248510D01*
X87717416Y-37254916D01*
X87723837Y-37354705D01*
X87730257Y-37454494D01*
X87935503Y-37460538D01*
X88140750Y-37466583D01*
X88140750Y-37561833D01*
X88140750Y-37657083D01*
X87935503Y-37663127D01*
X87730257Y-37669172D01*
X87723837Y-37768961D01*
X87717416Y-37868750D01*
X87617989Y-37875155D01*
X87518561Y-37881561D01*
X87512155Y-37980989D01*
X87505750Y-38080416D01*
X87405767Y-38086845D01*
X87305785Y-38093273D01*
X87299934Y-38404345D01*
X87294083Y-38715416D01*
X87193541Y-38721868D01*
X87093000Y-38728319D01*
X87093000Y-38409659D01*
X87093000Y-38091000D01*
X86987166Y-38091000D01*
X86881333Y-38091000D01*
X86881333Y-37985166D01*
X86881333Y-37879333D01*
X86775500Y-37879333D01*
X86669666Y-37879333D01*
X86669666Y-37773500D01*
X86669666Y-37667666D01*
X86458000Y-37667666D01*
X86246333Y-37667666D01*
X86246333Y-37561833D01*
X86246333Y-37456000D01*
X86458000Y-37456000D01*
X86669666Y-37456000D01*
X86669666Y-37350166D01*
X86669666Y-37244333D01*
X86775500Y-37244333D01*
X86881333Y-37244333D01*
X86881333Y-37138500D01*
X86881333Y-37032666D01*
X86987166Y-37032666D01*
X87093000Y-37032666D01*
X87093000Y-36714006D01*
X87093000Y-36395347D01*
X87193541Y-36401798D01*
G37*
G36*
X90670166Y-36503500D02*
G01*
X90670166Y-36609333D01*
X90564333Y-36609333D01*
X90458500Y-36609333D01*
X90458500Y-36715166D01*
X90458500Y-36821000D01*
X90362585Y-36821000D01*
X90290633Y-36814097D01*
X90256446Y-36793834D01*
X90255260Y-36791264D01*
X90249238Y-36750378D01*
X90250450Y-36692685D01*
X90250633Y-36690723D01*
X90257391Y-36647809D01*
X90274854Y-36626038D01*
X90314999Y-36616787D01*
X90357958Y-36613465D01*
X90458500Y-36607013D01*
X90458500Y-36502340D01*
X90458500Y-36397666D01*
X90564333Y-36397666D01*
X90670166Y-36397666D01*
X90670166Y-36503500D01*
G37*
G36*
X90458500Y-36290673D02*
G01*
X90458500Y-36397666D01*
X90352666Y-36397666D01*
X90246833Y-36397666D01*
X90246833Y-36504659D01*
X90246833Y-36611652D01*
X90146291Y-36605201D01*
X90045750Y-36598750D01*
X90045750Y-36503500D01*
X90045750Y-36408250D01*
X90145177Y-36401844D01*
X90244604Y-36395438D01*
X90251010Y-36296010D01*
X90257416Y-36196583D01*
X90357958Y-36190131D01*
X90458500Y-36183680D01*
X90458500Y-36290673D01*
G37*
G36*
X96681500Y-35392250D02*
G01*
X96681500Y-35487500D01*
X96586250Y-35487500D01*
X96491000Y-35487500D01*
X96491000Y-35392250D01*
X96491000Y-35297000D01*
X96586250Y-35297000D01*
X96681500Y-35297000D01*
X96681500Y-35392250D01*
G37*
G36*
X90252125Y-33243804D02*
G01*
X90352666Y-33243833D01*
X90352666Y-33455500D01*
X90352666Y-33667166D01*
X90457340Y-33667166D01*
X90562013Y-33667166D01*
X90568465Y-33767708D01*
X90574916Y-33868250D01*
X90675458Y-33874701D01*
X90776000Y-33881152D01*
X90776000Y-33975243D01*
X90776000Y-34069333D01*
X90670166Y-34069333D01*
X90564333Y-34069333D01*
X90564333Y-34175166D01*
X90564333Y-34281000D01*
X90458500Y-34281000D01*
X90352666Y-34281000D01*
X90352666Y-34492666D01*
X90352666Y-34704333D01*
X90252125Y-34704362D01*
X90151583Y-34704391D01*
X90151583Y-34497987D01*
X90151583Y-34291583D01*
X90047254Y-34281000D01*
X89942924Y-34270416D01*
X89941420Y-34175166D01*
X89939916Y-34079916D01*
X89841420Y-34073548D01*
X89742924Y-34067180D01*
X89735508Y-33973932D01*
X89728092Y-33880684D01*
X89834004Y-33874467D01*
X89939916Y-33868250D01*
X89939916Y-33773000D01*
X89939916Y-33677750D01*
X90045750Y-33667166D01*
X90151583Y-33656583D01*
X90151583Y-33450179D01*
X90151583Y-33243774D01*
X90252125Y-33243804D01*
G37*
G36*
X87939666Y-34503250D02*
G01*
X87939666Y-34598500D01*
X87833833Y-34598500D01*
X87728000Y-34598500D01*
X87728000Y-34503250D01*
X87728000Y-34408000D01*
X87833833Y-34408000D01*
X87939666Y-34408000D01*
X87939666Y-34503250D01*
G37*
G36*
X94900409Y-33238541D02*
G01*
X94894122Y-33339083D01*
X94999352Y-33349666D01*
X95104583Y-33360250D01*
X95104583Y-33450235D01*
X95104583Y-33540221D01*
X95004041Y-33540194D01*
X94903500Y-33540166D01*
X94903500Y-33646000D01*
X94903500Y-33751833D01*
X94798826Y-33751833D01*
X94694152Y-33751833D01*
X94687701Y-33651291D01*
X94681250Y-33550750D01*
X94580708Y-33544298D01*
X94480166Y-33537847D01*
X94480166Y-33443756D01*
X94480166Y-33349666D01*
X94586000Y-33349666D01*
X94691833Y-33349666D01*
X94691833Y-33243833D01*
X94691833Y-33138000D01*
X94799265Y-33138000D01*
X94906697Y-33138000D01*
X94900409Y-33238541D01*
G37*
G36*
X92575166Y-33444916D02*
G01*
X92575166Y-33540166D01*
X92469333Y-33540166D01*
X92363500Y-33540166D01*
X92363500Y-33444916D01*
X92363500Y-33349666D01*
X92469333Y-33349666D01*
X92575166Y-33349666D01*
X92575166Y-33444916D01*
G37*
D14*
%TO.C,R1*%
X94265000Y-57285436D02*
X94265000Y-57739564D01*
X95735000Y-57285436D02*
X95735000Y-57739564D01*
%TO.C,J2*%
X105030000Y-67090000D02*
X105030000Y-41630000D01*
X105030000Y-67090000D02*
X102370000Y-67090000D01*
X105030000Y-41630000D02*
X102370000Y-41630000D01*
X103700000Y-69690000D02*
X102370000Y-69690000D01*
X102370000Y-69690000D02*
X102370000Y-68360000D01*
X102370000Y-67090000D02*
X102370000Y-41630000D01*
%TO.C,J4*%
X98870000Y-36370000D02*
X98870000Y-54210000D01*
X98870000Y-36370000D02*
X101530000Y-36370000D01*
X98870000Y-54210000D02*
X101530000Y-54210000D01*
X100200000Y-33770000D02*
X101530000Y-33770000D01*
X101530000Y-33770000D02*
X101530000Y-35100000D01*
X101530000Y-36370000D02*
X101530000Y-54210000D01*
%TO.C,C1*%
X89811252Y-62135000D02*
X89288748Y-62135000D01*
X89811252Y-60665000D02*
X89288748Y-60665000D01*
%TO.C,C2*%
X89811252Y-63065000D02*
X89288748Y-63065000D01*
X89811252Y-64535000D02*
X89288748Y-64535000D01*
D10*
%TO.C,S1*%
X96600000Y-31000000D02*
X96600000Y-31000000D01*
X96600000Y-30800000D02*
X96600000Y-30800000D01*
D15*
X95350000Y-31650000D02*
X91800000Y-31650000D01*
X95350000Y-28750000D02*
X91850000Y-28750000D01*
D10*
X96600000Y-30800000D02*
G75*
G03*
X96600000Y-31000000I0J-100000D01*
G01*
X96600000Y-31000000D02*
G75*
G03*
X96600000Y-30800000I0J100000D01*
G01*
D14*
%TO.C,J1*%
X82070000Y-31530000D02*
X82070000Y-69690000D01*
X82070000Y-31530000D02*
X84730000Y-31530000D01*
X82070000Y-69690000D02*
X84730000Y-69690000D01*
X83400000Y-28930000D02*
X84730000Y-28930000D01*
X84730000Y-28930000D02*
X84730000Y-30260000D01*
X84730000Y-31530000D02*
X84730000Y-69690000D01*
%TO.C,J3*%
X93530000Y-67055000D02*
X90930000Y-67055000D01*
X93530000Y-67055000D02*
X93530000Y-69715000D01*
X90930000Y-67055000D02*
X90930000Y-69715000D01*
X96130000Y-68385000D02*
X96130000Y-69715000D01*
X96130000Y-69715000D02*
X94800000Y-69715000D01*
X93530000Y-69715000D02*
X90930000Y-69715000D01*
D16*
%TO.C,U2*%
X91788000Y-60975000D02*
G75*
G03*
X91788000Y-60975000I-162500J0D01*
G01*
D14*
%TO.C,R2*%
X98435000Y-62939564D02*
X98435000Y-62485436D01*
X96965000Y-62939564D02*
X96965000Y-62485436D01*
%TO.C,JP1*%
X86700000Y-59650000D02*
X86100000Y-59650000D01*
X85400000Y-58950000D02*
X85400000Y-57550000D01*
X87400000Y-57550000D02*
X87400000Y-58950000D01*
X86100000Y-56850000D02*
X86700000Y-56850000D01*
X85400000Y-58950000D02*
G75*
G03*
X86100000Y-59650000I699999J-1D01*
G01*
X86700000Y-59650000D02*
G75*
G03*
X87400000Y-58950000I1J699999D01*
G01*
X86100000Y-56850000D02*
G75*
G03*
X85400000Y-57550000I0J-700000D01*
G01*
X87400000Y-57550000D02*
G75*
G03*
X86700000Y-56850000I-700000J0D01*
G01*
%TD*%
M02*
