%TF.GenerationSoftware,KiCad,Pcbnew,7.0.5-0*%
%TF.CreationDate,2023-07-31T21:18:35+02:00*%
%TF.ProjectId,wireless-wizard-wand,77697265-6c65-4737-932d-77697a617264,rev?*%
%TF.SameCoordinates,Original*%
%TF.FileFunction,Copper,L2,Bot*%
%TF.FilePolarity,Positive*%
%FSLAX46Y46*%
G04 Gerber Fmt 4.6, Leading zero omitted, Abs format (unit mm)*
G04 Created by KiCad (PCBNEW 7.0.5-0) date 2023-07-31 21:18:35*
%MOMM*%
%LPD*%
G01*
G04 APERTURE LIST*
G04 Aperture macros list*
%AMFreePoly0*
4,1,25,-0.850000,0.425000,-0.829199,0.556332,-0.768832,0.674809,-0.674809,0.768832,-0.556332,0.829199,-0.425000,0.850000,0.425000,0.850000,0.556332,0.829199,0.674809,0.768832,0.768832,0.674809,0.829199,0.556332,0.850000,0.425000,0.850000,-0.425000,0.829199,-0.556332,0.768832,-0.674809,0.674809,-0.768832,0.556332,-0.829199,0.425000,-0.850000,-0.425000,-0.850000,-0.556332,-0.829199,
-0.674809,-0.768832,-0.768832,-0.674809,-0.829199,-0.556332,-0.850000,-0.425000,-0.850000,0.425000,-0.850000,0.425000,$1*%
G04 Aperture macros list end*
%TA.AperFunction,TestPad*%
%ADD10C,1.500000*%
%TD*%
%TA.AperFunction,ComponentPad*%
%ADD11C,1.700000*%
%TD*%
%TA.AperFunction,ComponentPad*%
%ADD12O,1.700000X1.700000*%
%TD*%
%TA.AperFunction,ComponentPad*%
%ADD13R,1.700000X1.700000*%
%TD*%
%TA.AperFunction,ComponentPad*%
%ADD14FreePoly0,270.000000*%
%TD*%
%TA.AperFunction,ViaPad*%
%ADD15C,0.800000*%
%TD*%
%TA.AperFunction,Conductor*%
%ADD16C,0.250000*%
%TD*%
%TA.AperFunction,Conductor*%
%ADD17C,0.350000*%
%TD*%
G04 APERTURE END LIST*
D10*
%TO.P,TP2,1,1*%
%TO.N,/IRQ*%
X92600000Y-58700000D03*
%TD*%
%TO.P,TP1,1,1*%
%TO.N,/PWM*%
X88000000Y-68600000D03*
%TD*%
D11*
%TO.P,J2,1,Pin_1*%
%TO.N,SDA*%
X103700000Y-68360000D03*
D12*
%TO.P,J2,2,Pin_2*%
%TO.N,SCL*%
X103700000Y-65820000D03*
%TO.P,J2,3,Pin_3*%
%TO.N,P1.08*%
X103700000Y-63280000D03*
%TO.P,J2,4,Pin_4*%
%TO.N,unconnected-(J2-Pin_4-Pad4)*%
X103700000Y-60740000D03*
%TO.P,J2,5,Pin_5*%
%TO.N,unconnected-(J2-Pin_5-Pad5)*%
X103700000Y-58200000D03*
%TO.P,J2,6,Pin_6*%
%TO.N,unconnected-(J2-Pin_6-Pad6)*%
X103700000Y-55660000D03*
%TO.P,J2,7,Pin_7*%
%TO.N,unconnected-(J2-Pin_7-Pad7)*%
X103700000Y-53120000D03*
%TO.P,J2,8,Pin_8*%
%TO.N,unconnected-(J2-Pin_8-Pad8)*%
X103700000Y-50580000D03*
%TO.P,J2,9,Pin_9*%
%TO.N,unconnected-(J2-Pin_9-Pad9)*%
X103700000Y-48040000D03*
%TO.P,J2,10,Pin_10*%
%TO.N,unconnected-(J2-Pin_10-Pad10)*%
X103700000Y-45500000D03*
%TO.P,J2,11,Pin_11*%
%TO.N,unconnected-(J2-Pin_11-Pad11)*%
X103700000Y-42960000D03*
%TD*%
D11*
%TO.P,J4,1,Pin_1*%
%TO.N,+3.3V*%
X100200000Y-35100000D03*
D13*
%TO.P,J4,2,Pin_2*%
%TO.N,GND1*%
X100200000Y-37640000D03*
D12*
%TO.P,J4,3,Pin_3*%
%TO.N,SCL*%
X100200000Y-40180000D03*
%TO.P,J4,4,Pin_4*%
%TO.N,SDA*%
X100200000Y-42720000D03*
%TO.P,J4,5,Pin_5*%
%TO.N,/XDA*%
X100200000Y-45260000D03*
%TO.P,J4,6,Pin_6*%
%TO.N,/XCL*%
X100200000Y-47800000D03*
%TO.P,J4,7,Pin_7*%
%TO.N,+3.3V*%
X100200000Y-50340000D03*
%TO.P,J4,8,Pin_8*%
%TO.N,P1.08*%
X100200000Y-52880000D03*
%TD*%
D11*
%TO.P,J1,1,Pin_1*%
%TO.N,RST*%
X83400000Y-30260000D03*
D12*
%TO.P,J1,2,Pin_2*%
%TO.N,+3.3V*%
X83400000Y-32800000D03*
%TO.P,J1,3,Pin_3*%
%TO.N,unconnected-(J1-Pin_3-Pad3)*%
X83400000Y-35340000D03*
D13*
%TO.P,J1,4,Pin_4*%
%TO.N,GND1*%
X83400000Y-37880000D03*
D12*
%TO.P,J1,5,Pin_5*%
%TO.N,unconnected-(J1-Pin_5-Pad5)*%
X83400000Y-40420000D03*
%TO.P,J1,6,Pin_6*%
%TO.N,unconnected-(J1-Pin_6-Pad6)*%
X83400000Y-42960000D03*
%TO.P,J1,7,Pin_7*%
%TO.N,unconnected-(J1-Pin_7-Pad7)*%
X83400000Y-45500000D03*
%TO.P,J1,8,Pin_8*%
%TO.N,unconnected-(J1-Pin_8-Pad8)*%
X83400000Y-48040000D03*
%TO.P,J1,9,Pin_9*%
%TO.N,unconnected-(J1-Pin_9-Pad9)*%
X83400000Y-50580000D03*
%TO.P,J1,10,Pin_10*%
%TO.N,unconnected-(J1-Pin_10-Pad10)*%
X83400000Y-53120000D03*
%TO.P,J1,11,Pin_11*%
%TO.N,unconnected-(J1-Pin_11-Pad11)*%
X83400000Y-55660000D03*
%TO.P,J1,12,Pin_12*%
%TO.N,unconnected-(J1-Pin_12-Pad12)*%
X83400000Y-58200000D03*
%TO.P,J1,13,Pin_13*%
%TO.N,unconnected-(J1-Pin_13-Pad13)*%
X83400000Y-60740000D03*
%TO.P,J1,14,Pin_14*%
%TO.N,unconnected-(J1-Pin_14-Pad14)*%
X83400000Y-63280000D03*
%TO.P,J1,15,Pin_15*%
%TO.N,unconnected-(J1-Pin_15-Pad15)*%
X83400000Y-65820000D03*
%TO.P,J1,16,Pin_16*%
%TO.N,unconnected-(J1-Pin_16-Pad16)*%
X83400000Y-68360000D03*
%TD*%
D14*
%TO.P,J3,1,Pin_1*%
%TO.N,/M-*%
X94800000Y-68385000D03*
%TO.P,J3,2,Pin_2*%
%TO.N,/M+*%
X92260000Y-68385000D03*
%TD*%
D15*
%TO.N,+3.3V*%
X98001500Y-50700000D03*
X95698500Y-51800000D03*
%TO.N,/PWM*%
X91800000Y-64100000D03*
%TO.N,GND1*%
X94800000Y-65000000D03*
%TO.N,/IRQ*%
X91334803Y-59784455D03*
%TO.N,GND1*%
X87500000Y-61600000D03*
X87600000Y-63600000D03*
%TD*%
D16*
%TO.N,+3.3V*%
X96900000Y-50700000D02*
X95800000Y-51800000D01*
X98001500Y-50700000D02*
X96900000Y-50700000D01*
X95800000Y-51800000D02*
X95698500Y-51800000D01*
D17*
%TO.N,/PWM*%
X91800000Y-64800000D02*
X91200000Y-65400000D01*
X91800000Y-64100000D02*
X91800000Y-64800000D01*
%TO.N,/IRQ*%
X91915545Y-59784455D02*
X92600000Y-59100000D01*
X91334803Y-59784455D02*
X91915545Y-59784455D01*
%TO.N,/PWM*%
X91200000Y-65400000D02*
X87900000Y-68700000D01*
%TD*%
%TA.AperFunction,Conductor*%
%TO.N,GND1*%
G36*
X105342539Y-28620185D02*
G01*
X105388294Y-28672989D01*
X105399500Y-28724500D01*
X105399500Y-69975500D01*
X105379815Y-70042539D01*
X105327011Y-70088294D01*
X105275500Y-70099500D01*
X88048586Y-70099500D01*
X87998949Y-70084925D01*
X87975846Y-70097069D01*
X87951414Y-70099500D01*
X81824500Y-70099500D01*
X81757461Y-70079815D01*
X81711706Y-70027011D01*
X81700500Y-69975500D01*
X81700500Y-68360000D01*
X82044341Y-68360000D01*
X82064936Y-68595403D01*
X82064938Y-68595413D01*
X82126094Y-68823655D01*
X82126096Y-68823659D01*
X82126097Y-68823663D01*
X82149935Y-68874783D01*
X82225965Y-69037830D01*
X82225967Y-69037834D01*
X82299952Y-69143495D01*
X82361505Y-69231401D01*
X82528599Y-69398495D01*
X82625384Y-69466264D01*
X82722165Y-69534032D01*
X82722167Y-69534033D01*
X82722170Y-69534035D01*
X82936337Y-69633903D01*
X83164592Y-69695063D01*
X83352918Y-69711539D01*
X83399999Y-69715659D01*
X83400000Y-69715659D01*
X83400001Y-69715659D01*
X83439234Y-69712226D01*
X83635408Y-69695063D01*
X83863663Y-69633903D01*
X84077830Y-69534035D01*
X84271401Y-69398495D01*
X84438495Y-69231401D01*
X84574035Y-69037830D01*
X84673903Y-68823663D01*
X84733832Y-68600002D01*
X86744723Y-68600002D01*
X86763793Y-68817975D01*
X86763793Y-68817979D01*
X86820422Y-69029322D01*
X86820424Y-69029326D01*
X86820425Y-69029330D01*
X86866661Y-69128484D01*
X86912897Y-69227638D01*
X86912898Y-69227639D01*
X87038402Y-69406877D01*
X87193123Y-69561598D01*
X87372361Y-69687102D01*
X87570670Y-69779575D01*
X87782023Y-69836207D01*
X87937554Y-69849813D01*
X87962221Y-69851972D01*
X87998594Y-69866199D01*
X88013651Y-69856523D01*
X88037779Y-69851972D01*
X88057539Y-69850243D01*
X88217977Y-69836207D01*
X88429330Y-69779575D01*
X88627639Y-69687102D01*
X88806877Y-69561598D01*
X88961598Y-69406877D01*
X89087102Y-69227639D01*
X89179575Y-69029330D01*
X89220986Y-68874783D01*
X90909500Y-68874783D01*
X90915858Y-68955574D01*
X90915858Y-68955577D01*
X90915859Y-68955578D01*
X90966212Y-69143496D01*
X91054535Y-69316840D01*
X91176968Y-69468032D01*
X91328160Y-69590465D01*
X91501504Y-69678788D01*
X91689422Y-69729141D01*
X91770222Y-69735500D01*
X91770230Y-69735500D01*
X92749770Y-69735500D01*
X92749778Y-69735500D01*
X92830578Y-69729141D01*
X93018496Y-69678788D01*
X93191840Y-69590465D01*
X93343032Y-69468032D01*
X93433635Y-69356145D01*
X93491121Y-69316436D01*
X93560952Y-69314108D01*
X93620956Y-69349903D01*
X93626353Y-69356133D01*
X93716968Y-69468032D01*
X93868160Y-69590465D01*
X94041504Y-69678788D01*
X94229422Y-69729141D01*
X94310222Y-69735500D01*
X94310230Y-69735500D01*
X95289770Y-69735500D01*
X95289778Y-69735500D01*
X95370578Y-69729141D01*
X95558496Y-69678788D01*
X95731840Y-69590465D01*
X95883032Y-69468032D01*
X96005465Y-69316840D01*
X96093788Y-69143496D01*
X96144141Y-68955578D01*
X96150500Y-68874778D01*
X96150500Y-68360000D01*
X102344341Y-68360000D01*
X102364936Y-68595403D01*
X102364938Y-68595413D01*
X102426094Y-68823655D01*
X102426096Y-68823659D01*
X102426097Y-68823663D01*
X102449935Y-68874783D01*
X102525965Y-69037830D01*
X102525967Y-69037834D01*
X102599952Y-69143495D01*
X102661505Y-69231401D01*
X102828599Y-69398495D01*
X102925384Y-69466265D01*
X103022165Y-69534032D01*
X103022167Y-69534033D01*
X103022170Y-69534035D01*
X103236337Y-69633903D01*
X103464592Y-69695063D01*
X103652918Y-69711539D01*
X103699999Y-69715659D01*
X103700000Y-69715659D01*
X103700001Y-69715659D01*
X103739234Y-69712226D01*
X103935408Y-69695063D01*
X104163663Y-69633903D01*
X104377830Y-69534035D01*
X104571401Y-69398495D01*
X104738495Y-69231401D01*
X104874035Y-69037830D01*
X104973903Y-68823663D01*
X105035063Y-68595408D01*
X105055659Y-68360000D01*
X105035063Y-68124592D01*
X104973903Y-67896337D01*
X104874035Y-67682171D01*
X104802367Y-67579817D01*
X104738494Y-67488597D01*
X104571402Y-67321506D01*
X104571396Y-67321501D01*
X104385842Y-67191575D01*
X104342217Y-67136998D01*
X104335023Y-67067500D01*
X104366546Y-67005145D01*
X104385842Y-66988425D01*
X104408026Y-66972891D01*
X104571401Y-66858495D01*
X104738495Y-66691401D01*
X104874035Y-66497830D01*
X104973903Y-66283663D01*
X105035063Y-66055408D01*
X105055659Y-65820000D01*
X105035063Y-65584592D01*
X104973903Y-65356337D01*
X104874035Y-65142171D01*
X104855869Y-65116226D01*
X104738494Y-64948597D01*
X104571402Y-64781506D01*
X104571396Y-64781501D01*
X104385842Y-64651575D01*
X104342217Y-64596998D01*
X104335023Y-64527500D01*
X104366546Y-64465145D01*
X104385842Y-64448425D01*
X104408026Y-64432891D01*
X104571401Y-64318495D01*
X104738495Y-64151401D01*
X104874035Y-63957830D01*
X104973903Y-63743663D01*
X105035063Y-63515408D01*
X105055659Y-63280000D01*
X105035063Y-63044592D01*
X104973903Y-62816337D01*
X104874035Y-62602171D01*
X104738495Y-62408599D01*
X104738494Y-62408597D01*
X104571402Y-62241506D01*
X104571396Y-62241501D01*
X104385842Y-62111575D01*
X104342217Y-62056998D01*
X104335023Y-61987500D01*
X104366546Y-61925145D01*
X104385842Y-61908425D01*
X104408026Y-61892891D01*
X104571401Y-61778495D01*
X104738495Y-61611401D01*
X104874035Y-61417830D01*
X104973903Y-61203663D01*
X105035063Y-60975408D01*
X105055659Y-60740000D01*
X105035063Y-60504592D01*
X104973903Y-60276337D01*
X104874035Y-60062171D01*
X104792473Y-59945687D01*
X104738494Y-59868597D01*
X104571402Y-59701506D01*
X104571396Y-59701501D01*
X104385842Y-59571575D01*
X104342217Y-59516998D01*
X104335023Y-59447500D01*
X104366546Y-59385145D01*
X104385842Y-59368425D01*
X104444092Y-59327638D01*
X104571401Y-59238495D01*
X104738495Y-59071401D01*
X104874035Y-58877830D01*
X104973903Y-58663663D01*
X105035063Y-58435408D01*
X105055659Y-58200000D01*
X105035063Y-57964592D01*
X104973903Y-57736337D01*
X104874035Y-57522171D01*
X104872814Y-57520426D01*
X104738494Y-57328597D01*
X104571402Y-57161506D01*
X104571396Y-57161501D01*
X104385842Y-57031575D01*
X104342217Y-56976998D01*
X104335023Y-56907500D01*
X104366546Y-56845145D01*
X104385842Y-56828425D01*
X104408026Y-56812891D01*
X104571401Y-56698495D01*
X104738495Y-56531401D01*
X104874035Y-56337830D01*
X104973903Y-56123663D01*
X105035063Y-55895408D01*
X105055659Y-55660000D01*
X105035063Y-55424592D01*
X104973903Y-55196337D01*
X104874035Y-54982171D01*
X104738495Y-54788599D01*
X104738494Y-54788597D01*
X104571402Y-54621506D01*
X104571396Y-54621501D01*
X104385842Y-54491575D01*
X104342217Y-54436998D01*
X104335023Y-54367500D01*
X104366546Y-54305145D01*
X104385842Y-54288425D01*
X104461199Y-54235659D01*
X104571401Y-54158495D01*
X104738495Y-53991401D01*
X104874035Y-53797830D01*
X104973903Y-53583663D01*
X105035063Y-53355408D01*
X105055659Y-53120000D01*
X105035063Y-52884592D01*
X104975191Y-52661144D01*
X104973905Y-52656344D01*
X104973904Y-52656343D01*
X104973903Y-52656337D01*
X104874035Y-52442171D01*
X104738495Y-52248599D01*
X104738494Y-52248597D01*
X104571402Y-52081506D01*
X104571396Y-52081501D01*
X104385842Y-51951575D01*
X104342217Y-51896998D01*
X104335023Y-51827500D01*
X104366546Y-51765145D01*
X104385842Y-51748425D01*
X104446481Y-51705965D01*
X104571401Y-51618495D01*
X104738495Y-51451401D01*
X104874035Y-51257830D01*
X104973903Y-51043663D01*
X105035063Y-50815408D01*
X105055659Y-50580000D01*
X105035063Y-50344592D01*
X104973903Y-50116337D01*
X104874035Y-49902171D01*
X104829703Y-49838857D01*
X104738494Y-49708597D01*
X104571402Y-49541506D01*
X104571396Y-49541501D01*
X104385842Y-49411575D01*
X104342217Y-49356998D01*
X104335023Y-49287500D01*
X104366546Y-49225145D01*
X104385842Y-49208425D01*
X104438469Y-49171575D01*
X104571401Y-49078495D01*
X104738495Y-48911401D01*
X104874035Y-48717830D01*
X104973903Y-48503663D01*
X105035063Y-48275408D01*
X105055659Y-48040000D01*
X105035063Y-47804592D01*
X104973903Y-47576337D01*
X104874035Y-47362171D01*
X104738495Y-47168599D01*
X104738494Y-47168597D01*
X104571402Y-47001506D01*
X104571396Y-47001501D01*
X104385842Y-46871575D01*
X104342217Y-46816998D01*
X104335023Y-46747500D01*
X104366546Y-46685145D01*
X104385842Y-46668425D01*
X104438469Y-46631575D01*
X104571401Y-46538495D01*
X104738495Y-46371401D01*
X104874035Y-46177830D01*
X104973903Y-45963663D01*
X105035063Y-45735408D01*
X105055659Y-45500000D01*
X105035063Y-45264592D01*
X104973903Y-45036337D01*
X104874035Y-44822171D01*
X104738495Y-44628599D01*
X104738494Y-44628597D01*
X104571402Y-44461506D01*
X104571396Y-44461501D01*
X104385842Y-44331575D01*
X104342217Y-44276998D01*
X104335023Y-44207500D01*
X104366546Y-44145145D01*
X104385842Y-44128425D01*
X104438469Y-44091575D01*
X104571401Y-43998495D01*
X104738495Y-43831401D01*
X104874035Y-43637830D01*
X104973903Y-43423663D01*
X105035063Y-43195408D01*
X105055659Y-42960000D01*
X105035063Y-42724592D01*
X104973903Y-42496337D01*
X104874035Y-42282171D01*
X104738495Y-42088599D01*
X104738494Y-42088597D01*
X104571402Y-41921506D01*
X104571395Y-41921501D01*
X104377834Y-41785967D01*
X104377830Y-41785965D01*
X104377829Y-41785964D01*
X104163663Y-41686097D01*
X104163659Y-41686096D01*
X104163655Y-41686094D01*
X103935413Y-41624938D01*
X103935403Y-41624936D01*
X103700001Y-41604341D01*
X103699999Y-41604341D01*
X103464596Y-41624936D01*
X103464586Y-41624938D01*
X103236344Y-41686094D01*
X103236335Y-41686098D01*
X103022171Y-41785964D01*
X103022169Y-41785965D01*
X102828597Y-41921505D01*
X102661505Y-42088597D01*
X102525965Y-42282169D01*
X102525964Y-42282171D01*
X102426098Y-42496335D01*
X102426094Y-42496344D01*
X102364938Y-42724586D01*
X102364936Y-42724596D01*
X102344341Y-42959999D01*
X102344341Y-42960000D01*
X102364936Y-43195403D01*
X102364938Y-43195413D01*
X102426094Y-43423655D01*
X102426096Y-43423659D01*
X102426097Y-43423663D01*
X102504312Y-43591395D01*
X102525965Y-43637830D01*
X102525967Y-43637834D01*
X102661501Y-43831395D01*
X102661506Y-43831402D01*
X102828597Y-43998493D01*
X102828603Y-43998498D01*
X103014158Y-44128425D01*
X103057783Y-44183002D01*
X103064977Y-44252500D01*
X103033454Y-44314855D01*
X103014158Y-44331575D01*
X102828597Y-44461505D01*
X102661505Y-44628597D01*
X102525965Y-44822169D01*
X102525964Y-44822171D01*
X102426098Y-45036335D01*
X102426094Y-45036344D01*
X102364938Y-45264586D01*
X102364936Y-45264596D01*
X102344341Y-45499999D01*
X102344341Y-45500000D01*
X102364936Y-45735403D01*
X102364938Y-45735413D01*
X102426094Y-45963655D01*
X102426096Y-45963659D01*
X102426097Y-45963663D01*
X102504312Y-46131395D01*
X102525965Y-46177830D01*
X102525967Y-46177834D01*
X102661501Y-46371395D01*
X102661506Y-46371402D01*
X102828597Y-46538493D01*
X102828603Y-46538498D01*
X103014158Y-46668425D01*
X103057783Y-46723002D01*
X103064977Y-46792500D01*
X103033454Y-46854855D01*
X103014158Y-46871575D01*
X102828597Y-47001505D01*
X102661505Y-47168597D01*
X102525965Y-47362169D01*
X102525964Y-47362171D01*
X102426098Y-47576335D01*
X102426094Y-47576344D01*
X102364938Y-47804586D01*
X102364936Y-47804596D01*
X102344341Y-48039999D01*
X102344341Y-48040000D01*
X102364936Y-48275403D01*
X102364938Y-48275413D01*
X102426094Y-48503655D01*
X102426096Y-48503659D01*
X102426097Y-48503663D01*
X102504312Y-48671395D01*
X102525965Y-48717830D01*
X102525967Y-48717834D01*
X102661501Y-48911395D01*
X102661506Y-48911402D01*
X102828597Y-49078493D01*
X102828603Y-49078498D01*
X103014158Y-49208425D01*
X103057783Y-49263002D01*
X103064977Y-49332500D01*
X103033454Y-49394855D01*
X103014158Y-49411575D01*
X102828597Y-49541505D01*
X102661505Y-49708597D01*
X102525965Y-49902169D01*
X102525964Y-49902171D01*
X102426098Y-50116335D01*
X102426094Y-50116344D01*
X102364938Y-50344586D01*
X102364936Y-50344596D01*
X102344341Y-50579999D01*
X102344341Y-50580000D01*
X102364936Y-50815403D01*
X102364938Y-50815413D01*
X102426094Y-51043655D01*
X102426096Y-51043659D01*
X102426097Y-51043663D01*
X102504315Y-51211401D01*
X102525965Y-51257830D01*
X102525967Y-51257834D01*
X102610458Y-51378498D01*
X102647721Y-51431716D01*
X102661501Y-51451395D01*
X102661506Y-51451402D01*
X102828597Y-51618493D01*
X102828603Y-51618498D01*
X103014158Y-51748425D01*
X103057783Y-51803002D01*
X103064977Y-51872500D01*
X103033454Y-51934855D01*
X103014158Y-51951575D01*
X102828597Y-52081505D01*
X102661505Y-52248597D01*
X102525965Y-52442169D01*
X102525964Y-52442171D01*
X102426098Y-52656335D01*
X102426094Y-52656344D01*
X102364938Y-52884586D01*
X102364936Y-52884596D01*
X102344341Y-53119999D01*
X102344341Y-53120000D01*
X102364936Y-53355403D01*
X102364938Y-53355413D01*
X102426094Y-53583655D01*
X102426096Y-53583659D01*
X102426097Y-53583663D01*
X102504312Y-53751395D01*
X102525965Y-53797830D01*
X102525967Y-53797834D01*
X102661501Y-53991395D01*
X102661506Y-53991402D01*
X102828597Y-54158493D01*
X102828603Y-54158498D01*
X103014158Y-54288425D01*
X103057783Y-54343002D01*
X103064977Y-54412500D01*
X103033454Y-54474855D01*
X103014158Y-54491575D01*
X102828597Y-54621505D01*
X102661505Y-54788597D01*
X102525965Y-54982169D01*
X102525964Y-54982171D01*
X102426098Y-55196335D01*
X102426094Y-55196344D01*
X102364938Y-55424586D01*
X102364936Y-55424596D01*
X102344341Y-55659999D01*
X102344341Y-55660000D01*
X102364936Y-55895403D01*
X102364938Y-55895413D01*
X102426094Y-56123655D01*
X102426096Y-56123659D01*
X102426097Y-56123663D01*
X102525964Y-56337830D01*
X102525965Y-56337830D01*
X102525967Y-56337834D01*
X102661501Y-56531395D01*
X102661506Y-56531402D01*
X102828597Y-56698493D01*
X102828603Y-56698498D01*
X103014158Y-56828425D01*
X103057783Y-56883002D01*
X103064977Y-56952500D01*
X103033454Y-57014855D01*
X103014158Y-57031575D01*
X102828597Y-57161505D01*
X102661505Y-57328597D01*
X102525965Y-57522169D01*
X102525964Y-57522171D01*
X102426098Y-57736335D01*
X102426094Y-57736344D01*
X102364938Y-57964586D01*
X102364936Y-57964596D01*
X102344341Y-58199999D01*
X102344341Y-58200000D01*
X102364936Y-58435403D01*
X102364938Y-58435413D01*
X102426094Y-58663655D01*
X102426096Y-58663659D01*
X102426097Y-58663663D01*
X102466356Y-58749998D01*
X102525965Y-58877830D01*
X102525967Y-58877834D01*
X102661501Y-59071395D01*
X102661506Y-59071402D01*
X102828597Y-59238493D01*
X102828603Y-59238498D01*
X103014158Y-59368425D01*
X103057783Y-59423002D01*
X103064977Y-59492500D01*
X103033454Y-59554855D01*
X103014158Y-59571575D01*
X102828597Y-59701505D01*
X102661505Y-59868597D01*
X102525965Y-60062169D01*
X102525964Y-60062171D01*
X102426098Y-60276335D01*
X102426094Y-60276344D01*
X102364938Y-60504586D01*
X102364936Y-60504596D01*
X102344341Y-60739999D01*
X102344341Y-60740000D01*
X102364936Y-60975403D01*
X102364938Y-60975413D01*
X102426094Y-61203655D01*
X102426096Y-61203659D01*
X102426097Y-61203663D01*
X102525964Y-61417829D01*
X102525965Y-61417830D01*
X102525967Y-61417834D01*
X102661501Y-61611395D01*
X102661506Y-61611402D01*
X102828597Y-61778493D01*
X102828603Y-61778498D01*
X103014158Y-61908425D01*
X103057783Y-61963002D01*
X103064977Y-62032500D01*
X103033454Y-62094855D01*
X103014158Y-62111575D01*
X102828597Y-62241505D01*
X102661505Y-62408597D01*
X102525965Y-62602169D01*
X102525964Y-62602171D01*
X102426098Y-62816335D01*
X102426094Y-62816344D01*
X102364938Y-63044586D01*
X102364936Y-63044596D01*
X102344341Y-63279999D01*
X102344341Y-63280000D01*
X102364936Y-63515403D01*
X102364938Y-63515413D01*
X102426094Y-63743655D01*
X102426096Y-63743659D01*
X102426097Y-63743663D01*
X102504473Y-63911740D01*
X102525965Y-63957830D01*
X102525967Y-63957834D01*
X102661501Y-64151395D01*
X102661506Y-64151402D01*
X102828597Y-64318493D01*
X102828603Y-64318498D01*
X103014158Y-64448425D01*
X103057783Y-64503002D01*
X103064977Y-64572500D01*
X103033454Y-64634855D01*
X103014158Y-64651575D01*
X102828597Y-64781505D01*
X102661505Y-64948597D01*
X102525965Y-65142169D01*
X102525964Y-65142171D01*
X102426098Y-65356335D01*
X102426094Y-65356344D01*
X102364938Y-65584586D01*
X102364936Y-65584596D01*
X102344341Y-65819999D01*
X102344341Y-65820000D01*
X102364936Y-66055403D01*
X102364938Y-66055413D01*
X102426094Y-66283655D01*
X102426096Y-66283659D01*
X102426097Y-66283663D01*
X102525964Y-66497830D01*
X102525965Y-66497830D01*
X102525967Y-66497834D01*
X102661501Y-66691395D01*
X102661506Y-66691402D01*
X102828597Y-66858493D01*
X102828603Y-66858498D01*
X103014158Y-66988425D01*
X103057783Y-67043002D01*
X103064977Y-67112500D01*
X103033454Y-67174855D01*
X103014158Y-67191575D01*
X102828597Y-67321505D01*
X102661505Y-67488597D01*
X102525965Y-67682169D01*
X102525964Y-67682171D01*
X102426098Y-67896335D01*
X102426094Y-67896344D01*
X102364938Y-68124586D01*
X102364936Y-68124596D01*
X102344341Y-68359999D01*
X102344341Y-68360000D01*
X96150500Y-68360000D01*
X96150500Y-67895222D01*
X96144141Y-67814422D01*
X96093788Y-67626504D01*
X96005465Y-67453160D01*
X95883032Y-67301968D01*
X95731840Y-67179535D01*
X95558496Y-67091212D01*
X95370578Y-67040859D01*
X95370577Y-67040858D01*
X95370574Y-67040858D01*
X95289783Y-67034500D01*
X95289778Y-67034500D01*
X94310222Y-67034500D01*
X94310216Y-67034500D01*
X94229425Y-67040858D01*
X94041504Y-67091212D01*
X93868161Y-67179534D01*
X93716968Y-67301968D01*
X93626366Y-67413852D01*
X93568879Y-67453563D01*
X93499048Y-67455891D01*
X93439044Y-67420095D01*
X93433634Y-67413852D01*
X93403865Y-67377091D01*
X93343032Y-67301968D01*
X93191840Y-67179535D01*
X93018496Y-67091212D01*
X92830578Y-67040859D01*
X92830577Y-67040858D01*
X92830574Y-67040858D01*
X92749783Y-67034500D01*
X92749778Y-67034500D01*
X91770222Y-67034500D01*
X91770216Y-67034500D01*
X91689425Y-67040858D01*
X91501504Y-67091212D01*
X91328161Y-67179534D01*
X91176968Y-67301968D01*
X91054534Y-67453161D01*
X90966212Y-67626504D01*
X90915858Y-67814425D01*
X90909500Y-67895216D01*
X90909500Y-68874783D01*
X89220986Y-68874783D01*
X89236207Y-68817977D01*
X89255277Y-68600000D01*
X89236207Y-68382023D01*
X89236205Y-68382018D01*
X89236183Y-68381758D01*
X89249950Y-68313258D01*
X89272027Y-68283272D01*
X91706541Y-65848760D01*
X91765100Y-65790201D01*
X91765113Y-65790186D01*
X92261913Y-65293386D01*
X92264605Y-65290852D01*
X92309332Y-65251229D01*
X92343269Y-65202059D01*
X92345472Y-65199066D01*
X92382326Y-65152028D01*
X92386172Y-65143480D01*
X92397197Y-65123935D01*
X92402517Y-65116227D01*
X92402516Y-65116227D01*
X92402518Y-65116226D01*
X92423705Y-65060358D01*
X92425132Y-65056916D01*
X92449647Y-65002446D01*
X92449647Y-65002445D01*
X92449650Y-65002439D01*
X92451338Y-64993221D01*
X92457366Y-64971603D01*
X92460688Y-64962845D01*
X92467889Y-64903540D01*
X92468453Y-64899836D01*
X92472577Y-64877327D01*
X92479219Y-64841085D01*
X92475613Y-64781466D01*
X92475500Y-64777722D01*
X92475500Y-64743156D01*
X92495185Y-64676117D01*
X92507351Y-64660183D01*
X92515102Y-64651575D01*
X92532533Y-64632216D01*
X92627179Y-64468284D01*
X92685674Y-64288256D01*
X92705460Y-64100000D01*
X92685674Y-63911744D01*
X92627179Y-63731716D01*
X92532533Y-63567784D01*
X92405871Y-63427112D01*
X92405870Y-63427111D01*
X92252734Y-63315851D01*
X92252729Y-63315848D01*
X92079807Y-63238857D01*
X92079802Y-63238855D01*
X91934000Y-63207865D01*
X91894646Y-63199500D01*
X91705354Y-63199500D01*
X91672897Y-63206398D01*
X91520197Y-63238855D01*
X91520192Y-63238857D01*
X91347270Y-63315848D01*
X91347265Y-63315851D01*
X91194129Y-63427111D01*
X91067466Y-63567785D01*
X90972821Y-63731715D01*
X90972818Y-63731722D01*
X90914327Y-63911740D01*
X90914326Y-63911744D01*
X90894540Y-64100000D01*
X90914326Y-64288256D01*
X90914327Y-64288259D01*
X90972818Y-64468277D01*
X90972821Y-64468284D01*
X90999767Y-64514956D01*
X91016240Y-64582855D01*
X90993388Y-64648882D01*
X90980061Y-64664636D01*
X90692656Y-64952040D01*
X90692652Y-64952046D01*
X88316728Y-67327969D01*
X88255405Y-67361454D01*
X88218240Y-67363816D01*
X88000002Y-67344723D01*
X87999998Y-67344723D01*
X87854682Y-67357436D01*
X87782023Y-67363793D01*
X87782020Y-67363793D01*
X87570677Y-67420422D01*
X87570668Y-67420426D01*
X87372361Y-67512898D01*
X87372357Y-67512900D01*
X87193121Y-67638402D01*
X87038402Y-67793121D01*
X86912900Y-67972357D01*
X86912898Y-67972361D01*
X86820426Y-68170668D01*
X86820422Y-68170677D01*
X86763793Y-68382020D01*
X86763793Y-68382024D01*
X86744723Y-68599997D01*
X86744723Y-68600002D01*
X84733832Y-68600002D01*
X84735063Y-68595408D01*
X84755659Y-68360000D01*
X84735063Y-68124592D01*
X84673903Y-67896337D01*
X84574035Y-67682171D01*
X84502367Y-67579817D01*
X84438494Y-67488597D01*
X84271402Y-67321506D01*
X84271396Y-67321501D01*
X84085842Y-67191575D01*
X84042217Y-67136998D01*
X84035023Y-67067500D01*
X84066546Y-67005145D01*
X84085842Y-66988425D01*
X84108026Y-66972891D01*
X84271401Y-66858495D01*
X84438495Y-66691401D01*
X84574035Y-66497830D01*
X84673903Y-66283663D01*
X84735063Y-66055408D01*
X84755659Y-65820000D01*
X84735063Y-65584592D01*
X84673903Y-65356337D01*
X84574035Y-65142171D01*
X84555869Y-65116226D01*
X84438494Y-64948597D01*
X84271402Y-64781506D01*
X84271396Y-64781501D01*
X84085842Y-64651575D01*
X84042217Y-64596998D01*
X84035023Y-64527500D01*
X84066546Y-64465145D01*
X84085842Y-64448425D01*
X84108026Y-64432891D01*
X84271401Y-64318495D01*
X84438495Y-64151401D01*
X84574035Y-63957830D01*
X84673903Y-63743663D01*
X84735063Y-63515408D01*
X84755659Y-63280000D01*
X84735063Y-63044592D01*
X84673903Y-62816337D01*
X84574035Y-62602171D01*
X84438495Y-62408599D01*
X84438494Y-62408597D01*
X84271402Y-62241506D01*
X84271396Y-62241501D01*
X84085842Y-62111575D01*
X84042217Y-62056998D01*
X84035023Y-61987500D01*
X84066546Y-61925145D01*
X84085842Y-61908425D01*
X84108026Y-61892891D01*
X84271401Y-61778495D01*
X84438495Y-61611401D01*
X84574035Y-61417830D01*
X84673903Y-61203663D01*
X84735063Y-60975408D01*
X84755659Y-60740000D01*
X84735063Y-60504592D01*
X84673903Y-60276337D01*
X84574035Y-60062171D01*
X84492473Y-59945687D01*
X84438494Y-59868597D01*
X84354351Y-59784455D01*
X90429343Y-59784455D01*
X90449129Y-59972711D01*
X90449130Y-59972714D01*
X90507621Y-60152732D01*
X90507624Y-60152739D01*
X90602270Y-60316671D01*
X90711357Y-60437824D01*
X90728932Y-60457343D01*
X90882068Y-60568603D01*
X90882073Y-60568606D01*
X91054995Y-60645597D01*
X91055000Y-60645599D01*
X91240157Y-60684955D01*
X91240158Y-60684955D01*
X91429447Y-60684955D01*
X91429449Y-60684955D01*
X91614606Y-60645599D01*
X91787533Y-60568606D01*
X91900832Y-60486288D01*
X91951366Y-60464638D01*
X91956627Y-60463673D01*
X91956630Y-60463674D01*
X92015388Y-60452906D01*
X92019085Y-60452344D01*
X92040433Y-60449751D01*
X92078390Y-60445143D01*
X92087150Y-60441820D01*
X92108766Y-60435793D01*
X92117984Y-60434105D01*
X92172461Y-60409587D01*
X92175903Y-60408160D01*
X92231771Y-60386973D01*
X92239478Y-60381652D01*
X92259025Y-60370627D01*
X92267573Y-60366781D01*
X92314611Y-60329927D01*
X92317604Y-60327724D01*
X92366774Y-60293787D01*
X92406397Y-60249060D01*
X92408931Y-60246368D01*
X92677701Y-59977598D01*
X92739022Y-59944115D01*
X92754563Y-59941754D01*
X92817977Y-59936207D01*
X93029330Y-59879575D01*
X93227639Y-59787102D01*
X93406877Y-59661598D01*
X93561598Y-59506877D01*
X93687102Y-59327639D01*
X93779575Y-59129330D01*
X93836207Y-58917977D01*
X93855277Y-58700000D01*
X93836207Y-58482023D01*
X93779575Y-58270670D01*
X93687102Y-58072362D01*
X93687100Y-58072359D01*
X93687099Y-58072357D01*
X93561599Y-57893124D01*
X93561596Y-57893121D01*
X93406877Y-57738402D01*
X93227639Y-57612898D01*
X93227640Y-57612898D01*
X93227638Y-57612897D01*
X93128484Y-57566661D01*
X93029330Y-57520425D01*
X93029326Y-57520424D01*
X93029322Y-57520422D01*
X92817977Y-57463793D01*
X92600002Y-57444723D01*
X92599998Y-57444723D01*
X92454681Y-57457436D01*
X92382023Y-57463793D01*
X92382020Y-57463793D01*
X92170677Y-57520422D01*
X92170668Y-57520426D01*
X91972361Y-57612898D01*
X91972357Y-57612900D01*
X91793121Y-57738402D01*
X91638402Y-57893121D01*
X91512900Y-58072357D01*
X91512898Y-58072361D01*
X91420426Y-58270668D01*
X91420422Y-58270677D01*
X91363793Y-58482020D01*
X91363793Y-58482024D01*
X91344723Y-58699997D01*
X91344723Y-58700002D01*
X91349097Y-58749998D01*
X91335330Y-58818498D01*
X91286715Y-58868681D01*
X91246308Y-58881636D01*
X91246514Y-58882604D01*
X91240158Y-58883955D01*
X91240157Y-58883955D01*
X91213203Y-58889683D01*
X91055000Y-58923310D01*
X91054995Y-58923312D01*
X90882073Y-59000303D01*
X90882068Y-59000306D01*
X90728932Y-59111566D01*
X90602269Y-59252240D01*
X90507624Y-59416170D01*
X90507621Y-59416177D01*
X90449130Y-59596195D01*
X90449129Y-59596199D01*
X90429343Y-59784455D01*
X84354351Y-59784455D01*
X84271402Y-59701506D01*
X84271396Y-59701501D01*
X84085842Y-59571575D01*
X84042217Y-59516998D01*
X84035023Y-59447500D01*
X84066546Y-59385145D01*
X84085842Y-59368425D01*
X84144092Y-59327638D01*
X84271401Y-59238495D01*
X84438495Y-59071401D01*
X84574035Y-58877830D01*
X84673903Y-58663663D01*
X84735063Y-58435408D01*
X84755659Y-58200000D01*
X84735063Y-57964592D01*
X84673903Y-57736337D01*
X84574035Y-57522171D01*
X84572814Y-57520426D01*
X84438494Y-57328597D01*
X84271402Y-57161506D01*
X84271396Y-57161501D01*
X84085842Y-57031575D01*
X84042217Y-56976998D01*
X84035023Y-56907500D01*
X84066546Y-56845145D01*
X84085842Y-56828425D01*
X84108026Y-56812891D01*
X84271401Y-56698495D01*
X84438495Y-56531401D01*
X84574035Y-56337830D01*
X84673903Y-56123663D01*
X84735063Y-55895408D01*
X84755659Y-55660000D01*
X84735063Y-55424592D01*
X84673903Y-55196337D01*
X84574035Y-54982171D01*
X84438495Y-54788599D01*
X84438494Y-54788597D01*
X84271402Y-54621506D01*
X84271396Y-54621501D01*
X84085842Y-54491575D01*
X84042217Y-54436998D01*
X84035023Y-54367500D01*
X84066546Y-54305145D01*
X84085842Y-54288425D01*
X84161199Y-54235659D01*
X84271401Y-54158495D01*
X84438495Y-53991401D01*
X84574035Y-53797830D01*
X84673903Y-53583663D01*
X84735063Y-53355408D01*
X84755659Y-53120000D01*
X84735063Y-52884592D01*
X84675191Y-52661144D01*
X84673905Y-52656344D01*
X84673904Y-52656343D01*
X84673903Y-52656337D01*
X84574035Y-52442171D01*
X84438495Y-52248599D01*
X84438494Y-52248597D01*
X84271402Y-52081506D01*
X84271396Y-52081501D01*
X84085842Y-51951575D01*
X84042217Y-51896998D01*
X84035023Y-51827500D01*
X84048925Y-51800000D01*
X94793040Y-51800000D01*
X94812826Y-51988256D01*
X94812827Y-51988259D01*
X94871318Y-52168277D01*
X94871321Y-52168284D01*
X94965967Y-52332216D01*
X95064971Y-52442171D01*
X95092629Y-52472888D01*
X95245765Y-52584148D01*
X95245770Y-52584151D01*
X95418692Y-52661142D01*
X95418697Y-52661144D01*
X95603854Y-52700500D01*
X95603855Y-52700500D01*
X95793144Y-52700500D01*
X95793146Y-52700500D01*
X95978303Y-52661144D01*
X96151230Y-52584151D01*
X96304371Y-52472888D01*
X96431033Y-52332216D01*
X96525679Y-52168284D01*
X96584174Y-51988256D01*
X96589900Y-51933768D01*
X96616483Y-51869155D01*
X96625521Y-51859067D01*
X97122773Y-51361816D01*
X97184095Y-51328334D01*
X97210453Y-51325500D01*
X97297752Y-51325500D01*
X97364791Y-51345185D01*
X97389900Y-51366526D01*
X97395626Y-51372885D01*
X97395630Y-51372889D01*
X97548765Y-51484148D01*
X97548770Y-51484151D01*
X97721692Y-51561142D01*
X97721697Y-51561144D01*
X97906854Y-51600500D01*
X97906855Y-51600500D01*
X98096144Y-51600500D01*
X98096146Y-51600500D01*
X98281303Y-51561144D01*
X98454230Y-51484151D01*
X98607371Y-51372888D01*
X98734033Y-51232216D01*
X98828679Y-51068284D01*
X98828682Y-51068273D01*
X98829952Y-51065423D01*
X98831131Y-51064034D01*
X98831928Y-51062656D01*
X98832180Y-51062801D01*
X98875204Y-51012187D01*
X98942053Y-50991867D01*
X99009276Y-51010913D01*
X99044806Y-51044738D01*
X99161501Y-51211396D01*
X99161506Y-51211402D01*
X99328597Y-51378493D01*
X99328603Y-51378498D01*
X99514158Y-51508425D01*
X99557783Y-51563002D01*
X99564977Y-51632500D01*
X99533454Y-51694855D01*
X99514158Y-51711575D01*
X99328597Y-51841505D01*
X99161505Y-52008597D01*
X99025965Y-52202169D01*
X99025964Y-52202171D01*
X98926098Y-52416335D01*
X98926094Y-52416344D01*
X98864938Y-52644586D01*
X98864936Y-52644596D01*
X98844341Y-52879999D01*
X98844341Y-52880000D01*
X98864936Y-53115403D01*
X98864938Y-53115413D01*
X98926094Y-53343655D01*
X98926096Y-53343659D01*
X98926097Y-53343663D01*
X99025965Y-53557829D01*
X99025965Y-53557830D01*
X99025967Y-53557834D01*
X99044053Y-53583663D01*
X99161505Y-53751401D01*
X99328599Y-53918495D01*
X99425384Y-53986264D01*
X99522165Y-54054032D01*
X99522167Y-54054033D01*
X99522170Y-54054035D01*
X99736337Y-54153903D01*
X99736343Y-54153904D01*
X99736344Y-54153905D01*
X99753486Y-54158498D01*
X99964592Y-54215063D01*
X100152918Y-54231539D01*
X100199999Y-54235659D01*
X100200000Y-54235659D01*
X100200001Y-54235659D01*
X100239234Y-54232226D01*
X100435408Y-54215063D01*
X100663663Y-54153903D01*
X100877830Y-54054035D01*
X101071401Y-53918495D01*
X101238495Y-53751401D01*
X101374035Y-53557830D01*
X101473903Y-53343663D01*
X101535063Y-53115408D01*
X101555659Y-52880000D01*
X101535063Y-52644592D01*
X101473903Y-52416337D01*
X101374035Y-52202171D01*
X101350308Y-52168284D01*
X101238494Y-52008597D01*
X101071402Y-51841506D01*
X101071396Y-51841501D01*
X100885842Y-51711575D01*
X100842217Y-51656998D01*
X100835023Y-51587500D01*
X100866546Y-51525145D01*
X100885842Y-51508425D01*
X100967279Y-51451402D01*
X101071401Y-51378495D01*
X101238495Y-51211401D01*
X101374035Y-51017830D01*
X101473903Y-50803663D01*
X101535063Y-50575408D01*
X101555659Y-50340000D01*
X101535063Y-50104592D01*
X101473903Y-49876337D01*
X101374035Y-49662171D01*
X101289545Y-49541505D01*
X101238494Y-49468597D01*
X101071402Y-49301506D01*
X101071401Y-49301505D01*
X100885842Y-49171575D01*
X100885841Y-49171574D01*
X100842216Y-49116997D01*
X100835024Y-49047498D01*
X100866546Y-48985144D01*
X100885836Y-48968428D01*
X101071401Y-48838495D01*
X101238495Y-48671401D01*
X101374035Y-48477830D01*
X101473903Y-48263663D01*
X101535063Y-48035408D01*
X101555659Y-47800000D01*
X101535063Y-47564592D01*
X101473903Y-47336337D01*
X101374035Y-47122171D01*
X101289545Y-47001505D01*
X101238494Y-46928597D01*
X101071402Y-46761506D01*
X101071401Y-46761505D01*
X100885842Y-46631575D01*
X100885841Y-46631574D01*
X100842216Y-46576997D01*
X100835024Y-46507498D01*
X100866546Y-46445144D01*
X100885836Y-46428428D01*
X101071401Y-46298495D01*
X101238495Y-46131401D01*
X101374035Y-45937830D01*
X101473903Y-45723663D01*
X101535063Y-45495408D01*
X101555659Y-45260000D01*
X101535063Y-45024592D01*
X101473903Y-44796337D01*
X101374035Y-44582171D01*
X101289545Y-44461505D01*
X101238494Y-44388597D01*
X101071402Y-44221506D01*
X101071401Y-44221505D01*
X100885842Y-44091575D01*
X100885841Y-44091574D01*
X100842216Y-44036997D01*
X100835024Y-43967498D01*
X100866546Y-43905144D01*
X100885836Y-43888428D01*
X101071401Y-43758495D01*
X101238495Y-43591401D01*
X101374035Y-43397830D01*
X101473903Y-43183663D01*
X101535063Y-42955408D01*
X101555659Y-42720000D01*
X101535063Y-42484592D01*
X101473903Y-42256337D01*
X101374035Y-42042171D01*
X101289545Y-41921505D01*
X101238494Y-41848597D01*
X101071402Y-41681506D01*
X101071401Y-41681505D01*
X100885842Y-41551575D01*
X100885841Y-41551574D01*
X100842216Y-41496997D01*
X100835024Y-41427498D01*
X100866546Y-41365144D01*
X100885836Y-41348428D01*
X101071401Y-41218495D01*
X101238495Y-41051401D01*
X101374035Y-40857830D01*
X101473903Y-40643663D01*
X101535063Y-40415408D01*
X101555659Y-40180000D01*
X101535063Y-39944592D01*
X101473903Y-39716337D01*
X101374035Y-39502171D01*
X101301114Y-39398029D01*
X101238496Y-39308600D01*
X101194188Y-39264292D01*
X101116179Y-39186283D01*
X101082696Y-39124963D01*
X101087680Y-39055271D01*
X101129551Y-38999337D01*
X101160529Y-38982422D01*
X101292086Y-38933354D01*
X101292093Y-38933350D01*
X101407187Y-38847190D01*
X101407190Y-38847187D01*
X101493350Y-38732093D01*
X101493354Y-38732086D01*
X101543596Y-38597379D01*
X101543598Y-38597372D01*
X101549999Y-38537844D01*
X101550000Y-38537827D01*
X101550000Y-37890000D01*
X100633686Y-37890000D01*
X100659493Y-37849844D01*
X100700000Y-37711889D01*
X100700000Y-37568111D01*
X100659493Y-37430156D01*
X100633686Y-37390000D01*
X101550000Y-37390000D01*
X101550000Y-36742172D01*
X101549999Y-36742155D01*
X101543598Y-36682627D01*
X101543596Y-36682620D01*
X101493354Y-36547913D01*
X101493350Y-36547906D01*
X101407190Y-36432812D01*
X101407187Y-36432809D01*
X101292093Y-36346649D01*
X101292088Y-36346646D01*
X101160528Y-36297577D01*
X101104595Y-36255705D01*
X101080178Y-36190241D01*
X101095030Y-36121968D01*
X101116175Y-36093720D01*
X101238495Y-35971401D01*
X101374035Y-35777830D01*
X101473903Y-35563663D01*
X101535063Y-35335408D01*
X101555659Y-35100000D01*
X101535063Y-34864592D01*
X101473903Y-34636337D01*
X101374035Y-34422171D01*
X101289545Y-34301505D01*
X101238494Y-34228597D01*
X101071402Y-34061506D01*
X101071395Y-34061501D01*
X100877834Y-33925967D01*
X100877830Y-33925965D01*
X100877829Y-33925964D01*
X100663663Y-33826097D01*
X100663659Y-33826096D01*
X100663655Y-33826094D01*
X100435413Y-33764938D01*
X100435403Y-33764936D01*
X100200001Y-33744341D01*
X100199999Y-33744341D01*
X99964596Y-33764936D01*
X99964586Y-33764938D01*
X99736344Y-33826094D01*
X99736335Y-33826098D01*
X99522171Y-33925964D01*
X99522169Y-33925965D01*
X99328597Y-34061505D01*
X99161505Y-34228597D01*
X99025965Y-34422169D01*
X99025964Y-34422171D01*
X98926098Y-34636335D01*
X98926094Y-34636344D01*
X98864938Y-34864586D01*
X98864936Y-34864596D01*
X98844341Y-35099999D01*
X98844341Y-35100000D01*
X98864936Y-35335403D01*
X98864938Y-35335413D01*
X98926094Y-35563655D01*
X98926096Y-35563659D01*
X98926097Y-35563663D01*
X99025965Y-35777830D01*
X99025967Y-35777834D01*
X99044053Y-35803663D01*
X99161501Y-35971396D01*
X99161506Y-35971402D01*
X99283818Y-36093714D01*
X99317303Y-36155037D01*
X99312319Y-36224729D01*
X99270447Y-36280662D01*
X99239471Y-36297577D01*
X99107912Y-36346646D01*
X99107906Y-36346649D01*
X98992812Y-36432809D01*
X98992809Y-36432812D01*
X98906649Y-36547906D01*
X98906645Y-36547913D01*
X98856403Y-36682620D01*
X98856401Y-36682627D01*
X98850000Y-36742155D01*
X98850000Y-37390000D01*
X99766314Y-37390000D01*
X99740507Y-37430156D01*
X99700000Y-37568111D01*
X99700000Y-37711889D01*
X99740507Y-37849844D01*
X99766314Y-37890000D01*
X98850000Y-37890000D01*
X98850000Y-38537844D01*
X98856401Y-38597372D01*
X98856403Y-38597379D01*
X98906645Y-38732086D01*
X98906649Y-38732093D01*
X98992809Y-38847187D01*
X98992812Y-38847190D01*
X99107906Y-38933350D01*
X99107913Y-38933354D01*
X99239470Y-38982421D01*
X99295403Y-39024292D01*
X99319821Y-39089756D01*
X99304970Y-39158029D01*
X99283819Y-39186284D01*
X99161503Y-39308600D01*
X99025965Y-39502169D01*
X99025964Y-39502171D01*
X98926098Y-39716335D01*
X98926094Y-39716344D01*
X98864938Y-39944586D01*
X98864936Y-39944596D01*
X98844341Y-40179999D01*
X98844341Y-40180000D01*
X98864936Y-40415403D01*
X98864938Y-40415413D01*
X98926094Y-40643655D01*
X98926096Y-40643659D01*
X98926097Y-40643663D01*
X99025965Y-40857829D01*
X99025965Y-40857830D01*
X99025967Y-40857834D01*
X99161501Y-41051395D01*
X99161506Y-41051402D01*
X99328597Y-41218493D01*
X99328603Y-41218498D01*
X99514158Y-41348425D01*
X99557783Y-41403002D01*
X99564977Y-41472500D01*
X99533454Y-41534855D01*
X99514158Y-41551575D01*
X99328597Y-41681505D01*
X99161505Y-41848597D01*
X99025965Y-42042169D01*
X99025964Y-42042171D01*
X98926098Y-42256335D01*
X98926094Y-42256344D01*
X98864938Y-42484586D01*
X98864936Y-42484596D01*
X98844341Y-42719999D01*
X98844341Y-42720000D01*
X98864936Y-42955403D01*
X98864938Y-42955413D01*
X98926094Y-43183655D01*
X98926096Y-43183659D01*
X98926097Y-43183663D01*
X99025965Y-43397829D01*
X99025965Y-43397830D01*
X99025967Y-43397834D01*
X99161501Y-43591395D01*
X99161506Y-43591402D01*
X99328597Y-43758493D01*
X99328603Y-43758498D01*
X99514158Y-43888425D01*
X99557783Y-43943002D01*
X99564977Y-44012500D01*
X99533454Y-44074855D01*
X99514158Y-44091575D01*
X99328597Y-44221505D01*
X99161505Y-44388597D01*
X99025965Y-44582169D01*
X99025964Y-44582171D01*
X98926098Y-44796335D01*
X98926094Y-44796344D01*
X98864938Y-45024586D01*
X98864936Y-45024596D01*
X98844341Y-45259999D01*
X98844341Y-45260000D01*
X98864936Y-45495403D01*
X98864938Y-45495413D01*
X98926094Y-45723655D01*
X98926096Y-45723659D01*
X98926097Y-45723663D01*
X99025965Y-45937830D01*
X99025967Y-45937834D01*
X99161501Y-46131395D01*
X99161506Y-46131402D01*
X99328597Y-46298493D01*
X99328603Y-46298498D01*
X99514158Y-46428425D01*
X99557783Y-46483002D01*
X99564977Y-46552500D01*
X99533454Y-46614855D01*
X99514158Y-46631575D01*
X99328597Y-46761505D01*
X99161505Y-46928597D01*
X99025965Y-47122169D01*
X99025964Y-47122171D01*
X98926098Y-47336335D01*
X98926094Y-47336344D01*
X98864938Y-47564586D01*
X98864936Y-47564596D01*
X98844341Y-47799999D01*
X98844341Y-47800000D01*
X98864936Y-48035403D01*
X98864938Y-48035413D01*
X98926094Y-48263655D01*
X98926096Y-48263659D01*
X98926097Y-48263663D01*
X99025965Y-48477829D01*
X99025965Y-48477830D01*
X99025967Y-48477834D01*
X99161501Y-48671395D01*
X99161506Y-48671402D01*
X99328597Y-48838493D01*
X99328603Y-48838498D01*
X99514158Y-48968425D01*
X99557783Y-49023002D01*
X99564977Y-49092500D01*
X99533454Y-49154855D01*
X99514158Y-49171575D01*
X99328597Y-49301505D01*
X99161505Y-49468597D01*
X99025965Y-49662169D01*
X99025964Y-49662171D01*
X98926098Y-49876335D01*
X98926094Y-49876344D01*
X98880975Y-50044734D01*
X98844610Y-50104395D01*
X98781763Y-50134924D01*
X98712388Y-50126629D01*
X98669051Y-50095615D01*
X98607371Y-50027112D01*
X98607367Y-50027109D01*
X98454234Y-49915851D01*
X98454229Y-49915848D01*
X98281307Y-49838857D01*
X98281302Y-49838855D01*
X98135500Y-49807865D01*
X98096146Y-49799500D01*
X97906854Y-49799500D01*
X97874397Y-49806398D01*
X97721697Y-49838855D01*
X97721692Y-49838857D01*
X97548770Y-49915848D01*
X97548765Y-49915851D01*
X97395630Y-50027110D01*
X97395626Y-50027114D01*
X97389900Y-50033474D01*
X97330413Y-50070121D01*
X97297752Y-50074500D01*
X96982743Y-50074500D01*
X96967122Y-50072775D01*
X96967096Y-50073061D01*
X96959333Y-50072326D01*
X96891153Y-50074469D01*
X96889206Y-50074500D01*
X96860649Y-50074500D01*
X96853766Y-50075369D01*
X96847949Y-50075826D01*
X96801373Y-50077290D01*
X96782129Y-50082881D01*
X96763079Y-50086825D01*
X96743211Y-50089334D01*
X96699884Y-50106488D01*
X96694358Y-50108379D01*
X96649614Y-50121379D01*
X96649610Y-50121381D01*
X96632366Y-50131579D01*
X96614905Y-50140133D01*
X96596274Y-50147510D01*
X96596262Y-50147517D01*
X96558570Y-50174902D01*
X96553687Y-50178109D01*
X96513580Y-50201829D01*
X96499414Y-50215995D01*
X96484624Y-50228627D01*
X96468414Y-50240404D01*
X96468411Y-50240407D01*
X96438710Y-50276309D01*
X96434777Y-50280631D01*
X95852228Y-50863181D01*
X95790905Y-50896666D01*
X95764547Y-50899500D01*
X95603854Y-50899500D01*
X95571397Y-50906398D01*
X95418697Y-50938855D01*
X95418692Y-50938857D01*
X95245770Y-51015848D01*
X95245765Y-51015851D01*
X95092629Y-51127111D01*
X94965966Y-51267785D01*
X94871321Y-51431715D01*
X94871318Y-51431722D01*
X94812827Y-51611740D01*
X94812826Y-51611744D01*
X94793040Y-51800000D01*
X84048925Y-51800000D01*
X84066546Y-51765145D01*
X84085842Y-51748425D01*
X84146481Y-51705965D01*
X84271401Y-51618495D01*
X84438495Y-51451401D01*
X84574035Y-51257830D01*
X84673903Y-51043663D01*
X84735063Y-50815408D01*
X84755659Y-50580000D01*
X84735063Y-50344592D01*
X84673903Y-50116337D01*
X84574035Y-49902171D01*
X84529703Y-49838857D01*
X84438494Y-49708597D01*
X84271402Y-49541506D01*
X84271396Y-49541501D01*
X84085842Y-49411575D01*
X84042217Y-49356998D01*
X84035023Y-49287500D01*
X84066546Y-49225145D01*
X84085842Y-49208425D01*
X84138469Y-49171575D01*
X84271401Y-49078495D01*
X84438495Y-48911401D01*
X84574035Y-48717830D01*
X84673903Y-48503663D01*
X84735063Y-48275408D01*
X84755659Y-48040000D01*
X84735063Y-47804592D01*
X84673903Y-47576337D01*
X84574035Y-47362171D01*
X84438495Y-47168599D01*
X84438494Y-47168597D01*
X84271402Y-47001506D01*
X84271396Y-47001501D01*
X84085842Y-46871575D01*
X84042217Y-46816998D01*
X84035023Y-46747500D01*
X84066546Y-46685145D01*
X84085842Y-46668425D01*
X84138469Y-46631575D01*
X84271401Y-46538495D01*
X84438495Y-46371401D01*
X84574035Y-46177830D01*
X84673903Y-45963663D01*
X84735063Y-45735408D01*
X84755659Y-45500000D01*
X84735063Y-45264592D01*
X84673903Y-45036337D01*
X84574035Y-44822171D01*
X84438495Y-44628599D01*
X84438494Y-44628597D01*
X84271402Y-44461506D01*
X84271396Y-44461501D01*
X84085842Y-44331575D01*
X84042217Y-44276998D01*
X84035023Y-44207500D01*
X84066546Y-44145145D01*
X84085842Y-44128425D01*
X84138469Y-44091575D01*
X84271401Y-43998495D01*
X84438495Y-43831401D01*
X84574035Y-43637830D01*
X84673903Y-43423663D01*
X84735063Y-43195408D01*
X84755659Y-42960000D01*
X84735063Y-42724592D01*
X84673903Y-42496337D01*
X84574035Y-42282171D01*
X84438495Y-42088599D01*
X84438494Y-42088597D01*
X84271402Y-41921506D01*
X84271396Y-41921501D01*
X84085842Y-41791575D01*
X84042217Y-41736998D01*
X84035023Y-41667500D01*
X84066546Y-41605145D01*
X84085842Y-41588425D01*
X84138469Y-41551575D01*
X84271401Y-41458495D01*
X84438495Y-41291401D01*
X84574035Y-41097830D01*
X84673903Y-40883663D01*
X84735063Y-40655408D01*
X84755659Y-40420000D01*
X84735063Y-40184592D01*
X84673903Y-39956337D01*
X84574035Y-39742171D01*
X84438495Y-39548599D01*
X84316179Y-39426283D01*
X84282696Y-39364963D01*
X84287680Y-39295271D01*
X84329551Y-39239337D01*
X84360529Y-39222422D01*
X84492086Y-39173354D01*
X84492093Y-39173350D01*
X84607187Y-39087190D01*
X84607190Y-39087187D01*
X84693350Y-38972093D01*
X84693354Y-38972086D01*
X84743596Y-38837379D01*
X84743598Y-38837372D01*
X84749999Y-38777844D01*
X84750000Y-38777827D01*
X84750000Y-38130000D01*
X83833686Y-38130000D01*
X83859493Y-38089844D01*
X83900000Y-37951889D01*
X83900000Y-37808111D01*
X83859493Y-37670156D01*
X83833686Y-37630000D01*
X84750000Y-37630000D01*
X84750000Y-36982172D01*
X84749999Y-36982155D01*
X84743598Y-36922627D01*
X84743596Y-36922620D01*
X84693354Y-36787913D01*
X84693350Y-36787906D01*
X84607190Y-36672812D01*
X84607187Y-36672809D01*
X84492093Y-36586649D01*
X84492088Y-36586646D01*
X84360528Y-36537577D01*
X84304595Y-36495705D01*
X84280178Y-36430241D01*
X84295030Y-36361968D01*
X84316175Y-36333720D01*
X84438495Y-36211401D01*
X84574035Y-36017830D01*
X84673903Y-35803663D01*
X84735063Y-35575408D01*
X84755659Y-35340000D01*
X84735063Y-35104592D01*
X84673903Y-34876337D01*
X84574035Y-34662171D01*
X84438495Y-34468599D01*
X84438494Y-34468597D01*
X84271402Y-34301506D01*
X84271401Y-34301505D01*
X84085842Y-34171575D01*
X84085841Y-34171574D01*
X84042216Y-34116997D01*
X84035024Y-34047498D01*
X84066546Y-33985144D01*
X84085836Y-33968428D01*
X84271401Y-33838495D01*
X84438495Y-33671401D01*
X84574035Y-33477830D01*
X84673903Y-33263663D01*
X84735063Y-33035408D01*
X84755659Y-32800000D01*
X84735063Y-32564592D01*
X84673903Y-32336337D01*
X84574035Y-32122171D01*
X84438495Y-31928599D01*
X84438494Y-31928597D01*
X84271402Y-31761506D01*
X84271401Y-31761505D01*
X84085842Y-31631575D01*
X84085841Y-31631574D01*
X84042216Y-31576997D01*
X84035024Y-31507498D01*
X84066546Y-31445144D01*
X84085836Y-31428428D01*
X84271401Y-31298495D01*
X84438495Y-31131401D01*
X84574035Y-30937830D01*
X84673903Y-30723663D01*
X84735063Y-30495408D01*
X84755659Y-30260000D01*
X84735063Y-30024592D01*
X84673903Y-29796337D01*
X84574035Y-29582171D01*
X84438495Y-29388599D01*
X84438494Y-29388597D01*
X84271402Y-29221506D01*
X84271395Y-29221501D01*
X84077834Y-29085967D01*
X84077830Y-29085965D01*
X84077830Y-29085964D01*
X83863663Y-28986097D01*
X83863659Y-28986096D01*
X83863655Y-28986094D01*
X83635413Y-28924938D01*
X83635403Y-28924936D01*
X83400001Y-28904341D01*
X83399999Y-28904341D01*
X83164596Y-28924936D01*
X83164586Y-28924938D01*
X82936344Y-28986094D01*
X82936335Y-28986098D01*
X82722171Y-29085964D01*
X82722169Y-29085965D01*
X82528597Y-29221505D01*
X82361505Y-29388597D01*
X82225965Y-29582169D01*
X82225964Y-29582171D01*
X82126098Y-29796335D01*
X82126094Y-29796344D01*
X82064938Y-30024586D01*
X82064936Y-30024596D01*
X82044341Y-30259999D01*
X82044341Y-30260000D01*
X82064936Y-30495403D01*
X82064938Y-30495413D01*
X82126094Y-30723655D01*
X82126096Y-30723659D01*
X82126097Y-30723663D01*
X82225965Y-30937829D01*
X82225965Y-30937830D01*
X82225967Y-30937834D01*
X82361501Y-31131395D01*
X82361506Y-31131402D01*
X82528597Y-31298493D01*
X82528603Y-31298498D01*
X82714158Y-31428425D01*
X82757783Y-31483002D01*
X82764977Y-31552500D01*
X82733454Y-31614855D01*
X82714158Y-31631575D01*
X82528597Y-31761505D01*
X82361505Y-31928597D01*
X82225965Y-32122169D01*
X82225964Y-32122171D01*
X82126098Y-32336335D01*
X82126094Y-32336344D01*
X82064938Y-32564586D01*
X82064936Y-32564596D01*
X82044341Y-32799999D01*
X82044341Y-32800000D01*
X82064936Y-33035403D01*
X82064938Y-33035413D01*
X82126094Y-33263655D01*
X82126096Y-33263659D01*
X82126097Y-33263663D01*
X82225965Y-33477829D01*
X82225965Y-33477830D01*
X82225967Y-33477834D01*
X82361501Y-33671395D01*
X82361506Y-33671402D01*
X82528597Y-33838493D01*
X82528603Y-33838498D01*
X82714158Y-33968425D01*
X82757783Y-34023002D01*
X82764977Y-34092500D01*
X82733454Y-34154855D01*
X82714158Y-34171575D01*
X82528597Y-34301505D01*
X82361505Y-34468597D01*
X82225965Y-34662169D01*
X82225964Y-34662171D01*
X82126098Y-34876335D01*
X82126094Y-34876344D01*
X82064938Y-35104586D01*
X82064936Y-35104596D01*
X82044341Y-35339999D01*
X82044341Y-35340000D01*
X82064936Y-35575403D01*
X82064938Y-35575413D01*
X82126094Y-35803655D01*
X82126096Y-35803659D01*
X82126097Y-35803663D01*
X82204315Y-35971401D01*
X82225965Y-36017830D01*
X82225967Y-36017834D01*
X82322038Y-36155037D01*
X82361501Y-36211396D01*
X82361506Y-36211402D01*
X82483818Y-36333714D01*
X82517303Y-36395037D01*
X82512319Y-36464729D01*
X82470447Y-36520662D01*
X82439471Y-36537577D01*
X82307912Y-36586646D01*
X82307906Y-36586649D01*
X82192812Y-36672809D01*
X82192809Y-36672812D01*
X82106649Y-36787906D01*
X82106645Y-36787913D01*
X82056403Y-36922620D01*
X82056401Y-36922627D01*
X82050000Y-36982155D01*
X82050000Y-37630000D01*
X82966314Y-37630000D01*
X82940507Y-37670156D01*
X82900000Y-37808111D01*
X82900000Y-37951889D01*
X82940507Y-38089844D01*
X82966314Y-38130000D01*
X82050000Y-38130000D01*
X82050000Y-38777844D01*
X82056401Y-38837372D01*
X82056403Y-38837379D01*
X82106645Y-38972086D01*
X82106649Y-38972093D01*
X82192809Y-39087187D01*
X82192812Y-39087190D01*
X82307906Y-39173350D01*
X82307913Y-39173354D01*
X82439470Y-39222421D01*
X82495403Y-39264292D01*
X82519821Y-39329756D01*
X82504970Y-39398029D01*
X82483819Y-39426284D01*
X82361503Y-39548600D01*
X82225965Y-39742169D01*
X82225964Y-39742171D01*
X82126098Y-39956335D01*
X82126094Y-39956344D01*
X82064938Y-40184586D01*
X82064936Y-40184596D01*
X82044341Y-40419999D01*
X82044341Y-40420000D01*
X82064936Y-40655403D01*
X82064938Y-40655413D01*
X82126094Y-40883655D01*
X82126096Y-40883659D01*
X82126097Y-40883663D01*
X82204312Y-41051395D01*
X82225965Y-41097830D01*
X82225967Y-41097834D01*
X82361501Y-41291395D01*
X82361506Y-41291402D01*
X82528597Y-41458493D01*
X82528603Y-41458498D01*
X82714158Y-41588425D01*
X82757783Y-41643002D01*
X82764977Y-41712500D01*
X82733454Y-41774855D01*
X82714158Y-41791575D01*
X82528597Y-41921505D01*
X82361505Y-42088597D01*
X82225965Y-42282169D01*
X82225964Y-42282171D01*
X82126098Y-42496335D01*
X82126094Y-42496344D01*
X82064938Y-42724586D01*
X82064936Y-42724596D01*
X82044341Y-42959999D01*
X82044341Y-42960000D01*
X82064936Y-43195403D01*
X82064938Y-43195413D01*
X82126094Y-43423655D01*
X82126096Y-43423659D01*
X82126097Y-43423663D01*
X82204312Y-43591395D01*
X82225965Y-43637830D01*
X82225967Y-43637834D01*
X82361501Y-43831395D01*
X82361506Y-43831402D01*
X82528597Y-43998493D01*
X82528603Y-43998498D01*
X82714158Y-44128425D01*
X82757783Y-44183002D01*
X82764977Y-44252500D01*
X82733454Y-44314855D01*
X82714158Y-44331575D01*
X82528597Y-44461505D01*
X82361505Y-44628597D01*
X82225965Y-44822169D01*
X82225964Y-44822171D01*
X82126098Y-45036335D01*
X82126094Y-45036344D01*
X82064938Y-45264586D01*
X82064936Y-45264596D01*
X82044341Y-45499999D01*
X82044341Y-45500000D01*
X82064936Y-45735403D01*
X82064938Y-45735413D01*
X82126094Y-45963655D01*
X82126096Y-45963659D01*
X82126097Y-45963663D01*
X82204312Y-46131395D01*
X82225965Y-46177830D01*
X82225967Y-46177834D01*
X82361501Y-46371395D01*
X82361506Y-46371402D01*
X82528597Y-46538493D01*
X82528603Y-46538498D01*
X82714158Y-46668425D01*
X82757783Y-46723002D01*
X82764977Y-46792500D01*
X82733454Y-46854855D01*
X82714158Y-46871575D01*
X82528597Y-47001505D01*
X82361505Y-47168597D01*
X82225965Y-47362169D01*
X82225964Y-47362171D01*
X82126098Y-47576335D01*
X82126094Y-47576344D01*
X82064938Y-47804586D01*
X82064936Y-47804596D01*
X82044341Y-48039999D01*
X82044341Y-48040000D01*
X82064936Y-48275403D01*
X82064938Y-48275413D01*
X82126094Y-48503655D01*
X82126096Y-48503659D01*
X82126097Y-48503663D01*
X82204312Y-48671395D01*
X82225965Y-48717830D01*
X82225967Y-48717834D01*
X82361501Y-48911395D01*
X82361506Y-48911402D01*
X82528597Y-49078493D01*
X82528603Y-49078498D01*
X82714158Y-49208425D01*
X82757783Y-49263002D01*
X82764977Y-49332500D01*
X82733454Y-49394855D01*
X82714158Y-49411575D01*
X82528597Y-49541505D01*
X82361505Y-49708597D01*
X82225965Y-49902169D01*
X82225964Y-49902171D01*
X82126098Y-50116335D01*
X82126094Y-50116344D01*
X82064938Y-50344586D01*
X82064936Y-50344596D01*
X82044341Y-50579999D01*
X82044341Y-50580000D01*
X82064936Y-50815403D01*
X82064938Y-50815413D01*
X82126094Y-51043655D01*
X82126096Y-51043659D01*
X82126097Y-51043663D01*
X82204315Y-51211401D01*
X82225965Y-51257830D01*
X82225967Y-51257834D01*
X82310458Y-51378498D01*
X82347721Y-51431716D01*
X82361501Y-51451395D01*
X82361506Y-51451402D01*
X82528597Y-51618493D01*
X82528603Y-51618498D01*
X82714158Y-51748425D01*
X82757783Y-51803002D01*
X82764977Y-51872500D01*
X82733454Y-51934855D01*
X82714158Y-51951575D01*
X82528597Y-52081505D01*
X82361505Y-52248597D01*
X82225965Y-52442169D01*
X82225964Y-52442171D01*
X82126098Y-52656335D01*
X82126094Y-52656344D01*
X82064938Y-52884586D01*
X82064936Y-52884596D01*
X82044341Y-53119999D01*
X82044341Y-53120000D01*
X82064936Y-53355403D01*
X82064938Y-53355413D01*
X82126094Y-53583655D01*
X82126096Y-53583659D01*
X82126097Y-53583663D01*
X82204312Y-53751395D01*
X82225965Y-53797830D01*
X82225967Y-53797834D01*
X82361501Y-53991395D01*
X82361506Y-53991402D01*
X82528597Y-54158493D01*
X82528603Y-54158498D01*
X82714158Y-54288425D01*
X82757783Y-54343002D01*
X82764977Y-54412500D01*
X82733454Y-54474855D01*
X82714158Y-54491575D01*
X82528597Y-54621505D01*
X82361505Y-54788597D01*
X82225965Y-54982169D01*
X82225964Y-54982171D01*
X82126098Y-55196335D01*
X82126094Y-55196344D01*
X82064938Y-55424586D01*
X82064936Y-55424596D01*
X82044341Y-55659999D01*
X82044341Y-55660000D01*
X82064936Y-55895403D01*
X82064938Y-55895413D01*
X82126094Y-56123655D01*
X82126096Y-56123659D01*
X82126097Y-56123663D01*
X82225965Y-56337829D01*
X82225965Y-56337830D01*
X82225967Y-56337834D01*
X82361501Y-56531395D01*
X82361506Y-56531402D01*
X82528597Y-56698493D01*
X82528603Y-56698498D01*
X82714158Y-56828425D01*
X82757783Y-56883002D01*
X82764977Y-56952500D01*
X82733454Y-57014855D01*
X82714158Y-57031575D01*
X82528597Y-57161505D01*
X82361505Y-57328597D01*
X82225965Y-57522169D01*
X82225964Y-57522171D01*
X82126098Y-57736335D01*
X82126094Y-57736344D01*
X82064938Y-57964586D01*
X82064936Y-57964596D01*
X82044341Y-58199999D01*
X82044341Y-58200000D01*
X82064936Y-58435403D01*
X82064938Y-58435413D01*
X82126094Y-58663655D01*
X82126096Y-58663659D01*
X82126097Y-58663663D01*
X82166356Y-58749998D01*
X82225965Y-58877830D01*
X82225967Y-58877834D01*
X82361501Y-59071395D01*
X82361506Y-59071402D01*
X82528597Y-59238493D01*
X82528603Y-59238498D01*
X82714158Y-59368425D01*
X82757783Y-59423002D01*
X82764977Y-59492500D01*
X82733454Y-59554855D01*
X82714158Y-59571575D01*
X82528597Y-59701505D01*
X82361505Y-59868597D01*
X82225965Y-60062169D01*
X82225964Y-60062171D01*
X82126098Y-60276335D01*
X82126094Y-60276344D01*
X82064938Y-60504586D01*
X82064936Y-60504596D01*
X82044341Y-60739999D01*
X82044341Y-60740000D01*
X82064936Y-60975403D01*
X82064938Y-60975413D01*
X82126094Y-61203655D01*
X82126096Y-61203659D01*
X82126097Y-61203663D01*
X82225964Y-61417829D01*
X82225965Y-61417830D01*
X82225967Y-61417834D01*
X82361501Y-61611395D01*
X82361506Y-61611402D01*
X82528597Y-61778493D01*
X82528603Y-61778498D01*
X82714158Y-61908425D01*
X82757783Y-61963002D01*
X82764977Y-62032500D01*
X82733454Y-62094855D01*
X82714158Y-62111575D01*
X82528597Y-62241505D01*
X82361505Y-62408597D01*
X82225965Y-62602169D01*
X82225964Y-62602171D01*
X82126098Y-62816335D01*
X82126094Y-62816344D01*
X82064938Y-63044586D01*
X82064936Y-63044596D01*
X82044341Y-63279999D01*
X82044341Y-63280000D01*
X82064936Y-63515403D01*
X82064938Y-63515413D01*
X82126094Y-63743655D01*
X82126096Y-63743659D01*
X82126097Y-63743663D01*
X82204473Y-63911740D01*
X82225965Y-63957830D01*
X82225967Y-63957834D01*
X82361501Y-64151395D01*
X82361506Y-64151402D01*
X82528597Y-64318493D01*
X82528603Y-64318498D01*
X82714158Y-64448425D01*
X82757783Y-64503002D01*
X82764977Y-64572500D01*
X82733454Y-64634855D01*
X82714158Y-64651575D01*
X82528597Y-64781505D01*
X82361505Y-64948597D01*
X82225965Y-65142169D01*
X82225964Y-65142171D01*
X82126098Y-65356335D01*
X82126094Y-65356344D01*
X82064938Y-65584586D01*
X82064936Y-65584596D01*
X82044341Y-65819999D01*
X82044341Y-65820000D01*
X82064936Y-66055403D01*
X82064938Y-66055413D01*
X82126094Y-66283655D01*
X82126096Y-66283659D01*
X82126097Y-66283663D01*
X82225964Y-66497830D01*
X82225965Y-66497830D01*
X82225967Y-66497834D01*
X82361501Y-66691395D01*
X82361506Y-66691402D01*
X82528597Y-66858493D01*
X82528603Y-66858498D01*
X82714158Y-66988425D01*
X82757783Y-67043002D01*
X82764977Y-67112500D01*
X82733454Y-67174855D01*
X82714158Y-67191575D01*
X82528597Y-67321505D01*
X82361505Y-67488597D01*
X82225965Y-67682169D01*
X82225964Y-67682171D01*
X82126098Y-67896335D01*
X82126094Y-67896344D01*
X82064938Y-68124586D01*
X82064936Y-68124596D01*
X82044341Y-68359999D01*
X82044341Y-68360000D01*
X81700500Y-68360000D01*
X81700500Y-28724500D01*
X81720185Y-28657461D01*
X81772989Y-28611706D01*
X81824500Y-28600500D01*
X105275500Y-28600500D01*
X105342539Y-28620185D01*
G37*
%TD.AperFunction*%
%TD*%
M02*
