M48
; DRILL file {KiCad 7.0.5-0} date 2023 July 31, Monday 21:18:30
; FORMAT={-:-/ absolute / metric / decimal}
; #@! TF.CreationDate,2023-07-31T21:18:30+02:00
; #@! TF.GenerationSoftware,Kicad,Pcbnew,7.0.5-0
; #@! TF.FileFunction,Plated,1,2,PTH
FMAT,2
METRIC
; #@! TA.AperFunction,Plated,PTH,ViaDrill
T1C0.400
; #@! TA.AperFunction,Plated,PTH,ComponentDrill
T2C1.000
%
G90
G05
T1
X87.5Y-61.6
X87.6Y-63.6
X91.335Y-59.784
X91.8Y-64.1
X94.8Y-65.0
X95.698Y-51.8
X98.001Y-50.7
T2
X83.4Y-30.26
X83.4Y-32.8
X83.4Y-35.34
X83.4Y-37.88
X83.4Y-40.42
X83.4Y-42.96
X83.4Y-45.5
X83.4Y-48.04
X83.4Y-50.58
X83.4Y-53.12
X83.4Y-55.66
X83.4Y-58.2
X83.4Y-60.74
X83.4Y-63.28
X83.4Y-65.82
X83.4Y-68.36
X92.26Y-68.385
X94.8Y-68.385
X100.2Y-35.1
X100.2Y-37.64
X100.2Y-40.18
X100.2Y-42.72
X100.2Y-45.26
X100.2Y-47.8
X100.2Y-50.34
X100.2Y-52.88
X103.7Y-42.96
X103.7Y-45.5
X103.7Y-48.04
X103.7Y-50.58
X103.7Y-53.12
X103.7Y-55.66
X103.7Y-58.2
X103.7Y-60.74
X103.7Y-63.28
X103.7Y-65.82
X103.7Y-68.36
T0
M30
