%TF.GenerationSoftware,KiCad,Pcbnew,8.0.4*%
%TF.CreationDate,2024-08-29T19:37:47+02:00*%
%TF.ProjectId,wireless-wizard-wand,77697265-6c65-4737-932d-77697a617264,rev?*%
%TF.SameCoordinates,Original*%
%TF.FileFunction,Soldermask,Bot*%
%TF.FilePolarity,Negative*%
%FSLAX46Y46*%
G04 Gerber Fmt 4.6, Leading zero omitted, Abs format (unit mm)*
G04 Created by KiCad (PCBNEW 8.0.4) date 2024-08-29 19:37:47*
%MOMM*%
%LPD*%
G01*
G04 APERTURE LIST*
G04 Aperture macros list*
%AMFreePoly0*
4,1,25,-0.850000,0.425000,-0.829199,0.556332,-0.768832,0.674809,-0.674809,0.768832,-0.556332,0.829199,-0.425000,0.850000,0.425000,0.850000,0.556332,0.829199,0.674809,0.768832,0.768832,0.674809,0.829199,0.556332,0.850000,0.425000,0.850000,-0.425000,0.829199,-0.556332,0.768832,-0.674809,0.674809,-0.768832,0.556332,-0.829199,0.425000,-0.850000,-0.425000,-0.850000,-0.556332,-0.829199,
-0.674809,-0.768832,-0.768832,-0.674809,-0.829199,-0.556332,-0.850000,-0.425000,-0.850000,0.425000,-0.850000,0.425000,$1*%
G04 Aperture macros list end*
%ADD10R,1.700000X1.700000*%
%ADD11O,1.700000X1.700000*%
%ADD12C,1.700000*%
%ADD13FreePoly0,270.000000*%
%ADD14C,1.500000*%
G04 APERTURE END LIST*
D10*
%TO.C,J5*%
X103251000Y-30480000D03*
D11*
X100711000Y-30480000D03*
X98171000Y-30480000D03*
X95631000Y-30480000D03*
%TD*%
D12*
%TO.C,J2*%
X103700000Y-68360000D03*
D11*
X103700000Y-65820000D03*
X103700000Y-63280000D03*
X103700000Y-60740000D03*
X103700000Y-58200000D03*
X103700000Y-55660000D03*
X103700000Y-53120000D03*
X103700000Y-50580000D03*
X103700000Y-48040000D03*
X103700000Y-45500000D03*
X103700000Y-42960000D03*
%TD*%
D12*
%TO.C,J4*%
X100200000Y-35100000D03*
D10*
X100200000Y-37640000D03*
D11*
X100200000Y-40180000D03*
X100200000Y-42720000D03*
X100200000Y-45260000D03*
X100200000Y-47800000D03*
X100200000Y-50340000D03*
X100200000Y-52880000D03*
%TD*%
D10*
%TO.C,J6*%
X103759000Y-39243000D03*
D11*
X103759000Y-36703000D03*
X103759000Y-34163000D03*
%TD*%
D12*
%TO.C,J1*%
X83400000Y-30260000D03*
D11*
X83400000Y-32800000D03*
X83400000Y-35340000D03*
D10*
X83400000Y-37880000D03*
D11*
X83400000Y-40420000D03*
X83400000Y-42960000D03*
X83400000Y-45500000D03*
X83400000Y-48040000D03*
X83400000Y-50580000D03*
X83400000Y-53120000D03*
X83400000Y-55660000D03*
X83400000Y-58200000D03*
X83400000Y-60740000D03*
X83400000Y-63280000D03*
X83400000Y-65820000D03*
X83400000Y-68360000D03*
%TD*%
D13*
%TO.C,J3*%
X94800000Y-68385000D03*
X92260000Y-68385000D03*
%TD*%
D14*
%TO.C,TP1*%
X88000000Y-68600000D03*
%TD*%
%TO.C,TP2*%
X92600000Y-58700000D03*
%TD*%
M02*
