M48
; DRILL file {KiCad 8.0.4} date 2024-08-29T19:37:47+0200
; FORMAT={-:-/ absolute / inch / decimal}
; #@! TF.CreationDate,2024-08-29T19:37:47+02:00
; #@! TF.GenerationSoftware,Kicad,Pcbnew,8.0.4
; #@! TF.FileFunction,Plated,1,2,PTH
FMAT,2
INCH
; #@! TA.AperFunction,Plated,PTH,ViaDrill
T1C0.0157
; #@! TA.AperFunction,Plated,PTH,ComponentDrill
T2C0.0394
%
G90
G05
T1
X3.4449Y-2.4252
X3.4488Y-2.5039
X3.5959Y-2.3537
X3.6142Y-2.5236
X3.725Y-1.965
X3.7323Y-2.5591
X3.7677Y-2.0394
X3.8Y-1.43
X3.8583Y-1.9961
X3.985Y-2.265
T2
X3.2835Y-1.1913
X3.2835Y-1.2913
X3.2835Y-1.3913
X3.2835Y-1.4913
X3.2835Y-1.5913
X3.2835Y-1.6913
X3.2835Y-1.7913
X3.2835Y-1.8913
X3.2835Y-1.9913
X3.2835Y-2.0913
X3.2835Y-2.1913
X3.2835Y-2.2913
X3.2835Y-2.3913
X3.2835Y-2.4913
X3.2835Y-2.5913
X3.2835Y-2.6913
X3.6323Y-2.6923
X3.7323Y-2.6923
X3.765Y-1.2
X3.865Y-1.2
X3.9449Y-1.3819
X3.9449Y-1.4819
X3.9449Y-1.5819
X3.9449Y-1.6819
X3.9449Y-1.7819
X3.9449Y-1.8819
X3.9449Y-1.9819
X3.9449Y-2.0819
X3.965Y-1.2
X4.065Y-1.2
X4.0827Y-1.6913
X4.0827Y-1.7913
X4.0827Y-1.8913
X4.0827Y-1.9913
X4.0827Y-2.0913
X4.0827Y-2.1913
X4.0827Y-2.2913
X4.0827Y-2.3913
X4.0827Y-2.4913
X4.0827Y-2.5913
X4.0827Y-2.6913
X4.085Y-1.345
X4.085Y-1.445
X4.085Y-1.545
M30
