%TF.GenerationSoftware,KiCad,Pcbnew,8.0.4*%
%TF.CreationDate,2024-08-29T19:37:46+02:00*%
%TF.ProjectId,wireless-wizard-wand,77697265-6c65-4737-932d-77697a617264,rev?*%
%TF.SameCoordinates,Original*%
%TF.FileFunction,Soldermask,Top*%
%TF.FilePolarity,Negative*%
%FSLAX46Y46*%
G04 Gerber Fmt 4.6, Leading zero omitted, Abs format (unit mm)*
G04 Created by KiCad (PCBNEW 8.0.4) date 2024-08-29 19:37:46*
%MOMM*%
%LPD*%
G01*
G04 APERTURE LIST*
G04 Aperture macros list*
%AMRoundRect*
0 Rectangle with rounded corners*
0 $1 Rounding radius*
0 $2 $3 $4 $5 $6 $7 $8 $9 X,Y pos of 4 corners*
0 Add a 4 corners polygon primitive as box body*
4,1,4,$2,$3,$4,$5,$6,$7,$8,$9,$2,$3,0*
0 Add four circle primitives for the rounded corners*
1,1,$1+$1,$2,$3*
1,1,$1+$1,$4,$5*
1,1,$1+$1,$6,$7*
1,1,$1+$1,$8,$9*
0 Add four rect primitives between the rounded corners*
20,1,$1+$1,$2,$3,$4,$5,0*
20,1,$1+$1,$4,$5,$6,$7,0*
20,1,$1+$1,$6,$7,$8,$9,0*
20,1,$1+$1,$8,$9,$2,$3,0*%
%AMFreePoly0*
4,1,25,-0.850000,0.425000,-0.829199,0.556332,-0.768832,0.674809,-0.674809,0.768832,-0.556332,0.829199,-0.425000,0.850000,0.425000,0.850000,0.556332,0.829199,0.674809,0.768832,0.768832,0.674809,0.829199,0.556332,0.850000,0.425000,0.850000,-0.425000,0.829199,-0.556332,0.768832,-0.674809,0.674809,-0.768832,0.556332,-0.829199,0.425000,-0.850000,-0.425000,-0.850000,-0.556332,-0.829199,
-0.674809,-0.768832,-0.768832,-0.674809,-0.829199,-0.556332,-0.850000,-0.425000,-0.850000,0.425000,-0.850000,0.425000,$1*%
%AMFreePoly1*
4,1,19,0.500000,-0.750000,0.000000,-0.750000,0.000000,-0.744911,-0.071157,-0.744911,-0.207708,-0.704816,-0.327430,-0.627875,-0.420627,-0.520320,-0.479746,-0.390866,-0.500000,-0.250000,-0.500000,0.250000,-0.479746,0.390866,-0.420627,0.520320,-0.327430,0.627875,-0.207708,0.704816,-0.071157,0.744911,0.000000,0.744911,0.000000,0.750000,0.500000,0.750000,0.500000,-0.750000,0.500000,-0.750000,
$1*%
%AMFreePoly2*
4,1,19,0.000000,0.744911,0.071157,0.744911,0.207708,0.704816,0.327430,0.627875,0.420627,0.520320,0.479746,0.390866,0.500000,0.250000,0.500000,-0.250000,0.479746,-0.390866,0.420627,-0.520320,0.327430,-0.627875,0.207708,-0.704816,0.071157,-0.744911,0.000000,-0.744911,0.000000,-0.750000,-0.500000,-0.750000,-0.500000,0.750000,0.000000,0.750000,0.000000,0.744911,0.000000,0.744911,
$1*%
G04 Aperture macros list end*
%ADD10R,1.700000X1.700000*%
%ADD11O,1.700000X1.700000*%
%ADD12RoundRect,0.250000X-0.450000X0.262500X-0.450000X-0.262500X0.450000X-0.262500X0.450000X0.262500X0*%
%ADD13C,1.700000*%
%ADD14RoundRect,0.250000X0.250000X0.475000X-0.250000X0.475000X-0.250000X-0.475000X0.250000X-0.475000X0*%
%ADD15R,1.400000X1.050000*%
%ADD16FreePoly0,270.000000*%
%ADD17R,0.950000X0.350000*%
%ADD18R,0.350000X0.950000*%
%ADD19RoundRect,0.250000X0.450000X-0.262500X0.450000X0.262500X-0.450000X0.262500X-0.450000X-0.262500X0*%
%ADD20FreePoly1,90.000000*%
%ADD21FreePoly2,90.000000*%
G04 APERTURE END LIST*
D10*
%TO.C,J5*%
X103251000Y-30480000D03*
D11*
X100711000Y-30480000D03*
X98171000Y-30480000D03*
X95631000Y-30480000D03*
%TD*%
D12*
%TO.C,R1*%
X95000000Y-56600000D03*
X95000000Y-58425000D03*
%TD*%
D13*
%TO.C,J2*%
X103700000Y-68360000D03*
D11*
X103700000Y-65820000D03*
X103700000Y-63280000D03*
X103700000Y-60740000D03*
X103700000Y-58200000D03*
X103700000Y-55660000D03*
X103700000Y-53120000D03*
X103700000Y-50580000D03*
X103700000Y-48040000D03*
X103700000Y-45500000D03*
X103700000Y-42960000D03*
%TD*%
D13*
%TO.C,J4*%
X100200000Y-35100000D03*
D10*
X100200000Y-37640000D03*
D11*
X100200000Y-40180000D03*
X100200000Y-42720000D03*
X100200000Y-45260000D03*
X100200000Y-47800000D03*
X100200000Y-50340000D03*
X100200000Y-52880000D03*
%TD*%
D14*
%TO.C,C1*%
X90500000Y-61400000D03*
X88600000Y-61400000D03*
%TD*%
%TO.C,C2*%
X90500000Y-63800000D03*
X88600000Y-63800000D03*
%TD*%
D10*
%TO.C,J6*%
X103759000Y-39243000D03*
D11*
X103759000Y-36703000D03*
X103759000Y-34163000D03*
%TD*%
D15*
%TO.C,S1*%
X91186000Y-30988000D03*
X87586000Y-30988000D03*
X91186000Y-29538000D03*
X87586000Y-29538000D03*
%TD*%
D13*
%TO.C,J1*%
X83400000Y-30260000D03*
D11*
X83400000Y-32800000D03*
X83400000Y-35340000D03*
D10*
X83400000Y-37880000D03*
D11*
X83400000Y-40420000D03*
X83400000Y-42960000D03*
X83400000Y-45500000D03*
X83400000Y-48040000D03*
X83400000Y-50580000D03*
X83400000Y-53120000D03*
X83400000Y-55660000D03*
X83400000Y-58200000D03*
X83400000Y-60740000D03*
X83400000Y-63280000D03*
X83400000Y-65820000D03*
X83400000Y-68360000D03*
%TD*%
D16*
%TO.C,J3*%
X94800000Y-68385000D03*
X92260000Y-68385000D03*
%TD*%
D17*
%TO.C,U2*%
X92100000Y-61950000D03*
X92100000Y-62600000D03*
X92100000Y-63250000D03*
D18*
X92850000Y-64000000D03*
X93500000Y-64000000D03*
X94150000Y-64000000D03*
D17*
X94900000Y-63250000D03*
X94900000Y-62600000D03*
X94900000Y-61950000D03*
D18*
X94150000Y-61200000D03*
X93500000Y-61200000D03*
X92850000Y-61200000D03*
%TD*%
D19*
%TO.C,R2*%
X97700000Y-63625000D03*
X97700000Y-61800000D03*
%TD*%
D20*
%TO.C,JP1*%
X86400000Y-58900000D03*
D21*
X86400000Y-57600000D03*
%TD*%
M02*
