%TF.GenerationSoftware,KiCad,Pcbnew,8.0.4*%
%TF.CreationDate,2024-08-29T19:37:46+02:00*%
%TF.ProjectId,wireless-wizard-wand,77697265-6c65-4737-932d-77697a617264,rev?*%
%TF.SameCoordinates,Original*%
%TF.FileFunction,Legend,Top*%
%TF.FilePolarity,Positive*%
%FSLAX46Y46*%
G04 Gerber Fmt 4.6, Leading zero omitted, Abs format (unit mm)*
G04 Created by KiCad (PCBNEW 8.0.4) date 2024-08-29 19:37:46*
%MOMM*%
%LPD*%
G01*
G04 APERTURE LIST*
G04 Aperture macros list*
%AMRoundRect*
0 Rectangle with rounded corners*
0 $1 Rounding radius*
0 $2 $3 $4 $5 $6 $7 $8 $9 X,Y pos of 4 corners*
0 Add a 4 corners polygon primitive as box body*
4,1,4,$2,$3,$4,$5,$6,$7,$8,$9,$2,$3,0*
0 Add four circle primitives for the rounded corners*
1,1,$1+$1,$2,$3*
1,1,$1+$1,$4,$5*
1,1,$1+$1,$6,$7*
1,1,$1+$1,$8,$9*
0 Add four rect primitives between the rounded corners*
20,1,$1+$1,$2,$3,$4,$5,0*
20,1,$1+$1,$4,$5,$6,$7,0*
20,1,$1+$1,$6,$7,$8,$9,0*
20,1,$1+$1,$8,$9,$2,$3,0*%
%AMFreePoly0*
4,1,25,-0.850000,0.425000,-0.829199,0.556332,-0.768832,0.674809,-0.674809,0.768832,-0.556332,0.829199,-0.425000,0.850000,0.425000,0.850000,0.556332,0.829199,0.674809,0.768832,0.768832,0.674809,0.829199,0.556332,0.850000,0.425000,0.850000,-0.425000,0.829199,-0.556332,0.768832,-0.674809,0.674809,-0.768832,0.556332,-0.829199,0.425000,-0.850000,-0.425000,-0.850000,-0.556332,-0.829199,
-0.674809,-0.768832,-0.768832,-0.674809,-0.829199,-0.556332,-0.850000,-0.425000,-0.850000,0.425000,-0.850000,0.425000,$1*%
%AMFreePoly1*
4,1,19,0.500000,-0.750000,0.000000,-0.750000,0.000000,-0.744911,-0.071157,-0.744911,-0.207708,-0.704816,-0.327430,-0.627875,-0.420627,-0.520320,-0.479746,-0.390866,-0.500000,-0.250000,-0.500000,0.250000,-0.479746,0.390866,-0.420627,0.520320,-0.327430,0.627875,-0.207708,0.704816,-0.071157,0.744911,0.000000,0.744911,0.000000,0.750000,0.500000,0.750000,0.500000,-0.750000,0.500000,-0.750000,
$1*%
%AMFreePoly2*
4,1,19,0.000000,0.744911,0.071157,0.744911,0.207708,0.704816,0.327430,0.627875,0.420627,0.520320,0.479746,0.390866,0.500000,0.250000,0.500000,-0.250000,0.479746,-0.390866,0.420627,-0.520320,0.327430,-0.627875,0.207708,-0.704816,0.071157,-0.744911,0.000000,-0.744911,0.000000,-0.750000,-0.500000,-0.750000,-0.500000,0.750000,0.000000,0.750000,0.000000,0.744911,0.000000,0.744911,
$1*%
G04 Aperture macros list end*
%ADD10C,0.125000*%
%ADD11C,0.175000*%
%ADD12C,0.150000*%
%ADD13C,0.200000*%
%ADD14C,0.120000*%
%ADD15C,0.100000*%
%ADD16C,0.325000*%
%ADD17R,1.700000X1.700000*%
%ADD18O,1.700000X1.700000*%
%ADD19RoundRect,0.250000X-0.450000X0.262500X-0.450000X-0.262500X0.450000X-0.262500X0.450000X0.262500X0*%
%ADD20C,1.700000*%
%ADD21RoundRect,0.250000X0.250000X0.475000X-0.250000X0.475000X-0.250000X-0.475000X0.250000X-0.475000X0*%
%ADD22R,1.400000X1.050000*%
%ADD23FreePoly0,270.000000*%
%ADD24R,0.950000X0.350000*%
%ADD25R,0.350000X0.950000*%
%ADD26RoundRect,0.250000X0.450000X-0.262500X0.450000X0.262500X-0.450000X0.262500X-0.450000X-0.262500X0*%
%ADD27FreePoly1,90.000000*%
%ADD28FreePoly2,90.000000*%
G04 APERTURE END LIST*
D10*
X87728093Y-36844119D02*
X87966188Y-37844119D01*
X87966188Y-37844119D02*
X88156664Y-37129833D01*
X88156664Y-37129833D02*
X88347140Y-37844119D01*
X88347140Y-37844119D02*
X88585236Y-36844119D01*
X88870950Y-36844119D02*
X89109045Y-37844119D01*
X89109045Y-37844119D02*
X89299521Y-37129833D01*
X89299521Y-37129833D02*
X89489997Y-37844119D01*
X89489997Y-37844119D02*
X89728093Y-36844119D01*
X90013807Y-36844119D02*
X90251902Y-37844119D01*
X90251902Y-37844119D02*
X90442378Y-37129833D01*
X90442378Y-37129833D02*
X90632854Y-37844119D01*
X90632854Y-37844119D02*
X90870950Y-36844119D01*
X91918569Y-37177452D02*
X92156664Y-37844119D01*
X92156664Y-37844119D02*
X92394759Y-37177452D01*
X92728093Y-36939357D02*
X92775712Y-36891738D01*
X92775712Y-36891738D02*
X92870950Y-36844119D01*
X92870950Y-36844119D02*
X93109045Y-36844119D01*
X93109045Y-36844119D02*
X93204283Y-36891738D01*
X93204283Y-36891738D02*
X93251902Y-36939357D01*
X93251902Y-36939357D02*
X93299521Y-37034595D01*
X93299521Y-37034595D02*
X93299521Y-37129833D01*
X93299521Y-37129833D02*
X93251902Y-37272690D01*
X93251902Y-37272690D02*
X92680474Y-37844119D01*
X92680474Y-37844119D02*
X93299521Y-37844119D01*
D11*
X98605233Y-46018202D02*
X97905233Y-46018202D01*
X98605233Y-45684869D02*
X97905233Y-45684869D01*
X97905233Y-45684869D02*
X98405233Y-45451536D01*
X98405233Y-45451536D02*
X97905233Y-45218202D01*
X97905233Y-45218202D02*
X98605233Y-45218202D01*
X97905233Y-44884869D02*
X98471900Y-44884869D01*
X98471900Y-44884869D02*
X98538566Y-44851536D01*
X98538566Y-44851536D02*
X98571900Y-44818202D01*
X98571900Y-44818202D02*
X98605233Y-44751536D01*
X98605233Y-44751536D02*
X98605233Y-44618202D01*
X98605233Y-44618202D02*
X98571900Y-44551536D01*
X98571900Y-44551536D02*
X98538566Y-44518202D01*
X98538566Y-44518202D02*
X98471900Y-44484869D01*
X98471900Y-44484869D02*
X97905233Y-44484869D01*
D12*
X96466779Y-68919819D02*
X96466779Y-67919819D01*
X96466779Y-67919819D02*
X96800112Y-68634104D01*
X96800112Y-68634104D02*
X97133445Y-67919819D01*
X97133445Y-67919819D02*
X97133445Y-68919819D01*
X97609636Y-68538866D02*
X98371541Y-68538866D01*
D13*
X91069673Y-66467219D02*
X91069673Y-65467219D01*
X91069673Y-65943409D02*
X91641101Y-65943409D01*
X91641101Y-66467219D02*
X91641101Y-65467219D01*
X92545863Y-66467219D02*
X92545863Y-65943409D01*
X92545863Y-65943409D02*
X92498244Y-65848171D01*
X92498244Y-65848171D02*
X92403006Y-65800552D01*
X92403006Y-65800552D02*
X92212530Y-65800552D01*
X92212530Y-65800552D02*
X92117292Y-65848171D01*
X92545863Y-66419600D02*
X92450625Y-66467219D01*
X92450625Y-66467219D02*
X92212530Y-66467219D01*
X92212530Y-66467219D02*
X92117292Y-66419600D01*
X92117292Y-66419600D02*
X92069673Y-66324361D01*
X92069673Y-66324361D02*
X92069673Y-66229123D01*
X92069673Y-66229123D02*
X92117292Y-66133885D01*
X92117292Y-66133885D02*
X92212530Y-66086266D01*
X92212530Y-66086266D02*
X92450625Y-66086266D01*
X92450625Y-66086266D02*
X92545863Y-66038647D01*
X93022054Y-65800552D02*
X93022054Y-66800552D01*
X93022054Y-65848171D02*
X93117292Y-65800552D01*
X93117292Y-65800552D02*
X93307768Y-65800552D01*
X93307768Y-65800552D02*
X93403006Y-65848171D01*
X93403006Y-65848171D02*
X93450625Y-65895790D01*
X93450625Y-65895790D02*
X93498244Y-65991028D01*
X93498244Y-65991028D02*
X93498244Y-66276742D01*
X93498244Y-66276742D02*
X93450625Y-66371980D01*
X93450625Y-66371980D02*
X93403006Y-66419600D01*
X93403006Y-66419600D02*
X93307768Y-66467219D01*
X93307768Y-66467219D02*
X93117292Y-66467219D01*
X93117292Y-66467219D02*
X93022054Y-66419600D01*
X93783959Y-65800552D02*
X94164911Y-65800552D01*
X93926816Y-65467219D02*
X93926816Y-66324361D01*
X93926816Y-66324361D02*
X93974435Y-66419600D01*
X93974435Y-66419600D02*
X94069673Y-66467219D01*
X94069673Y-66467219D02*
X94164911Y-66467219D01*
X94498245Y-66467219D02*
X94498245Y-65800552D01*
X94498245Y-65467219D02*
X94450626Y-65514838D01*
X94450626Y-65514838D02*
X94498245Y-65562457D01*
X94498245Y-65562457D02*
X94545864Y-65514838D01*
X94545864Y-65514838D02*
X94498245Y-65467219D01*
X94498245Y-65467219D02*
X94498245Y-65562457D01*
X95403006Y-66419600D02*
X95307768Y-66467219D01*
X95307768Y-66467219D02*
X95117292Y-66467219D01*
X95117292Y-66467219D02*
X95022054Y-66419600D01*
X95022054Y-66419600D02*
X94974435Y-66371980D01*
X94974435Y-66371980D02*
X94926816Y-66276742D01*
X94926816Y-66276742D02*
X94926816Y-65991028D01*
X94926816Y-65991028D02*
X94974435Y-65895790D01*
X94974435Y-65895790D02*
X95022054Y-65848171D01*
X95022054Y-65848171D02*
X95117292Y-65800552D01*
X95117292Y-65800552D02*
X95307768Y-65800552D01*
X95307768Y-65800552D02*
X95403006Y-65848171D01*
X95783959Y-66419600D02*
X95879197Y-66467219D01*
X95879197Y-66467219D02*
X96069673Y-66467219D01*
X96069673Y-66467219D02*
X96164911Y-66419600D01*
X96164911Y-66419600D02*
X96212530Y-66324361D01*
X96212530Y-66324361D02*
X96212530Y-66276742D01*
X96212530Y-66276742D02*
X96164911Y-66181504D01*
X96164911Y-66181504D02*
X96069673Y-66133885D01*
X96069673Y-66133885D02*
X95926816Y-66133885D01*
X95926816Y-66133885D02*
X95831578Y-66086266D01*
X95831578Y-66086266D02*
X95783959Y-65991028D01*
X95783959Y-65991028D02*
X95783959Y-65943409D01*
X95783959Y-65943409D02*
X95831578Y-65848171D01*
X95831578Y-65848171D02*
X95926816Y-65800552D01*
X95926816Y-65800552D02*
X96069673Y-65800552D01*
X96069673Y-65800552D02*
X96164911Y-65848171D01*
D12*
X88836779Y-68869819D02*
X88836779Y-67869819D01*
X88836779Y-67869819D02*
X89170112Y-68584104D01*
X89170112Y-68584104D02*
X89503445Y-67869819D01*
X89503445Y-67869819D02*
X89503445Y-68869819D01*
X89979636Y-68488866D02*
X90741541Y-68488866D01*
X90360588Y-68869819D02*
X90360588Y-68107914D01*
X96633333Y-57854819D02*
X96300000Y-57378628D01*
X96061905Y-57854819D02*
X96061905Y-56854819D01*
X96061905Y-56854819D02*
X96442857Y-56854819D01*
X96442857Y-56854819D02*
X96538095Y-56902438D01*
X96538095Y-56902438D02*
X96585714Y-56950057D01*
X96585714Y-56950057D02*
X96633333Y-57045295D01*
X96633333Y-57045295D02*
X96633333Y-57188152D01*
X96633333Y-57188152D02*
X96585714Y-57283390D01*
X96585714Y-57283390D02*
X96538095Y-57331009D01*
X96538095Y-57331009D02*
X96442857Y-57378628D01*
X96442857Y-57378628D02*
X96061905Y-57378628D01*
X97585714Y-57854819D02*
X97014286Y-57854819D01*
X97300000Y-57854819D02*
X97300000Y-56854819D01*
X97300000Y-56854819D02*
X97204762Y-56997676D01*
X97204762Y-56997676D02*
X97109524Y-57092914D01*
X97109524Y-57092914D02*
X97014286Y-57140533D01*
X85933333Y-61859580D02*
X85885714Y-61907200D01*
X85885714Y-61907200D02*
X85742857Y-61954819D01*
X85742857Y-61954819D02*
X85647619Y-61954819D01*
X85647619Y-61954819D02*
X85504762Y-61907200D01*
X85504762Y-61907200D02*
X85409524Y-61811961D01*
X85409524Y-61811961D02*
X85361905Y-61716723D01*
X85361905Y-61716723D02*
X85314286Y-61526247D01*
X85314286Y-61526247D02*
X85314286Y-61383390D01*
X85314286Y-61383390D02*
X85361905Y-61192914D01*
X85361905Y-61192914D02*
X85409524Y-61097676D01*
X85409524Y-61097676D02*
X85504762Y-61002438D01*
X85504762Y-61002438D02*
X85647619Y-60954819D01*
X85647619Y-60954819D02*
X85742857Y-60954819D01*
X85742857Y-60954819D02*
X85885714Y-61002438D01*
X85885714Y-61002438D02*
X85933333Y-61050057D01*
X86885714Y-61954819D02*
X86314286Y-61954819D01*
X86600000Y-61954819D02*
X86600000Y-60954819D01*
X86600000Y-60954819D02*
X86504762Y-61097676D01*
X86504762Y-61097676D02*
X86409524Y-61192914D01*
X86409524Y-61192914D02*
X86314286Y-61240533D01*
X86033333Y-64059580D02*
X85985714Y-64107200D01*
X85985714Y-64107200D02*
X85842857Y-64154819D01*
X85842857Y-64154819D02*
X85747619Y-64154819D01*
X85747619Y-64154819D02*
X85604762Y-64107200D01*
X85604762Y-64107200D02*
X85509524Y-64011961D01*
X85509524Y-64011961D02*
X85461905Y-63916723D01*
X85461905Y-63916723D02*
X85414286Y-63726247D01*
X85414286Y-63726247D02*
X85414286Y-63583390D01*
X85414286Y-63583390D02*
X85461905Y-63392914D01*
X85461905Y-63392914D02*
X85509524Y-63297676D01*
X85509524Y-63297676D02*
X85604762Y-63202438D01*
X85604762Y-63202438D02*
X85747619Y-63154819D01*
X85747619Y-63154819D02*
X85842857Y-63154819D01*
X85842857Y-63154819D02*
X85985714Y-63202438D01*
X85985714Y-63202438D02*
X86033333Y-63250057D01*
X86414286Y-63250057D02*
X86461905Y-63202438D01*
X86461905Y-63202438D02*
X86557143Y-63154819D01*
X86557143Y-63154819D02*
X86795238Y-63154819D01*
X86795238Y-63154819D02*
X86890476Y-63202438D01*
X86890476Y-63202438D02*
X86938095Y-63250057D01*
X86938095Y-63250057D02*
X86985714Y-63345295D01*
X86985714Y-63345295D02*
X86985714Y-63440533D01*
X86985714Y-63440533D02*
X86938095Y-63583390D01*
X86938095Y-63583390D02*
X86366667Y-64154819D01*
X86366667Y-64154819D02*
X86985714Y-64154819D01*
D13*
X88624095Y-30667600D02*
X88766952Y-30715219D01*
X88766952Y-30715219D02*
X89005047Y-30715219D01*
X89005047Y-30715219D02*
X89100285Y-30667600D01*
X89100285Y-30667600D02*
X89147904Y-30619980D01*
X89147904Y-30619980D02*
X89195523Y-30524742D01*
X89195523Y-30524742D02*
X89195523Y-30429504D01*
X89195523Y-30429504D02*
X89147904Y-30334266D01*
X89147904Y-30334266D02*
X89100285Y-30286647D01*
X89100285Y-30286647D02*
X89005047Y-30239028D01*
X89005047Y-30239028D02*
X88814571Y-30191409D01*
X88814571Y-30191409D02*
X88719333Y-30143790D01*
X88719333Y-30143790D02*
X88671714Y-30096171D01*
X88671714Y-30096171D02*
X88624095Y-30000933D01*
X88624095Y-30000933D02*
X88624095Y-29905695D01*
X88624095Y-29905695D02*
X88671714Y-29810457D01*
X88671714Y-29810457D02*
X88719333Y-29762838D01*
X88719333Y-29762838D02*
X88814571Y-29715219D01*
X88814571Y-29715219D02*
X89052666Y-29715219D01*
X89052666Y-29715219D02*
X89195523Y-29762838D01*
X90147904Y-30715219D02*
X89576476Y-30715219D01*
X89862190Y-30715219D02*
X89862190Y-29715219D01*
X89862190Y-29715219D02*
X89766952Y-29858076D01*
X89766952Y-29858076D02*
X89671714Y-29953314D01*
X89671714Y-29953314D02*
X89576476Y-30000933D01*
D12*
X92966666Y-62216033D02*
X92966666Y-62782700D01*
X92966666Y-62782700D02*
X93000000Y-62849366D01*
X93000000Y-62849366D02*
X93033333Y-62882700D01*
X93033333Y-62882700D02*
X93100000Y-62916033D01*
X93100000Y-62916033D02*
X93233333Y-62916033D01*
X93233333Y-62916033D02*
X93300000Y-62882700D01*
X93300000Y-62882700D02*
X93333333Y-62849366D01*
X93333333Y-62849366D02*
X93366666Y-62782700D01*
X93366666Y-62782700D02*
X93366666Y-62216033D01*
X93666666Y-62282700D02*
X93699999Y-62249366D01*
X93699999Y-62249366D02*
X93766666Y-62216033D01*
X93766666Y-62216033D02*
X93933333Y-62216033D01*
X93933333Y-62216033D02*
X93999999Y-62249366D01*
X93999999Y-62249366D02*
X94033333Y-62282700D01*
X94033333Y-62282700D02*
X94066666Y-62349366D01*
X94066666Y-62349366D02*
X94066666Y-62416033D01*
X94066666Y-62416033D02*
X94033333Y-62516033D01*
X94033333Y-62516033D02*
X93633333Y-62916033D01*
X93633333Y-62916033D02*
X94066666Y-62916033D01*
X99333333Y-63154819D02*
X99000000Y-62678628D01*
X98761905Y-63154819D02*
X98761905Y-62154819D01*
X98761905Y-62154819D02*
X99142857Y-62154819D01*
X99142857Y-62154819D02*
X99238095Y-62202438D01*
X99238095Y-62202438D02*
X99285714Y-62250057D01*
X99285714Y-62250057D02*
X99333333Y-62345295D01*
X99333333Y-62345295D02*
X99333333Y-62488152D01*
X99333333Y-62488152D02*
X99285714Y-62583390D01*
X99285714Y-62583390D02*
X99238095Y-62631009D01*
X99238095Y-62631009D02*
X99142857Y-62678628D01*
X99142857Y-62678628D02*
X98761905Y-62678628D01*
X99714286Y-62250057D02*
X99761905Y-62202438D01*
X99761905Y-62202438D02*
X99857143Y-62154819D01*
X99857143Y-62154819D02*
X100095238Y-62154819D01*
X100095238Y-62154819D02*
X100190476Y-62202438D01*
X100190476Y-62202438D02*
X100238095Y-62250057D01*
X100238095Y-62250057D02*
X100285714Y-62345295D01*
X100285714Y-62345295D02*
X100285714Y-62440533D01*
X100285714Y-62440533D02*
X100238095Y-62583390D01*
X100238095Y-62583390D02*
X99666667Y-63154819D01*
X99666667Y-63154819D02*
X100285714Y-63154819D01*
D14*
%TO.C,J5*%
X94301000Y-29150000D02*
X94301000Y-31810000D01*
X101981000Y-29150000D02*
X94301000Y-29150000D01*
X101981000Y-29150000D02*
X101981000Y-31810000D01*
X101981000Y-31810000D02*
X94301000Y-31810000D01*
X103251000Y-29150000D02*
X104581000Y-29150000D01*
X104581000Y-29150000D02*
X104581000Y-30480000D01*
%TO.C,R1*%
X94265000Y-57285436D02*
X94265000Y-57739564D01*
X95735000Y-57285436D02*
X95735000Y-57739564D01*
%TO.C,J2*%
X102370000Y-67090000D02*
X102370000Y-41630000D01*
X102370000Y-69690000D02*
X102370000Y-68360000D01*
X103700000Y-69690000D02*
X102370000Y-69690000D01*
X105030000Y-41630000D02*
X102370000Y-41630000D01*
X105030000Y-67090000D02*
X102370000Y-67090000D01*
X105030000Y-67090000D02*
X105030000Y-41630000D01*
%TO.C,J4*%
X98870000Y-36370000D02*
X98870000Y-54210000D01*
X98870000Y-36370000D02*
X101530000Y-36370000D01*
X98870000Y-54210000D02*
X101530000Y-54210000D01*
X100200000Y-33770000D02*
X101530000Y-33770000D01*
X101530000Y-33770000D02*
X101530000Y-35100000D01*
X101530000Y-36370000D02*
X101530000Y-54210000D01*
%TO.C,C1*%
X89811252Y-60665000D02*
X89288748Y-60665000D01*
X89811252Y-62135000D02*
X89288748Y-62135000D01*
%TO.C,C2*%
X89811252Y-63065000D02*
X89288748Y-63065000D01*
X89811252Y-64535000D02*
X89288748Y-64535000D01*
%TO.C,J6*%
X102429000Y-37973000D02*
X102429000Y-32833000D01*
X105089000Y-32833000D02*
X102429000Y-32833000D01*
X105089000Y-37973000D02*
X102429000Y-37973000D01*
X105089000Y-37973000D02*
X105089000Y-32833000D01*
X105089000Y-39243000D02*
X105089000Y-40573000D01*
X105089000Y-40573000D02*
X103759000Y-40573000D01*
D15*
%TO.C,S1*%
X91136000Y-28813000D02*
X87636000Y-28813000D01*
X91136000Y-31713000D02*
X87586000Y-31713000D01*
D13*
X92386000Y-30863000D02*
X92386000Y-30863000D01*
X92386000Y-31063000D02*
X92386000Y-31063000D01*
X92386000Y-30863000D02*
G75*
G02*
X92386000Y-31063000I0J-100000D01*
G01*
X92386000Y-31063000D02*
G75*
G02*
X92386000Y-30863000I0J100000D01*
G01*
D14*
%TO.C,J1*%
X82070000Y-31530000D02*
X82070000Y-69690000D01*
X82070000Y-31530000D02*
X84730000Y-31530000D01*
X82070000Y-69690000D02*
X84730000Y-69690000D01*
X83400000Y-28930000D02*
X84730000Y-28930000D01*
X84730000Y-28930000D02*
X84730000Y-30260000D01*
X84730000Y-31530000D02*
X84730000Y-69690000D01*
%TO.C,J3*%
X90930000Y-67055000D02*
X90930000Y-69715000D01*
X93530000Y-67055000D02*
X90930000Y-67055000D01*
X93530000Y-67055000D02*
X93530000Y-69715000D01*
X93530000Y-69715000D02*
X90930000Y-69715000D01*
X96130000Y-68385000D02*
X96130000Y-69715000D01*
X96130000Y-69715000D02*
X94800000Y-69715000D01*
D16*
%TO.C,U2*%
X91788000Y-60975000D02*
G75*
G02*
X91463000Y-60975000I-162500J0D01*
G01*
X91463000Y-60975000D02*
G75*
G02*
X91788000Y-60975000I162500J0D01*
G01*
D14*
%TO.C,R2*%
X96965000Y-62939564D02*
X96965000Y-62485436D01*
X98435000Y-62939564D02*
X98435000Y-62485436D01*
%TO.C,JP1*%
X85400000Y-58950000D02*
X85400000Y-57550000D01*
X86100000Y-56850000D02*
X86700000Y-56850000D01*
X86700000Y-59650000D02*
X86100000Y-59650000D01*
X87400000Y-57550000D02*
X87400000Y-58950000D01*
X85400000Y-57550000D02*
G75*
G02*
X86100000Y-56850000I700000J0D01*
G01*
X86100000Y-59650000D02*
G75*
G02*
X85400000Y-58950000I-1J699999D01*
G01*
X86700000Y-56850000D02*
G75*
G02*
X87400000Y-57550000I0J-700000D01*
G01*
X87400000Y-58950000D02*
G75*
G02*
X86700000Y-59650000I-699999J-1D01*
G01*
%TD*%
%LPC*%
D17*
%TO.C,J5*%
X103251000Y-30480000D03*
D18*
X100711000Y-30480000D03*
X98171000Y-30480000D03*
X95631000Y-30480000D03*
%TD*%
D19*
%TO.C,R1*%
X95000000Y-56600000D03*
X95000000Y-58425000D03*
%TD*%
D20*
%TO.C,J2*%
X103700000Y-68360000D03*
D18*
X103700000Y-65820000D03*
X103700000Y-63280000D03*
X103700000Y-60740000D03*
X103700000Y-58200000D03*
X103700000Y-55660000D03*
X103700000Y-53120000D03*
X103700000Y-50580000D03*
X103700000Y-48040000D03*
X103700000Y-45500000D03*
X103700000Y-42960000D03*
%TD*%
D20*
%TO.C,J4*%
X100200000Y-35100000D03*
D17*
X100200000Y-37640000D03*
D18*
X100200000Y-40180000D03*
X100200000Y-42720000D03*
X100200000Y-45260000D03*
X100200000Y-47800000D03*
X100200000Y-50340000D03*
X100200000Y-52880000D03*
%TD*%
D21*
%TO.C,C1*%
X90500000Y-61400000D03*
X88600000Y-61400000D03*
%TD*%
%TO.C,C2*%
X90500000Y-63800000D03*
X88600000Y-63800000D03*
%TD*%
D17*
%TO.C,J6*%
X103759000Y-39243000D03*
D18*
X103759000Y-36703000D03*
X103759000Y-34163000D03*
%TD*%
D22*
%TO.C,S1*%
X91186000Y-30988000D03*
X87586000Y-30988000D03*
X91186000Y-29538000D03*
X87586000Y-29538000D03*
%TD*%
D20*
%TO.C,J1*%
X83400000Y-30260000D03*
D18*
X83400000Y-32800000D03*
X83400000Y-35340000D03*
D17*
X83400000Y-37880000D03*
D18*
X83400000Y-40420000D03*
X83400000Y-42960000D03*
X83400000Y-45500000D03*
X83400000Y-48040000D03*
X83400000Y-50580000D03*
X83400000Y-53120000D03*
X83400000Y-55660000D03*
X83400000Y-58200000D03*
X83400000Y-60740000D03*
X83400000Y-63280000D03*
X83400000Y-65820000D03*
X83400000Y-68360000D03*
%TD*%
D23*
%TO.C,J3*%
X94800000Y-68385000D03*
X92260000Y-68385000D03*
%TD*%
D24*
%TO.C,U2*%
X92100000Y-61950000D03*
X92100000Y-62600000D03*
X92100000Y-63250000D03*
D25*
X92850000Y-64000000D03*
X93500000Y-64000000D03*
X94150000Y-64000000D03*
D24*
X94900000Y-63250000D03*
X94900000Y-62600000D03*
X94900000Y-61950000D03*
D25*
X94150000Y-61200000D03*
X93500000Y-61200000D03*
X92850000Y-61200000D03*
%TD*%
D26*
%TO.C,R2*%
X97700000Y-63625000D03*
X97700000Y-61800000D03*
%TD*%
D27*
%TO.C,JP1*%
X86400000Y-58900000D03*
D28*
X86400000Y-57600000D03*
%TD*%
%LPD*%
M02*
