%TF.GenerationSoftware,KiCad,Pcbnew,8.0.4*%
%TF.CreationDate,2024-08-29T19:33:41+02:00*%
%TF.ProjectId,microphone-pcb,6d696372-6f70-4686-9f6e-652d7063622e,rev?*%
%TF.SameCoordinates,Original*%
%TF.FileFunction,Copper,L1,Top*%
%TF.FilePolarity,Positive*%
%FSLAX46Y46*%
G04 Gerber Fmt 4.6, Leading zero omitted, Abs format (unit mm)*
G04 Created by KiCad (PCBNEW 8.0.4) date 2024-08-29 19:33:41*
%MOMM*%
%LPD*%
G01*
G04 APERTURE LIST*
G04 Aperture macros list*
%AMRoundRect*
0 Rectangle with rounded corners*
0 $1 Rounding radius*
0 $2 $3 $4 $5 $6 $7 $8 $9 X,Y pos of 4 corners*
0 Add a 4 corners polygon primitive as box body*
4,1,4,$2,$3,$4,$5,$6,$7,$8,$9,$2,$3,0*
0 Add four circle primitives for the rounded corners*
1,1,$1+$1,$2,$3*
1,1,$1+$1,$4,$5*
1,1,$1+$1,$6,$7*
1,1,$1+$1,$8,$9*
0 Add four rect primitives between the rounded corners*
20,1,$1+$1,$2,$3,$4,$5,0*
20,1,$1+$1,$4,$5,$6,$7,0*
20,1,$1+$1,$6,$7,$8,$9,0*
20,1,$1+$1,$8,$9,$2,$3,0*%
G04 Aperture macros list end*
%TA.AperFunction,SMDPad,CuDef*%
%ADD10RoundRect,0.250000X-0.337500X-0.475000X0.337500X-0.475000X0.337500X0.475000X-0.337500X0.475000X0*%
%TD*%
%TA.AperFunction,SMDPad,CuDef*%
%ADD11R,0.950000X0.400000*%
%TD*%
%TA.AperFunction,SMDPad,CuDef*%
%ADD12R,2.300000X0.350000*%
%TD*%
%TA.AperFunction,SMDPad,CuDef*%
%ADD13R,0.350000X1.300000*%
%TD*%
%TA.AperFunction,SMDPad,CuDef*%
%ADD14RoundRect,0.250000X0.337500X0.475000X-0.337500X0.475000X-0.337500X-0.475000X0.337500X-0.475000X0*%
%TD*%
%TA.AperFunction,ComponentPad*%
%ADD15R,1.700000X1.700000*%
%TD*%
%TA.AperFunction,ComponentPad*%
%ADD16O,1.700000X1.700000*%
%TD*%
%TA.AperFunction,ViaPad*%
%ADD17C,0.600000*%
%TD*%
%TA.AperFunction,Conductor*%
%ADD18C,0.130000*%
%TD*%
%TA.AperFunction,Conductor*%
%ADD19C,0.500000*%
%TD*%
G04 APERTURE END LIST*
D10*
%TO.P,C1,1*%
%TO.N,GND*%
X134040000Y-75610000D03*
%TO.P,C1,2*%
%TO.N,+3.3V*%
X136115000Y-75610000D03*
%TD*%
D11*
%TO.P,MK1,1,CLK*%
%TO.N,Net-(J1-Pin_4)*%
X128905000Y-74810000D03*
%TO.P,MK1,2,DOUT*%
%TO.N,Net-(J1-Pin_3)*%
X130255000Y-74810000D03*
%TO.P,MK1,3,VDD*%
%TO.N,+3.3V*%
X130255000Y-73910000D03*
%TO.P,MK1,4,LR*%
%TO.N,unconnected-(MK1-LR-Pad4)*%
X128905000Y-73910000D03*
D12*
%TO.P,MK1,5,GND_1*%
%TO.N,GND*%
X129580000Y-75585000D03*
%TO.P,MK1,6,GND_2*%
X129580000Y-73135000D03*
D13*
%TO.P,MK1,7,GND_3*%
X127855000Y-74360000D03*
%TO.P,MK1,8,GND_4*%
X131305000Y-74360000D03*
%TD*%
D14*
%TO.P,C2,1*%
%TO.N,+3.3V*%
X136125000Y-73540000D03*
%TO.P,C2,2*%
%TO.N,GND*%
X134050000Y-73540000D03*
%TD*%
D15*
%TO.P,J1,1,Pin_1*%
%TO.N,+3.3V*%
X135753000Y-78683000D03*
D16*
%TO.P,J1,2,Pin_2*%
%TO.N,GND*%
X133213000Y-78683000D03*
%TO.P,J1,3,Pin_3*%
%TO.N,Net-(J1-Pin_3)*%
X130673000Y-78683000D03*
%TO.P,J1,4,Pin_4*%
%TO.N,Net-(J1-Pin_4)*%
X128133000Y-78683000D03*
%TD*%
D17*
%TO.N,+3.3V*%
X132900000Y-73400000D03*
X137122000Y-73500000D03*
%TO.N,GND*%
X127100000Y-74400000D03*
X129600000Y-76600000D03*
%TD*%
D18*
%TO.N,+3.3V*%
X136165000Y-73500000D02*
X136125000Y-73540000D01*
X130490000Y-73910000D02*
X130800000Y-73600000D01*
X130800000Y-73600000D02*
X130825000Y-73575000D01*
D19*
X136125000Y-73540000D02*
X136125000Y-75600000D01*
X136125000Y-75600000D02*
X136115000Y-75610000D01*
X136115000Y-76785000D02*
X136115000Y-75610000D01*
D18*
X130865000Y-73575000D02*
X131240000Y-73200000D01*
X132700000Y-73200000D02*
X132900000Y-73400000D01*
X130255000Y-73910000D02*
X130490000Y-73910000D01*
X137122000Y-73500000D02*
X136165000Y-73500000D01*
X130825000Y-73575000D02*
X130865000Y-73575000D01*
D19*
X135753000Y-77147000D02*
X136115000Y-76785000D01*
X135753000Y-78683000D02*
X135753000Y-77147000D01*
D18*
X131240000Y-73200000D02*
X131500000Y-73200000D01*
X131500000Y-73200000D02*
X132700000Y-73200000D01*
D19*
%TO.N,GND*%
X127965000Y-73135000D02*
X129580000Y-73135000D01*
X133230000Y-74360000D02*
X134050000Y-73540000D01*
X134040000Y-77856000D02*
X133213000Y-78683000D01*
X127855000Y-73245000D02*
X127965000Y-73135000D01*
X127140000Y-74360000D02*
X127100000Y-74400000D01*
X134040000Y-75610000D02*
X134040000Y-77856000D01*
X127855000Y-74360000D02*
X127855000Y-73245000D01*
X129580000Y-75585000D02*
X129580000Y-76580000D01*
X134040000Y-75610000D02*
X134040000Y-73550000D01*
X129580000Y-76580000D02*
X129600000Y-76600000D01*
X134040000Y-73550000D02*
X134050000Y-73540000D01*
X131305000Y-74360000D02*
X133230000Y-74360000D01*
X127855000Y-74360000D02*
X127140000Y-74360000D01*
D18*
%TO.N,Net-(J1-Pin_3)*%
X130673000Y-78683000D02*
X131000000Y-78356000D01*
X130510000Y-74810000D02*
X130255000Y-74810000D01*
X131000000Y-78356000D02*
X131000000Y-75275000D01*
X130975000Y-75275000D02*
X130510000Y-74810000D01*
X131000000Y-75275000D02*
X130975000Y-75275000D01*
%TO.N,Net-(J1-Pin_4)*%
X128165000Y-75300000D02*
X128655000Y-74810000D01*
X128655000Y-74810000D02*
X128905000Y-74810000D01*
X128133000Y-75367000D02*
X128165000Y-75335000D01*
X128133000Y-78683000D02*
X128133000Y-75367000D01*
X128165000Y-75335000D02*
X128165000Y-75300000D01*
%TD*%
M02*
