%TF.GenerationSoftware,KiCad,Pcbnew,8.0.4*%
%TF.CreationDate,2024-08-29T19:33:41+02:00*%
%TF.ProjectId,microphone-pcb,6d696372-6f70-4686-9f6e-652d7063622e,rev?*%
%TF.SameCoordinates,Original*%
%TF.FileFunction,Copper,L2,Bot*%
%TF.FilePolarity,Positive*%
%FSLAX46Y46*%
G04 Gerber Fmt 4.6, Leading zero omitted, Abs format (unit mm)*
G04 Created by KiCad (PCBNEW 8.0.4) date 2024-08-29 19:33:41*
%MOMM*%
%LPD*%
G01*
G04 APERTURE LIST*
%TA.AperFunction,ComponentPad*%
%ADD10R,1.700000X1.700000*%
%TD*%
%TA.AperFunction,ComponentPad*%
%ADD11O,1.700000X1.700000*%
%TD*%
%TA.AperFunction,ViaPad*%
%ADD12C,0.600000*%
%TD*%
%TA.AperFunction,Conductor*%
%ADD13C,0.130000*%
%TD*%
G04 APERTURE END LIST*
D10*
%TO.P,J1,1,Pin_1*%
%TO.N,+3.3V*%
X135753000Y-78683000D03*
D11*
%TO.P,J1,2,Pin_2*%
%TO.N,GND*%
X133213000Y-78683000D03*
%TO.P,J1,3,Pin_3*%
%TO.N,Net-(J1-Pin_3)*%
X130673000Y-78683000D03*
%TO.P,J1,4,Pin_4*%
%TO.N,Net-(J1-Pin_4)*%
X128133000Y-78683000D03*
%TD*%
D12*
%TO.N,+3.3V*%
X132900000Y-73400000D03*
X137122000Y-73500000D03*
%TO.N,GND*%
X127100000Y-74400000D03*
X129600000Y-76600000D03*
%TD*%
D13*
%TO.N,+3.3V*%
X137022000Y-73400000D02*
X137122000Y-73500000D01*
X132900000Y-73400000D02*
X137022000Y-73400000D01*
%TD*%
%TA.AperFunction,Conductor*%
%TO.N,GND*%
G36*
X137364539Y-72275185D02*
G01*
X137410294Y-72327989D01*
X137421500Y-72379500D01*
X137421500Y-72589424D01*
X137401815Y-72656463D01*
X137349011Y-72702218D01*
X137283617Y-72712644D01*
X137122004Y-72694435D01*
X137121996Y-72694435D01*
X136942750Y-72714630D01*
X136942745Y-72714631D01*
X136772475Y-72774211D01*
X136706778Y-72815493D01*
X136640805Y-72834500D01*
X133517940Y-72834500D01*
X133450901Y-72814815D01*
X133430259Y-72798181D01*
X133402262Y-72770184D01*
X133249523Y-72674211D01*
X133079254Y-72614631D01*
X133079249Y-72614630D01*
X132900004Y-72594435D01*
X132899996Y-72594435D01*
X132720750Y-72614630D01*
X132720745Y-72614631D01*
X132550476Y-72674211D01*
X132397737Y-72770184D01*
X132270184Y-72897737D01*
X132174211Y-73050476D01*
X132114631Y-73220745D01*
X132114630Y-73220750D01*
X132094435Y-73399996D01*
X132094435Y-73400003D01*
X132114630Y-73579249D01*
X132114631Y-73579254D01*
X132174211Y-73749523D01*
X132270184Y-73902262D01*
X132397738Y-74029816D01*
X132550478Y-74125789D01*
X132561984Y-74129815D01*
X132720745Y-74185368D01*
X132720750Y-74185369D01*
X132899996Y-74205565D01*
X132900000Y-74205565D01*
X132900004Y-74205565D01*
X133079249Y-74185369D01*
X133079252Y-74185368D01*
X133079255Y-74185368D01*
X133249522Y-74125789D01*
X133402262Y-74029816D01*
X133430259Y-74001819D01*
X133491582Y-73968334D01*
X133517940Y-73965500D01*
X136404060Y-73965500D01*
X136471099Y-73985185D01*
X136491741Y-74001819D01*
X136492184Y-74002262D01*
X136619738Y-74129816D01*
X136772478Y-74225789D01*
X136822499Y-74243292D01*
X136942745Y-74285368D01*
X136942750Y-74285369D01*
X137121996Y-74305565D01*
X137122000Y-74305565D01*
X137122004Y-74305565D01*
X137283617Y-74287356D01*
X137352439Y-74299411D01*
X137403818Y-74346760D01*
X137421500Y-74410576D01*
X137421500Y-79512500D01*
X137401815Y-79579539D01*
X137349011Y-79625294D01*
X137297500Y-79636500D01*
X137227500Y-79636500D01*
X137160461Y-79616815D01*
X137114706Y-79564011D01*
X137103500Y-79512500D01*
X137103499Y-77785129D01*
X137103498Y-77785123D01*
X137097091Y-77725516D01*
X137046797Y-77590671D01*
X137046793Y-77590664D01*
X136960547Y-77475455D01*
X136960544Y-77475452D01*
X136845335Y-77389206D01*
X136845328Y-77389202D01*
X136710482Y-77338908D01*
X136710483Y-77338908D01*
X136650883Y-77332501D01*
X136650881Y-77332500D01*
X136650873Y-77332500D01*
X136650864Y-77332500D01*
X134855129Y-77332500D01*
X134855123Y-77332501D01*
X134795516Y-77338908D01*
X134660671Y-77389202D01*
X134660664Y-77389206D01*
X134545455Y-77475452D01*
X134545452Y-77475455D01*
X134459206Y-77590664D01*
X134459202Y-77590671D01*
X134409997Y-77722598D01*
X134368126Y-77778532D01*
X134302661Y-77802949D01*
X134234388Y-77788097D01*
X134206134Y-77766946D01*
X134084082Y-77644894D01*
X133890578Y-77509399D01*
X133676492Y-77409570D01*
X133676486Y-77409567D01*
X133463000Y-77352364D01*
X133463000Y-78249988D01*
X133405993Y-78217075D01*
X133278826Y-78183000D01*
X133147174Y-78183000D01*
X133020007Y-78217075D01*
X132963000Y-78249988D01*
X132963000Y-77352364D01*
X132962999Y-77352364D01*
X132749513Y-77409567D01*
X132749507Y-77409570D01*
X132535422Y-77509399D01*
X132535420Y-77509400D01*
X132341926Y-77644886D01*
X132341920Y-77644891D01*
X132174891Y-77811920D01*
X132174890Y-77811922D01*
X132044880Y-77997595D01*
X131990303Y-78041219D01*
X131920804Y-78048412D01*
X131858450Y-78016890D01*
X131841730Y-77997594D01*
X131711494Y-77811597D01*
X131544402Y-77644506D01*
X131544395Y-77644501D01*
X131350834Y-77508967D01*
X131350830Y-77508965D01*
X131350828Y-77508964D01*
X131136663Y-77409097D01*
X131136659Y-77409096D01*
X131136655Y-77409094D01*
X130908413Y-77347938D01*
X130908403Y-77347936D01*
X130673001Y-77327341D01*
X130672999Y-77327341D01*
X130437596Y-77347936D01*
X130437586Y-77347938D01*
X130209344Y-77409094D01*
X130209335Y-77409098D01*
X129995171Y-77508964D01*
X129995169Y-77508965D01*
X129801597Y-77644505D01*
X129634505Y-77811597D01*
X129504575Y-77997158D01*
X129449998Y-78040783D01*
X129380500Y-78047977D01*
X129318145Y-78016454D01*
X129301425Y-77997158D01*
X129171494Y-77811597D01*
X129004402Y-77644506D01*
X129004395Y-77644501D01*
X128810834Y-77508967D01*
X128810830Y-77508965D01*
X128810828Y-77508964D01*
X128596663Y-77409097D01*
X128596659Y-77409096D01*
X128596655Y-77409094D01*
X128368413Y-77347938D01*
X128368403Y-77347936D01*
X128133001Y-77327341D01*
X128132999Y-77327341D01*
X127897596Y-77347936D01*
X127897586Y-77347938D01*
X127669344Y-77409094D01*
X127669335Y-77409098D01*
X127455171Y-77508964D01*
X127455169Y-77508965D01*
X127261597Y-77644505D01*
X127094505Y-77811597D01*
X126958965Y-78005169D01*
X126958964Y-78005171D01*
X126859098Y-78219335D01*
X126859094Y-78219344D01*
X126797938Y-78447586D01*
X126797936Y-78447596D01*
X126777341Y-78682999D01*
X126777341Y-78683000D01*
X126797936Y-78918403D01*
X126797938Y-78918413D01*
X126859094Y-79146655D01*
X126859096Y-79146659D01*
X126859097Y-79146663D01*
X126958965Y-79360830D01*
X126958967Y-79360834D01*
X127015364Y-79441377D01*
X127037691Y-79507583D01*
X127020681Y-79575350D01*
X126969733Y-79623163D01*
X126913789Y-79636500D01*
X126608500Y-79636500D01*
X126541461Y-79616815D01*
X126495706Y-79564011D01*
X126484500Y-79512500D01*
X126484500Y-72379500D01*
X126504185Y-72312461D01*
X126556989Y-72266706D01*
X126608500Y-72255500D01*
X137297500Y-72255500D01*
X137364539Y-72275185D01*
G37*
%TD.AperFunction*%
%TD*%
M02*
