%TF.GenerationSoftware,KiCad,Pcbnew,8.0.4*%
%TF.CreationDate,2024-08-29T19:33:41+02:00*%
%TF.ProjectId,microphone-pcb,6d696372-6f70-4686-9f6e-652d7063622e,rev?*%
%TF.SameCoordinates,Original*%
%TF.FileFunction,Legend,Top*%
%TF.FilePolarity,Positive*%
%FSLAX46Y46*%
G04 Gerber Fmt 4.6, Leading zero omitted, Abs format (unit mm)*
G04 Created by KiCad (PCBNEW 8.0.4) date 2024-08-29 19:33:41*
%MOMM*%
%LPD*%
G01*
G04 APERTURE LIST*
G04 Aperture macros list*
%AMRoundRect*
0 Rectangle with rounded corners*
0 $1 Rounding radius*
0 $2 $3 $4 $5 $6 $7 $8 $9 X,Y pos of 4 corners*
0 Add a 4 corners polygon primitive as box body*
4,1,4,$2,$3,$4,$5,$6,$7,$8,$9,$2,$3,0*
0 Add four circle primitives for the rounded corners*
1,1,$1+$1,$2,$3*
1,1,$1+$1,$4,$5*
1,1,$1+$1,$6,$7*
1,1,$1+$1,$8,$9*
0 Add four rect primitives between the rounded corners*
20,1,$1+$1,$2,$3,$4,$5,0*
20,1,$1+$1,$4,$5,$6,$7,0*
20,1,$1+$1,$6,$7,$8,$9,0*
20,1,$1+$1,$8,$9,$2,$3,0*%
G04 Aperture macros list end*
%ADD10C,0.100000*%
%ADD11C,0.150000*%
%ADD12C,0.254000*%
%ADD13C,0.120000*%
%ADD14RoundRect,0.250000X-0.337500X-0.475000X0.337500X-0.475000X0.337500X0.475000X-0.337500X0.475000X0*%
%ADD15R,0.950000X0.400000*%
%ADD16R,2.300000X0.350000*%
%ADD17R,0.350000X1.300000*%
%ADD18RoundRect,0.250000X0.337500X0.475000X-0.337500X0.475000X-0.337500X-0.475000X0.337500X-0.475000X0*%
%ADD19R,1.700000X1.700000*%
%ADD20O,1.700000X1.700000*%
G04 APERTURE END LIST*
D10*
X135138217Y-76596419D02*
X135447741Y-76596419D01*
X135447741Y-76596419D02*
X135281074Y-76977371D01*
X135281074Y-76977371D02*
X135352503Y-76977371D01*
X135352503Y-76977371D02*
X135400122Y-77024990D01*
X135400122Y-77024990D02*
X135423931Y-77072609D01*
X135423931Y-77072609D02*
X135447741Y-77167847D01*
X135447741Y-77167847D02*
X135447741Y-77405942D01*
X135447741Y-77405942D02*
X135423931Y-77501180D01*
X135423931Y-77501180D02*
X135400122Y-77548800D01*
X135400122Y-77548800D02*
X135352503Y-77596419D01*
X135352503Y-77596419D02*
X135209646Y-77596419D01*
X135209646Y-77596419D02*
X135162027Y-77548800D01*
X135162027Y-77548800D02*
X135138217Y-77501180D01*
X135614407Y-76929752D02*
X135733455Y-77596419D01*
X135733455Y-77596419D02*
X135852502Y-76929752D01*
X135995359Y-76596419D02*
X136304883Y-76596419D01*
X136304883Y-76596419D02*
X136138216Y-76977371D01*
X136138216Y-76977371D02*
X136209645Y-76977371D01*
X136209645Y-76977371D02*
X136257264Y-77024990D01*
X136257264Y-77024990D02*
X136281073Y-77072609D01*
X136281073Y-77072609D02*
X136304883Y-77167847D01*
X136304883Y-77167847D02*
X136304883Y-77405942D01*
X136304883Y-77405942D02*
X136281073Y-77501180D01*
X136281073Y-77501180D02*
X136257264Y-77548800D01*
X136257264Y-77548800D02*
X136209645Y-77596419D01*
X136209645Y-77596419D02*
X136066788Y-77596419D01*
X136066788Y-77596419D02*
X136019169Y-77548800D01*
X136019169Y-77548800D02*
X135995359Y-77501180D01*
X127851550Y-77374180D02*
X127827741Y-77421800D01*
X127827741Y-77421800D02*
X127756312Y-77469419D01*
X127756312Y-77469419D02*
X127708693Y-77469419D01*
X127708693Y-77469419D02*
X127637265Y-77421800D01*
X127637265Y-77421800D02*
X127589646Y-77326561D01*
X127589646Y-77326561D02*
X127565836Y-77231323D01*
X127565836Y-77231323D02*
X127542027Y-77040847D01*
X127542027Y-77040847D02*
X127542027Y-76897990D01*
X127542027Y-76897990D02*
X127565836Y-76707514D01*
X127565836Y-76707514D02*
X127589646Y-76612276D01*
X127589646Y-76612276D02*
X127637265Y-76517038D01*
X127637265Y-76517038D02*
X127708693Y-76469419D01*
X127708693Y-76469419D02*
X127756312Y-76469419D01*
X127756312Y-76469419D02*
X127827741Y-76517038D01*
X127827741Y-76517038D02*
X127851550Y-76564657D01*
X128303931Y-77469419D02*
X128065836Y-77469419D01*
X128065836Y-77469419D02*
X128065836Y-76469419D01*
X128470598Y-77469419D02*
X128470598Y-76469419D01*
X128756312Y-77469419D02*
X128542027Y-76897990D01*
X128756312Y-76469419D02*
X128470598Y-77040847D01*
X132907741Y-76644038D02*
X132860122Y-76596419D01*
X132860122Y-76596419D02*
X132788693Y-76596419D01*
X132788693Y-76596419D02*
X132717265Y-76644038D01*
X132717265Y-76644038D02*
X132669646Y-76739276D01*
X132669646Y-76739276D02*
X132645836Y-76834514D01*
X132645836Y-76834514D02*
X132622027Y-77024990D01*
X132622027Y-77024990D02*
X132622027Y-77167847D01*
X132622027Y-77167847D02*
X132645836Y-77358323D01*
X132645836Y-77358323D02*
X132669646Y-77453561D01*
X132669646Y-77453561D02*
X132717265Y-77548800D01*
X132717265Y-77548800D02*
X132788693Y-77596419D01*
X132788693Y-77596419D02*
X132836312Y-77596419D01*
X132836312Y-77596419D02*
X132907741Y-77548800D01*
X132907741Y-77548800D02*
X132931550Y-77501180D01*
X132931550Y-77501180D02*
X132931550Y-77167847D01*
X132931550Y-77167847D02*
X132836312Y-77167847D01*
X133145836Y-77596419D02*
X133145836Y-76596419D01*
X133145836Y-76596419D02*
X133431550Y-77596419D01*
X133431550Y-77596419D02*
X133431550Y-76596419D01*
X133669646Y-77596419D02*
X133669646Y-76596419D01*
X133669646Y-76596419D02*
X133788694Y-76596419D01*
X133788694Y-76596419D02*
X133860122Y-76644038D01*
X133860122Y-76644038D02*
X133907741Y-76739276D01*
X133907741Y-76739276D02*
X133931551Y-76834514D01*
X133931551Y-76834514D02*
X133955360Y-77024990D01*
X133955360Y-77024990D02*
X133955360Y-77167847D01*
X133955360Y-77167847D02*
X133931551Y-77358323D01*
X133931551Y-77358323D02*
X133907741Y-77453561D01*
X133907741Y-77453561D02*
X133860122Y-77548800D01*
X133860122Y-77548800D02*
X133788694Y-77596419D01*
X133788694Y-77596419D02*
X133669646Y-77596419D01*
X130232836Y-77469419D02*
X130232836Y-76469419D01*
X130232836Y-76469419D02*
X130351884Y-76469419D01*
X130351884Y-76469419D02*
X130423312Y-76517038D01*
X130423312Y-76517038D02*
X130470931Y-76612276D01*
X130470931Y-76612276D02*
X130494741Y-76707514D01*
X130494741Y-76707514D02*
X130518550Y-76897990D01*
X130518550Y-76897990D02*
X130518550Y-77040847D01*
X130518550Y-77040847D02*
X130494741Y-77231323D01*
X130494741Y-77231323D02*
X130470931Y-77326561D01*
X130470931Y-77326561D02*
X130423312Y-77421800D01*
X130423312Y-77421800D02*
X130351884Y-77469419D01*
X130351884Y-77469419D02*
X130232836Y-77469419D01*
X130709027Y-77183704D02*
X130947122Y-77183704D01*
X130661408Y-77469419D02*
X130828074Y-76469419D01*
X130828074Y-76469419D02*
X130994741Y-77469419D01*
X131089979Y-76469419D02*
X131375693Y-76469419D01*
X131232836Y-77469419D02*
X131232836Y-76469419D01*
D11*
X134910833Y-74289580D02*
X134863214Y-74337200D01*
X134863214Y-74337200D02*
X134720357Y-74384819D01*
X134720357Y-74384819D02*
X134625119Y-74384819D01*
X134625119Y-74384819D02*
X134482262Y-74337200D01*
X134482262Y-74337200D02*
X134387024Y-74241961D01*
X134387024Y-74241961D02*
X134339405Y-74146723D01*
X134339405Y-74146723D02*
X134291786Y-73956247D01*
X134291786Y-73956247D02*
X134291786Y-73813390D01*
X134291786Y-73813390D02*
X134339405Y-73622914D01*
X134339405Y-73622914D02*
X134387024Y-73527676D01*
X134387024Y-73527676D02*
X134482262Y-73432438D01*
X134482262Y-73432438D02*
X134625119Y-73384819D01*
X134625119Y-73384819D02*
X134720357Y-73384819D01*
X134720357Y-73384819D02*
X134863214Y-73432438D01*
X134863214Y-73432438D02*
X134910833Y-73480057D01*
X135863214Y-74384819D02*
X135291786Y-74384819D01*
X135577500Y-74384819D02*
X135577500Y-73384819D01*
X135577500Y-73384819D02*
X135482262Y-73527676D01*
X135482262Y-73527676D02*
X135387024Y-73622914D01*
X135387024Y-73622914D02*
X135291786Y-73670533D01*
D12*
X130154318Y-76023095D02*
X128884318Y-76023095D01*
X128884318Y-76023095D02*
X129791461Y-75599761D01*
X129791461Y-75599761D02*
X128884318Y-75176428D01*
X128884318Y-75176428D02*
X130154318Y-75176428D01*
X130154318Y-74571666D02*
X128884318Y-74571666D01*
X130154318Y-73845951D02*
X129428603Y-74390237D01*
X128884318Y-73845951D02*
X129610032Y-74571666D01*
X130154318Y-72636427D02*
X130154318Y-73362142D01*
X130154318Y-72999285D02*
X128884318Y-72999285D01*
X128884318Y-72999285D02*
X129065746Y-73120237D01*
X129065746Y-73120237D02*
X129186699Y-73241189D01*
X129186699Y-73241189D02*
X129247175Y-73362142D01*
D13*
%TO.C,C1*%
X134816248Y-74875000D02*
X135338752Y-74875000D01*
X134816248Y-76345000D02*
X135338752Y-76345000D01*
D10*
%TO.C,MK1*%
X127580000Y-72860000D02*
X128080000Y-72860000D01*
X127580000Y-73360000D02*
X127580000Y-72860000D01*
X127580000Y-75360000D02*
X127580000Y-75860000D01*
X127580000Y-75860000D02*
X128080000Y-75860000D01*
X131080000Y-75860000D02*
X131580000Y-75860000D01*
X131580000Y-72860000D02*
X131080000Y-72860000D01*
X131580000Y-73360000D02*
X131580000Y-72860000D01*
X131580000Y-75860000D02*
X131580000Y-75360000D01*
D13*
%TO.C,C2*%
X135348752Y-72805000D02*
X134826248Y-72805000D01*
X135348752Y-74275000D02*
X134826248Y-74275000D01*
%TO.C,J1*%
X126803000Y-80123000D02*
X126803000Y-82783000D01*
X126803000Y-82783000D02*
X137083000Y-82783000D01*
X127753000Y-79725929D02*
X127753000Y-80123000D01*
X127753000Y-88783000D02*
X127753000Y-82783000D01*
X128513000Y-79725929D02*
X128513000Y-80123000D01*
X128513000Y-82783000D02*
X128513000Y-88783000D01*
X128513000Y-88783000D02*
X127753000Y-88783000D01*
X129403000Y-80123000D02*
X129403000Y-82783000D01*
X130293000Y-79725929D02*
X130293000Y-80123000D01*
X130293000Y-88783000D02*
X130293000Y-82783000D01*
X131053000Y-79725929D02*
X131053000Y-80123000D01*
X131053000Y-82783000D02*
X131053000Y-88783000D01*
X131053000Y-88783000D02*
X130293000Y-88783000D01*
X131943000Y-80123000D02*
X131943000Y-82783000D01*
X132833000Y-79725929D02*
X132833000Y-80123000D01*
X132833000Y-88783000D02*
X132833000Y-82783000D01*
X133593000Y-79725929D02*
X133593000Y-80123000D01*
X133593000Y-82783000D02*
X133593000Y-88783000D01*
X133593000Y-88783000D02*
X132833000Y-88783000D01*
X134483000Y-80123000D02*
X134483000Y-82783000D01*
X135373000Y-79793000D02*
X135373000Y-80123000D01*
X135373000Y-88783000D02*
X135373000Y-82783000D01*
X135473000Y-82783000D02*
X135473000Y-88783000D01*
X135593000Y-82783000D02*
X135593000Y-88783000D01*
X135713000Y-82783000D02*
X135713000Y-88783000D01*
X135753000Y-77413000D02*
X137023000Y-77413000D01*
X135833000Y-82783000D02*
X135833000Y-88783000D01*
X135953000Y-82783000D02*
X135953000Y-88783000D01*
X136073000Y-82783000D02*
X136073000Y-88783000D01*
X136133000Y-79793000D02*
X136133000Y-80123000D01*
X136133000Y-82783000D02*
X136133000Y-88783000D01*
X136133000Y-88783000D02*
X135373000Y-88783000D01*
X137023000Y-77413000D02*
X137023000Y-78683000D01*
X137083000Y-80123000D02*
X126803000Y-80123000D01*
X137083000Y-82783000D02*
X137083000Y-80123000D01*
%TD*%
%LPC*%
D14*
%TO.C,C1*%
X134040000Y-75610000D03*
X136115000Y-75610000D03*
%TD*%
D15*
%TO.C,MK1*%
X128905000Y-74810000D03*
X130255000Y-74810000D03*
X130255000Y-73910000D03*
X128905000Y-73910000D03*
D16*
X129580000Y-75585000D03*
X129580000Y-73135000D03*
D17*
X127855000Y-74360000D03*
X131305000Y-74360000D03*
%TD*%
D18*
%TO.C,C2*%
X136125000Y-73540000D03*
X134050000Y-73540000D03*
%TD*%
D19*
%TO.C,J1*%
X135753000Y-78683000D03*
D20*
X133213000Y-78683000D03*
X130673000Y-78683000D03*
X128133000Y-78683000D03*
%TD*%
%LPD*%
M02*
